%TF.GenerationSoftware,KiCad,Pcbnew,(6.0.4)*%
%TF.CreationDate,2022-04-14T21:23:52-04:00*%
%TF.ProjectId,GEN3,47454e33-2e6b-4696-9361-645f70636258,rev?*%
%TF.SameCoordinates,Original*%
%TF.FileFunction,Legend,Top*%
%TF.FilePolarity,Positive*%
%FSLAX46Y46*%
G04 Gerber Fmt 4.6, Leading zero omitted, Abs format (unit mm)*
G04 Created by KiCad (PCBNEW (6.0.4)) date 2022-04-14 21:23:52*
%MOMM*%
%LPD*%
G01*
G04 APERTURE LIST*
%ADD10C,0.150000*%
%ADD11C,0.120000*%
G04 APERTURE END LIST*
D10*
X146502380Y-84629523D02*
X145502380Y-84629523D01*
X146502380Y-84058095D01*
X145502380Y-84058095D01*
X145502380Y-83391428D02*
X145502380Y-83200952D01*
X145550000Y-83105714D01*
X145645238Y-83010476D01*
X145835714Y-82962857D01*
X146169047Y-82962857D01*
X146359523Y-83010476D01*
X146454761Y-83105714D01*
X146502380Y-83200952D01*
X146502380Y-83391428D01*
X146454761Y-83486666D01*
X146359523Y-83581904D01*
X146169047Y-83629523D01*
X145835714Y-83629523D01*
X145645238Y-83581904D01*
X145550000Y-83486666D01*
X145502380Y-83391428D01*
X149125714Y-83355714D02*
X149197142Y-83427142D01*
X149268571Y-83641428D01*
X149268571Y-83784285D01*
X149197142Y-83998571D01*
X149054285Y-84141428D01*
X148911428Y-84212857D01*
X148625714Y-84284285D01*
X148411428Y-84284285D01*
X148125714Y-84212857D01*
X147982857Y-84141428D01*
X147840000Y-83998571D01*
X147768571Y-83784285D01*
X147768571Y-83641428D01*
X147840000Y-83427142D01*
X147911428Y-83355714D01*
X156102857Y-80478571D02*
X156102857Y-81621428D01*
X155531428Y-81050000D02*
X156674285Y-81050000D01*
X156102857Y-83478571D02*
X156102857Y-84621428D01*
%TO.C,fet1*%
X133135714Y-92820952D02*
X133135714Y-92440000D01*
X133802380Y-92678095D02*
X132945238Y-92678095D01*
X132850000Y-92630476D01*
X132802380Y-92535238D01*
X132802380Y-92440000D01*
X133754761Y-91725714D02*
X133802380Y-91820952D01*
X133802380Y-92011428D01*
X133754761Y-92106666D01*
X133659523Y-92154285D01*
X133278571Y-92154285D01*
X133183333Y-92106666D01*
X133135714Y-92011428D01*
X133135714Y-91820952D01*
X133183333Y-91725714D01*
X133278571Y-91678095D01*
X133373809Y-91678095D01*
X133469047Y-92154285D01*
X133135714Y-91392380D02*
X133135714Y-91011428D01*
X132802380Y-91249523D02*
X133659523Y-91249523D01*
X133754761Y-91201904D01*
X133802380Y-91106666D01*
X133802380Y-91011428D01*
X133802380Y-90154285D02*
X133802380Y-90725714D01*
X133802380Y-90440000D02*
X132802380Y-90440000D01*
X132945238Y-90535238D01*
X133040476Y-90630476D01*
X133088095Y-90725714D01*
%TO.C,Switch1*%
X144124761Y-86510476D02*
X144172380Y-86367619D01*
X144172380Y-86129523D01*
X144124761Y-86034285D01*
X144077142Y-85986666D01*
X143981904Y-85939047D01*
X143886666Y-85939047D01*
X143791428Y-85986666D01*
X143743809Y-86034285D01*
X143696190Y-86129523D01*
X143648571Y-86320000D01*
X143600952Y-86415238D01*
X143553333Y-86462857D01*
X143458095Y-86510476D01*
X143362857Y-86510476D01*
X143267619Y-86462857D01*
X143220000Y-86415238D01*
X143172380Y-86320000D01*
X143172380Y-86081904D01*
X143220000Y-85939047D01*
X143505714Y-85605714D02*
X144172380Y-85415238D01*
X143696190Y-85224761D01*
X144172380Y-85034285D01*
X143505714Y-84843809D01*
X144172380Y-84462857D02*
X143505714Y-84462857D01*
X143172380Y-84462857D02*
X143220000Y-84510476D01*
X143267619Y-84462857D01*
X143220000Y-84415238D01*
X143172380Y-84462857D01*
X143267619Y-84462857D01*
X143505714Y-84129523D02*
X143505714Y-83748571D01*
X143172380Y-83986666D02*
X144029523Y-83986666D01*
X144124761Y-83939047D01*
X144172380Y-83843809D01*
X144172380Y-83748571D01*
X144124761Y-82986666D02*
X144172380Y-83081904D01*
X144172380Y-83272380D01*
X144124761Y-83367619D01*
X144077142Y-83415238D01*
X143981904Y-83462857D01*
X143696190Y-83462857D01*
X143600952Y-83415238D01*
X143553333Y-83367619D01*
X143505714Y-83272380D01*
X143505714Y-83081904D01*
X143553333Y-82986666D01*
X144172380Y-82558095D02*
X143172380Y-82558095D01*
X144172380Y-82129523D02*
X143648571Y-82129523D01*
X143553333Y-82177142D01*
X143505714Y-82272380D01*
X143505714Y-82415238D01*
X143553333Y-82510476D01*
X143600952Y-82558095D01*
X144172380Y-81129523D02*
X144172380Y-81700952D01*
X144172380Y-81415238D02*
X143172380Y-81415238D01*
X143315238Y-81510476D01*
X143410476Y-81605714D01*
X143458095Y-81700952D01*
%TO.C,10K Resistors*%
X128850000Y-84442380D02*
X128278571Y-84442380D01*
X128564285Y-84442380D02*
X128564285Y-83442380D01*
X128469047Y-83585238D01*
X128373809Y-83680476D01*
X128278571Y-83728095D01*
X129469047Y-83442380D02*
X129564285Y-83442380D01*
X129659523Y-83490000D01*
X129707142Y-83537619D01*
X129754761Y-83632857D01*
X129802380Y-83823333D01*
X129802380Y-84061428D01*
X129754761Y-84251904D01*
X129707142Y-84347142D01*
X129659523Y-84394761D01*
X129564285Y-84442380D01*
X129469047Y-84442380D01*
X129373809Y-84394761D01*
X129326190Y-84347142D01*
X129278571Y-84251904D01*
X129230952Y-84061428D01*
X129230952Y-83823333D01*
X129278571Y-83632857D01*
X129326190Y-83537619D01*
X129373809Y-83490000D01*
X129469047Y-83442380D01*
X130230952Y-84442380D02*
X130230952Y-83442380D01*
X130802380Y-84442380D02*
X130373809Y-83870952D01*
X130802380Y-83442380D02*
X130230952Y-84013809D01*
X132564285Y-84442380D02*
X132230952Y-83966190D01*
X131992857Y-84442380D02*
X131992857Y-83442380D01*
X132373809Y-83442380D01*
X132469047Y-83490000D01*
X132516666Y-83537619D01*
X132564285Y-83632857D01*
X132564285Y-83775714D01*
X132516666Y-83870952D01*
X132469047Y-83918571D01*
X132373809Y-83966190D01*
X131992857Y-83966190D01*
X133373809Y-84394761D02*
X133278571Y-84442380D01*
X133088095Y-84442380D01*
X132992857Y-84394761D01*
X132945238Y-84299523D01*
X132945238Y-83918571D01*
X132992857Y-83823333D01*
X133088095Y-83775714D01*
X133278571Y-83775714D01*
X133373809Y-83823333D01*
X133421428Y-83918571D01*
X133421428Y-84013809D01*
X132945238Y-84109047D01*
X133802380Y-84394761D02*
X133897619Y-84442380D01*
X134088095Y-84442380D01*
X134183333Y-84394761D01*
X134230952Y-84299523D01*
X134230952Y-84251904D01*
X134183333Y-84156666D01*
X134088095Y-84109047D01*
X133945238Y-84109047D01*
X133850000Y-84061428D01*
X133802380Y-83966190D01*
X133802380Y-83918571D01*
X133850000Y-83823333D01*
X133945238Y-83775714D01*
X134088095Y-83775714D01*
X134183333Y-83823333D01*
X134659523Y-84442380D02*
X134659523Y-83775714D01*
X134659523Y-83442380D02*
X134611904Y-83490000D01*
X134659523Y-83537619D01*
X134707142Y-83490000D01*
X134659523Y-83442380D01*
X134659523Y-83537619D01*
X135088095Y-84394761D02*
X135183333Y-84442380D01*
X135373809Y-84442380D01*
X135469047Y-84394761D01*
X135516666Y-84299523D01*
X135516666Y-84251904D01*
X135469047Y-84156666D01*
X135373809Y-84109047D01*
X135230952Y-84109047D01*
X135135714Y-84061428D01*
X135088095Y-83966190D01*
X135088095Y-83918571D01*
X135135714Y-83823333D01*
X135230952Y-83775714D01*
X135373809Y-83775714D01*
X135469047Y-83823333D01*
X135802380Y-83775714D02*
X136183333Y-83775714D01*
X135945238Y-83442380D02*
X135945238Y-84299523D01*
X135992857Y-84394761D01*
X136088095Y-84442380D01*
X136183333Y-84442380D01*
X136659523Y-84442380D02*
X136564285Y-84394761D01*
X136516666Y-84347142D01*
X136469047Y-84251904D01*
X136469047Y-83966190D01*
X136516666Y-83870952D01*
X136564285Y-83823333D01*
X136659523Y-83775714D01*
X136802380Y-83775714D01*
X136897619Y-83823333D01*
X136945238Y-83870952D01*
X136992857Y-83966190D01*
X136992857Y-84251904D01*
X136945238Y-84347142D01*
X136897619Y-84394761D01*
X136802380Y-84442380D01*
X136659523Y-84442380D01*
X137421428Y-84442380D02*
X137421428Y-83775714D01*
X137421428Y-83966190D02*
X137469047Y-83870952D01*
X137516666Y-83823333D01*
X137611904Y-83775714D01*
X137707142Y-83775714D01*
X137992857Y-84394761D02*
X138088095Y-84442380D01*
X138278571Y-84442380D01*
X138373809Y-84394761D01*
X138421428Y-84299523D01*
X138421428Y-84251904D01*
X138373809Y-84156666D01*
X138278571Y-84109047D01*
X138135714Y-84109047D01*
X138040476Y-84061428D01*
X137992857Y-83966190D01*
X137992857Y-83918571D01*
X138040476Y-83823333D01*
X138135714Y-83775714D01*
X138278571Y-83775714D01*
X138373809Y-83823333D01*
%TO.C,BUCK1*%
X151741428Y-86078571D02*
X151884285Y-86126190D01*
X151931904Y-86173809D01*
X151979523Y-86269047D01*
X151979523Y-86411904D01*
X151931904Y-86507142D01*
X151884285Y-86554761D01*
X151789047Y-86602380D01*
X151408095Y-86602380D01*
X151408095Y-85602380D01*
X151741428Y-85602380D01*
X151836666Y-85650000D01*
X151884285Y-85697619D01*
X151931904Y-85792857D01*
X151931904Y-85888095D01*
X151884285Y-85983333D01*
X151836666Y-86030952D01*
X151741428Y-86078571D01*
X151408095Y-86078571D01*
X152408095Y-85602380D02*
X152408095Y-86411904D01*
X152455714Y-86507142D01*
X152503333Y-86554761D01*
X152598571Y-86602380D01*
X152789047Y-86602380D01*
X152884285Y-86554761D01*
X152931904Y-86507142D01*
X152979523Y-86411904D01*
X152979523Y-85602380D01*
X154027142Y-86507142D02*
X153979523Y-86554761D01*
X153836666Y-86602380D01*
X153741428Y-86602380D01*
X153598571Y-86554761D01*
X153503333Y-86459523D01*
X153455714Y-86364285D01*
X153408095Y-86173809D01*
X153408095Y-86030952D01*
X153455714Y-85840476D01*
X153503333Y-85745238D01*
X153598571Y-85650000D01*
X153741428Y-85602380D01*
X153836666Y-85602380D01*
X153979523Y-85650000D01*
X154027142Y-85697619D01*
X154455714Y-86602380D02*
X154455714Y-85602380D01*
X155027142Y-86602380D02*
X154598571Y-86030952D01*
X155027142Y-85602380D02*
X154455714Y-86173809D01*
X155979523Y-86602380D02*
X155408095Y-86602380D01*
X155693809Y-86602380D02*
X155693809Y-85602380D01*
X155598571Y-85745238D01*
X155503333Y-85840476D01*
X155408095Y-85888095D01*
%TO.C,Reed1*%
X139092380Y-92916190D02*
X138616190Y-93249523D01*
X139092380Y-93487619D02*
X138092380Y-93487619D01*
X138092380Y-93106666D01*
X138140000Y-93011428D01*
X138187619Y-92963809D01*
X138282857Y-92916190D01*
X138425714Y-92916190D01*
X138520952Y-92963809D01*
X138568571Y-93011428D01*
X138616190Y-93106666D01*
X138616190Y-93487619D01*
X139044761Y-92106666D02*
X139092380Y-92201904D01*
X139092380Y-92392380D01*
X139044761Y-92487619D01*
X138949523Y-92535238D01*
X138568571Y-92535238D01*
X138473333Y-92487619D01*
X138425714Y-92392380D01*
X138425714Y-92201904D01*
X138473333Y-92106666D01*
X138568571Y-92059047D01*
X138663809Y-92059047D01*
X138759047Y-92535238D01*
X139044761Y-91249523D02*
X139092380Y-91344761D01*
X139092380Y-91535238D01*
X139044761Y-91630476D01*
X138949523Y-91678095D01*
X138568571Y-91678095D01*
X138473333Y-91630476D01*
X138425714Y-91535238D01*
X138425714Y-91344761D01*
X138473333Y-91249523D01*
X138568571Y-91201904D01*
X138663809Y-91201904D01*
X138759047Y-91678095D01*
X139092380Y-90344761D02*
X138092380Y-90344761D01*
X139044761Y-90344761D02*
X139092380Y-90440000D01*
X139092380Y-90630476D01*
X139044761Y-90725714D01*
X138997142Y-90773333D01*
X138901904Y-90820952D01*
X138616190Y-90820952D01*
X138520952Y-90773333D01*
X138473333Y-90725714D01*
X138425714Y-90630476D01*
X138425714Y-90440000D01*
X138473333Y-90344761D01*
X139092380Y-89344761D02*
X139092380Y-89916190D01*
X139092380Y-89630476D02*
X138092380Y-89630476D01*
X138235238Y-89725714D01*
X138330476Y-89820952D01*
X138378095Y-89916190D01*
%TO.C,fet2*%
X133135714Y-77580952D02*
X133135714Y-77200000D01*
X133802380Y-77438095D02*
X132945238Y-77438095D01*
X132850000Y-77390476D01*
X132802380Y-77295238D01*
X132802380Y-77200000D01*
X133754761Y-76485714D02*
X133802380Y-76580952D01*
X133802380Y-76771428D01*
X133754761Y-76866666D01*
X133659523Y-76914285D01*
X133278571Y-76914285D01*
X133183333Y-76866666D01*
X133135714Y-76771428D01*
X133135714Y-76580952D01*
X133183333Y-76485714D01*
X133278571Y-76438095D01*
X133373809Y-76438095D01*
X133469047Y-76914285D01*
X133135714Y-76152380D02*
X133135714Y-75771428D01*
X132802380Y-76009523D02*
X133659523Y-76009523D01*
X133754761Y-75961904D01*
X133802380Y-75866666D01*
X133802380Y-75771428D01*
X132897619Y-75485714D02*
X132850000Y-75438095D01*
X132802380Y-75342857D01*
X132802380Y-75104761D01*
X132850000Y-75009523D01*
X132897619Y-74961904D01*
X132992857Y-74914285D01*
X133088095Y-74914285D01*
X133230952Y-74961904D01*
X133802380Y-75533333D01*
X133802380Y-74914285D01*
%TO.C,right_tube1*%
X121102380Y-82716190D02*
X120435714Y-82716190D01*
X120626190Y-82716190D02*
X120530952Y-82668571D01*
X120483333Y-82620952D01*
X120435714Y-82525714D01*
X120435714Y-82430476D01*
X121102380Y-82097142D02*
X120435714Y-82097142D01*
X120102380Y-82097142D02*
X120150000Y-82144761D01*
X120197619Y-82097142D01*
X120150000Y-82049523D01*
X120102380Y-82097142D01*
X120197619Y-82097142D01*
X120435714Y-81192380D02*
X121245238Y-81192380D01*
X121340476Y-81240000D01*
X121388095Y-81287619D01*
X121435714Y-81382857D01*
X121435714Y-81525714D01*
X121388095Y-81620952D01*
X121054761Y-81192380D02*
X121102380Y-81287619D01*
X121102380Y-81478095D01*
X121054761Y-81573333D01*
X121007142Y-81620952D01*
X120911904Y-81668571D01*
X120626190Y-81668571D01*
X120530952Y-81620952D01*
X120483333Y-81573333D01*
X120435714Y-81478095D01*
X120435714Y-81287619D01*
X120483333Y-81192380D01*
X121102380Y-80716190D02*
X120102380Y-80716190D01*
X121102380Y-80287619D02*
X120578571Y-80287619D01*
X120483333Y-80335238D01*
X120435714Y-80430476D01*
X120435714Y-80573333D01*
X120483333Y-80668571D01*
X120530952Y-80716190D01*
X120435714Y-79954285D02*
X120435714Y-79573333D01*
X120102380Y-79811428D02*
X120959523Y-79811428D01*
X121054761Y-79763809D01*
X121102380Y-79668571D01*
X121102380Y-79573333D01*
X121197619Y-79478095D02*
X121197619Y-78716190D01*
X120435714Y-78620952D02*
X120435714Y-78240000D01*
X120102380Y-78478095D02*
X120959523Y-78478095D01*
X121054761Y-78430476D01*
X121102380Y-78335238D01*
X121102380Y-78240000D01*
X120435714Y-77478095D02*
X121102380Y-77478095D01*
X120435714Y-77906666D02*
X120959523Y-77906666D01*
X121054761Y-77859047D01*
X121102380Y-77763809D01*
X121102380Y-77620952D01*
X121054761Y-77525714D01*
X121007142Y-77478095D01*
X121102380Y-77001904D02*
X120102380Y-77001904D01*
X120483333Y-77001904D02*
X120435714Y-76906666D01*
X120435714Y-76716190D01*
X120483333Y-76620952D01*
X120530952Y-76573333D01*
X120626190Y-76525714D01*
X120911904Y-76525714D01*
X121007142Y-76573333D01*
X121054761Y-76620952D01*
X121102380Y-76716190D01*
X121102380Y-76906666D01*
X121054761Y-77001904D01*
X121054761Y-75716190D02*
X121102380Y-75811428D01*
X121102380Y-76001904D01*
X121054761Y-76097142D01*
X120959523Y-76144761D01*
X120578571Y-76144761D01*
X120483333Y-76097142D01*
X120435714Y-76001904D01*
X120435714Y-75811428D01*
X120483333Y-75716190D01*
X120578571Y-75668571D01*
X120673809Y-75668571D01*
X120769047Y-76144761D01*
X121102380Y-74716190D02*
X121102380Y-75287619D01*
X121102380Y-75001904D02*
X120102380Y-75001904D01*
X120245238Y-75097142D01*
X120340476Y-75192380D01*
X120388095Y-75287619D01*
%TO.C,Reed2*%
X138882380Y-77676190D02*
X138406190Y-78009523D01*
X138882380Y-78247619D02*
X137882380Y-78247619D01*
X137882380Y-77866666D01*
X137930000Y-77771428D01*
X137977619Y-77723809D01*
X138072857Y-77676190D01*
X138215714Y-77676190D01*
X138310952Y-77723809D01*
X138358571Y-77771428D01*
X138406190Y-77866666D01*
X138406190Y-78247619D01*
X138834761Y-76866666D02*
X138882380Y-76961904D01*
X138882380Y-77152380D01*
X138834761Y-77247619D01*
X138739523Y-77295238D01*
X138358571Y-77295238D01*
X138263333Y-77247619D01*
X138215714Y-77152380D01*
X138215714Y-76961904D01*
X138263333Y-76866666D01*
X138358571Y-76819047D01*
X138453809Y-76819047D01*
X138549047Y-77295238D01*
X138834761Y-76009523D02*
X138882380Y-76104761D01*
X138882380Y-76295238D01*
X138834761Y-76390476D01*
X138739523Y-76438095D01*
X138358571Y-76438095D01*
X138263333Y-76390476D01*
X138215714Y-76295238D01*
X138215714Y-76104761D01*
X138263333Y-76009523D01*
X138358571Y-75961904D01*
X138453809Y-75961904D01*
X138549047Y-76438095D01*
X138882380Y-75104761D02*
X137882380Y-75104761D01*
X138834761Y-75104761D02*
X138882380Y-75200000D01*
X138882380Y-75390476D01*
X138834761Y-75485714D01*
X138787142Y-75533333D01*
X138691904Y-75580952D01*
X138406190Y-75580952D01*
X138310952Y-75533333D01*
X138263333Y-75485714D01*
X138215714Y-75390476D01*
X138215714Y-75200000D01*
X138263333Y-75104761D01*
X137977619Y-74676190D02*
X137930000Y-74628571D01*
X137882380Y-74533333D01*
X137882380Y-74295238D01*
X137930000Y-74200000D01*
X137977619Y-74152380D01*
X138072857Y-74104761D01*
X138168095Y-74104761D01*
X138310952Y-74152380D01*
X138882380Y-74723809D01*
X138882380Y-74104761D01*
%TO.C,left_tube1*%
X121102380Y-92257142D02*
X121054761Y-92352380D01*
X120959523Y-92400000D01*
X120102380Y-92400000D01*
X121054761Y-91495238D02*
X121102380Y-91590476D01*
X121102380Y-91780952D01*
X121054761Y-91876190D01*
X120959523Y-91923809D01*
X120578571Y-91923809D01*
X120483333Y-91876190D01*
X120435714Y-91780952D01*
X120435714Y-91590476D01*
X120483333Y-91495238D01*
X120578571Y-91447619D01*
X120673809Y-91447619D01*
X120769047Y-91923809D01*
X120435714Y-91161904D02*
X120435714Y-90780952D01*
X121102380Y-91019047D02*
X120245238Y-91019047D01*
X120150000Y-90971428D01*
X120102380Y-90876190D01*
X120102380Y-90780952D01*
X120435714Y-90590476D02*
X120435714Y-90209523D01*
X120102380Y-90447619D02*
X120959523Y-90447619D01*
X121054761Y-90400000D01*
X121102380Y-90304761D01*
X121102380Y-90209523D01*
X121197619Y-90114285D02*
X121197619Y-89352380D01*
X120435714Y-89257142D02*
X120435714Y-88876190D01*
X120102380Y-89114285D02*
X120959523Y-89114285D01*
X121054761Y-89066666D01*
X121102380Y-88971428D01*
X121102380Y-88876190D01*
X120435714Y-88114285D02*
X121102380Y-88114285D01*
X120435714Y-88542857D02*
X120959523Y-88542857D01*
X121054761Y-88495238D01*
X121102380Y-88400000D01*
X121102380Y-88257142D01*
X121054761Y-88161904D01*
X121007142Y-88114285D01*
X121102380Y-87638095D02*
X120102380Y-87638095D01*
X120483333Y-87638095D02*
X120435714Y-87542857D01*
X120435714Y-87352380D01*
X120483333Y-87257142D01*
X120530952Y-87209523D01*
X120626190Y-87161904D01*
X120911904Y-87161904D01*
X121007142Y-87209523D01*
X121054761Y-87257142D01*
X121102380Y-87352380D01*
X121102380Y-87542857D01*
X121054761Y-87638095D01*
X121054761Y-86352380D02*
X121102380Y-86447619D01*
X121102380Y-86638095D01*
X121054761Y-86733333D01*
X120959523Y-86780952D01*
X120578571Y-86780952D01*
X120483333Y-86733333D01*
X120435714Y-86638095D01*
X120435714Y-86447619D01*
X120483333Y-86352380D01*
X120578571Y-86304761D01*
X120673809Y-86304761D01*
X120769047Y-86780952D01*
X121102380Y-85352380D02*
X121102380Y-85923809D01*
X121102380Y-85638095D02*
X120102380Y-85638095D01*
X120245238Y-85733333D01*
X120340476Y-85828571D01*
X120388095Y-85923809D01*
D11*
%TO.C,fet1*%
X127740000Y-93290000D02*
X131340000Y-93290000D01*
X129540000Y-88839999D02*
G75*
G03*
X127701522Y-93278478I0J-2600001D01*
G01*
X131378478Y-93278478D02*
G75*
G03*
X129540000Y-88840000I-1838478J1838478D01*
G01*
%TO.C,Switch1*%
X147320000Y-85030000D02*
X149920000Y-85030000D01*
X146050000Y-87690000D02*
X144720000Y-87690000D01*
X149920000Y-87690000D02*
X149920000Y-85030000D01*
X147320000Y-87690000D02*
X147320000Y-85030000D01*
X147320000Y-87690000D02*
X149920000Y-87690000D01*
X144720000Y-87690000D02*
X144720000Y-86360000D01*
%TO.C,10K Resistors*%
X136620000Y-87730000D02*
X136620000Y-84990000D01*
X136620000Y-84990000D02*
X130080000Y-84990000D01*
X129310000Y-86360000D02*
X130080000Y-86360000D01*
X130080000Y-87730000D02*
X136620000Y-87730000D01*
X130080000Y-84990000D02*
X130080000Y-87730000D01*
X137390000Y-86360000D02*
X136620000Y-86360000D01*
%TO.C,BUCK1*%
X155000000Y-85150000D02*
X153670000Y-85150000D01*
X155000000Y-79950000D02*
X152340000Y-79950000D01*
X155000000Y-83820000D02*
X155000000Y-85150000D01*
X155000000Y-82550000D02*
X152340000Y-82550000D01*
X152340000Y-82550000D02*
X152340000Y-79950000D01*
X155000000Y-82550000D02*
X155000000Y-79950000D01*
%TO.C,Reed1*%
X142240000Y-92770000D02*
X142240000Y-90110000D01*
X142240000Y-92770000D02*
X144840000Y-92770000D01*
X142240000Y-90110000D02*
X144840000Y-90110000D01*
X140970000Y-92770000D02*
X139640000Y-92770000D01*
X139640000Y-92770000D02*
X139640000Y-91440000D01*
X144840000Y-92770000D02*
X144840000Y-90110000D01*
%TO.C,fet2*%
X131340000Y-74350000D02*
X127740000Y-74350000D01*
X127701522Y-74361522D02*
G75*
G03*
X129540000Y-78800000I1838478J-1838478D01*
G01*
X129540000Y-78800001D02*
G75*
G03*
X131378478Y-74361522I0J2600001D01*
G01*
%TO.C,R1*%
X130080000Y-79910000D02*
X130080000Y-82650000D01*
X130080000Y-82650000D02*
X136620000Y-82650000D01*
X136620000Y-79910000D02*
X130080000Y-79910000D01*
X136620000Y-82650000D02*
X136620000Y-79910000D01*
X137390000Y-81280000D02*
X136620000Y-81280000D01*
X129310000Y-81280000D02*
X130080000Y-81280000D01*
%TO.C,right_tube1*%
X121860000Y-76200000D02*
X121860000Y-74870000D01*
X124520000Y-77470000D02*
X124520000Y-80070000D01*
X121860000Y-80070000D02*
X124520000Y-80070000D01*
X121860000Y-77470000D02*
X124520000Y-77470000D01*
X121860000Y-77470000D02*
X121860000Y-80070000D01*
X121860000Y-74870000D02*
X123190000Y-74870000D01*
%TO.C,switch2*%
X144720000Y-82610000D02*
X144720000Y-81280000D01*
X149920000Y-82610000D02*
X149920000Y-79950000D01*
X146050000Y-82610000D02*
X144720000Y-82610000D01*
X147320000Y-82610000D02*
X147320000Y-79950000D01*
X147320000Y-79950000D02*
X149920000Y-79950000D01*
X147320000Y-82610000D02*
X149920000Y-82610000D01*
%TO.C,Reed2*%
X142240000Y-77530000D02*
X142240000Y-74870000D01*
X144840000Y-77530000D02*
X144840000Y-74870000D01*
X142240000Y-77530000D02*
X144840000Y-77530000D01*
X142240000Y-74870000D02*
X144840000Y-74870000D01*
X140970000Y-77530000D02*
X139640000Y-77530000D01*
X139640000Y-77530000D02*
X139640000Y-76200000D01*
%TO.C,left_tube1*%
X121860000Y-87570000D02*
X123190000Y-87570000D01*
X121860000Y-90170000D02*
X121860000Y-92770000D01*
X124520000Y-90170000D02*
X124520000Y-92770000D01*
X121860000Y-92770000D02*
X124520000Y-92770000D01*
X121860000Y-90170000D02*
X124520000Y-90170000D01*
X121860000Y-88900000D02*
X121860000Y-87570000D01*
%TD*%
M02*
