M48
; DRILL file {KiCad (6.0.4)} date Thu Apr 14 21:22:27 2022
; FORMAT={2:4/ absolute / inch / suppress leading zeros}
; #@! TF.CreationDate,2022-04-14T21:22:27-04:00
; #@! TF.GenerationSoftware,Kicad,Pcbnew,(6.0.4)
; #@! TF.FileFunction,Plated,1,2,PTH
FMAT,2
INCH,TZ
; #@! TA.AperFunction,Plated,PTH,ComponentDrill
T1C0.0295
; #@! TA.AperFunction,Plated,PTH,ComponentDrill
T2C0.0315
; #@! TA.AperFunction,Plated,PTH,ComponentDrill
T3C0.0394
%
G90
G05
T1
X50500Y-30000
X50500Y-36000
X51000Y-30000
X51000Y-36000
X51500Y-30000
X51500Y-36000
T2
X50500Y-32000
X50500Y-34000
X54500Y-32000
X54500Y-34000
T3
X48500Y-30000
X48500Y-31000
X48500Y-35000
X48500Y-36000
X55500Y-30000
X55500Y-36000
X56500Y-30000
X56500Y-36000
X57500Y-32000
X57500Y-34000
X58500Y-32000
X58500Y-34000
X60500Y-32000
X60500Y-33000
T0
M30
