%TF.GenerationSoftware,KiCad,Pcbnew,(6.0.4)*%
%TF.CreationDate,2022-04-14T21:23:52-04:00*%
%TF.ProjectId,GEN3,47454e33-2e6b-4696-9361-645f70636258,rev?*%
%TF.SameCoordinates,Original*%
%TF.FileFunction,Copper,L1,Top*%
%TF.FilePolarity,Positive*%
%FSLAX46Y46*%
G04 Gerber Fmt 4.6, Leading zero omitted, Abs format (unit mm)*
G04 Created by KiCad (PCBNEW (6.0.4)) date 2022-04-14 21:23:52*
%MOMM*%
%LPD*%
G01*
G04 APERTURE LIST*
%TA.AperFunction,ComponentPad*%
%ADD10R,1.050000X1.500000*%
%TD*%
%TA.AperFunction,ComponentPad*%
%ADD11O,1.050000X1.500000*%
%TD*%
%TA.AperFunction,ComponentPad*%
%ADD12R,1.700000X1.700000*%
%TD*%
%TA.AperFunction,ComponentPad*%
%ADD13O,1.700000X1.700000*%
%TD*%
%TA.AperFunction,ComponentPad*%
%ADD14C,1.600000*%
%TD*%
%TA.AperFunction,ComponentPad*%
%ADD15O,1.600000X1.600000*%
%TD*%
%TA.AperFunction,Conductor*%
%ADD16C,0.250000*%
%TD*%
G04 APERTURE END LIST*
D10*
%TO.P,fet1,1,S*%
%TO.N,GND*%
X128270000Y-91440000D03*
D11*
%TO.P,fet1,2,G*%
%TO.N,Net-(fet1-Pad2)*%
X129540000Y-91440000D03*
%TO.P,fet1,3,D*%
%TO.N,Net-(fet1-Pad3)*%
X130810000Y-91440000D03*
%TD*%
D12*
%TO.P,Switch1,1,Pin_1*%
%TO.N,Net-(left_tube1-Pad2)*%
X146050000Y-86360000D03*
D13*
%TO.P,Switch1,2,Pin_2*%
%TO.N,Net-(Switch1-Pad2)*%
X148590000Y-86360000D03*
%TD*%
D14*
%TO.P,10K Resistors,1*%
%TO.N,GND*%
X128270000Y-86360000D03*
D15*
%TO.P,10K Resistors,2*%
%TO.N,Net-(fet1-Pad2)*%
X138430000Y-86360000D03*
%TD*%
D12*
%TO.P,BUCK1,1,Pin_1*%
%TO.N,GND*%
X153670000Y-83820000D03*
D13*
%TO.P,BUCK1,2,Pin_2*%
%TO.N,Net-(Switch1-Pad2)*%
X153670000Y-81280000D03*
%TD*%
D12*
%TO.P,Reed1,1,Pin_1*%
%TO.N,Net-(fet1-Pad2)*%
X140970000Y-91440000D03*
D13*
%TO.P,Reed1,2,Pin_2*%
%TO.N,Net-(left_tube1-Pad2)*%
X143510000Y-91440000D03*
%TD*%
D10*
%TO.P,fet2,1,S*%
%TO.N,GND*%
X130810000Y-76200000D03*
D11*
%TO.P,fet2,2,G*%
%TO.N,Net-(reed2-Pad1)*%
X129540000Y-76200000D03*
%TO.P,fet2,3,D*%
%TO.N,Net-(right_tube1-Pad1)*%
X128270000Y-76200000D03*
%TD*%
D14*
%TO.P,R1,1*%
%TO.N,GND*%
X128270000Y-81280000D03*
D15*
%TO.P,R1,2*%
%TO.N,Net-(reed2-Pad1)*%
X138430000Y-81280000D03*
%TD*%
D12*
%TO.P,right_tube1,1,Pin_1*%
%TO.N,Net-(right_tube1-Pad1)*%
X123190000Y-76200000D03*
D13*
%TO.P,right_tube1,2,Pin_2*%
%TO.N,Net-(switch2-Pad1)*%
X123190000Y-78740000D03*
%TD*%
D12*
%TO.P,switch2,1,Pin_1*%
%TO.N,Net-(switch2-Pad1)*%
X146050000Y-81280000D03*
D13*
%TO.P,switch2,2,Pin_2*%
%TO.N,Net-(switch2-Pad2)*%
X148590000Y-81280000D03*
%TD*%
D12*
%TO.P,Reed2,1,Pin_1*%
%TO.N,Net-(reed2-Pad1)*%
X140970000Y-76200000D03*
D13*
%TO.P,Reed2,2,Pin_2*%
%TO.N,Net-(switch2-Pad1)*%
X143510000Y-76200000D03*
%TD*%
D12*
%TO.P,left_tube1,1,Pin_1*%
%TO.N,Net-(fet1-Pad3)*%
X123190000Y-88900000D03*
D13*
%TO.P,left_tube1,2,Pin_2*%
%TO.N,Net-(left_tube1-Pad2)*%
X123190000Y-91440000D03*
%TD*%
D16*
%TO.N,Net-(fet1-Pad3)*%
X130810000Y-91665000D02*
X130810000Y-91440000D01*
X126804520Y-92514520D02*
X129960480Y-92514520D01*
X129960480Y-92514520D02*
X130810000Y-91665000D01*
X123190000Y-88900000D02*
X126804520Y-92514520D01*
%TO.N,Net-(right_tube1-Pad1)*%
X123190000Y-76200000D02*
X128270000Y-76200000D01*
%TD*%
%TA.AperFunction,Conductor*%
%TO.N,GND*%
G36*
X156913621Y-74188502D02*
G01*
X156960114Y-74242158D01*
X156971500Y-74294500D01*
X156971500Y-93345500D01*
X156951498Y-93413621D01*
X156897842Y-93460114D01*
X156845500Y-93471500D01*
X120014500Y-93471500D01*
X119946379Y-93451498D01*
X119899886Y-93397842D01*
X119888500Y-93345500D01*
X119888500Y-91406695D01*
X121827251Y-91406695D01*
X121827548Y-91411848D01*
X121827548Y-91411851D01*
X121833011Y-91506590D01*
X121840110Y-91629715D01*
X121841247Y-91634761D01*
X121841248Y-91634767D01*
X121852031Y-91682614D01*
X121889222Y-91847639D01*
X121973266Y-92054616D01*
X122089987Y-92245088D01*
X122236250Y-92413938D01*
X122408126Y-92556632D01*
X122601000Y-92669338D01*
X122809692Y-92749030D01*
X122814760Y-92750061D01*
X122814763Y-92750062D01*
X122922017Y-92771883D01*
X123028597Y-92793567D01*
X123033772Y-92793757D01*
X123033774Y-92793757D01*
X123246673Y-92801564D01*
X123246677Y-92801564D01*
X123251837Y-92801753D01*
X123256957Y-92801097D01*
X123256959Y-92801097D01*
X123468288Y-92774025D01*
X123468289Y-92774025D01*
X123473416Y-92773368D01*
X123478366Y-92771883D01*
X123682429Y-92710661D01*
X123682434Y-92710659D01*
X123687384Y-92709174D01*
X123887994Y-92610896D01*
X124069860Y-92481173D01*
X124228096Y-92323489D01*
X124276278Y-92256437D01*
X124355435Y-92146277D01*
X124358453Y-92142077D01*
X124389378Y-92079506D01*
X124455136Y-91946453D01*
X124455137Y-91946451D01*
X124457430Y-91941811D01*
X124522370Y-91728069D01*
X124551529Y-91506590D01*
X124552676Y-91459654D01*
X124574336Y-91392042D01*
X124629111Y-91346874D01*
X124699611Y-91338490D01*
X124767733Y-91373637D01*
X126300863Y-92906767D01*
X126308407Y-92915057D01*
X126312520Y-92921538D01*
X126318297Y-92926963D01*
X126362187Y-92968178D01*
X126365029Y-92970933D01*
X126384750Y-92990654D01*
X126387945Y-92993132D01*
X126396967Y-93000838D01*
X126429199Y-93031106D01*
X126436148Y-93034926D01*
X126446952Y-93040866D01*
X126463476Y-93051719D01*
X126479479Y-93064133D01*
X126520063Y-93081696D01*
X126530693Y-93086903D01*
X126569460Y-93108215D01*
X126577137Y-93110186D01*
X126577142Y-93110188D01*
X126589078Y-93113252D01*
X126607786Y-93119657D01*
X126626375Y-93127701D01*
X126634203Y-93128941D01*
X126634210Y-93128943D01*
X126670044Y-93134619D01*
X126681664Y-93137025D01*
X126713479Y-93145193D01*
X126724490Y-93148020D01*
X126744744Y-93148020D01*
X126764454Y-93149571D01*
X126784463Y-93152740D01*
X126792355Y-93151994D01*
X126811100Y-93150222D01*
X126828482Y-93148579D01*
X126840339Y-93148020D01*
X129881713Y-93148020D01*
X129892896Y-93148547D01*
X129900389Y-93150222D01*
X129908315Y-93149973D01*
X129908316Y-93149973D01*
X129968466Y-93148082D01*
X129972425Y-93148020D01*
X130000336Y-93148020D01*
X130004271Y-93147523D01*
X130004336Y-93147515D01*
X130016173Y-93146582D01*
X130048431Y-93145568D01*
X130052450Y-93145442D01*
X130060369Y-93145193D01*
X130079823Y-93139541D01*
X130099180Y-93135533D01*
X130111410Y-93133988D01*
X130111411Y-93133988D01*
X130119277Y-93132994D01*
X130126648Y-93130075D01*
X130126650Y-93130075D01*
X130160392Y-93116716D01*
X130171622Y-93112871D01*
X130206463Y-93102749D01*
X130206464Y-93102749D01*
X130214073Y-93100538D01*
X130220892Y-93096505D01*
X130220897Y-93096503D01*
X130231508Y-93090227D01*
X130249256Y-93081532D01*
X130268097Y-93074072D01*
X130288467Y-93059273D01*
X130303867Y-93048084D01*
X130313787Y-93041568D01*
X130345015Y-93023100D01*
X130345018Y-93023098D01*
X130351842Y-93019062D01*
X130366163Y-93004741D01*
X130381197Y-92991900D01*
X130382912Y-92990654D01*
X130397587Y-92979992D01*
X130425778Y-92945915D01*
X130433768Y-92937136D01*
X130637801Y-92733103D01*
X130700113Y-92699077D01*
X130740066Y-92696888D01*
X130796621Y-92702832D01*
X130796623Y-92702832D01*
X130802750Y-92703476D01*
X130886014Y-92695898D01*
X130998457Y-92685665D01*
X130998460Y-92685664D01*
X131004596Y-92685106D01*
X131010502Y-92683368D01*
X131010506Y-92683367D01*
X131193120Y-92629620D01*
X131193119Y-92629620D01*
X131199029Y-92627881D01*
X131204486Y-92625028D01*
X131204489Y-92625027D01*
X131288837Y-92580931D01*
X131378645Y-92533981D01*
X131385715Y-92528297D01*
X131531801Y-92410840D01*
X131536601Y-92406981D01*
X131594370Y-92338134D01*
X139611500Y-92338134D01*
X139618255Y-92400316D01*
X139669385Y-92536705D01*
X139756739Y-92653261D01*
X139873295Y-92740615D01*
X140009684Y-92791745D01*
X140071866Y-92798500D01*
X141868134Y-92798500D01*
X141930316Y-92791745D01*
X142066705Y-92740615D01*
X142183261Y-92653261D01*
X142270615Y-92536705D01*
X142292799Y-92477529D01*
X142314598Y-92419382D01*
X142357240Y-92362618D01*
X142423802Y-92337918D01*
X142493150Y-92353126D01*
X142527817Y-92381114D01*
X142556250Y-92413938D01*
X142728126Y-92556632D01*
X142921000Y-92669338D01*
X143129692Y-92749030D01*
X143134760Y-92750061D01*
X143134763Y-92750062D01*
X143242017Y-92771883D01*
X143348597Y-92793567D01*
X143353772Y-92793757D01*
X143353774Y-92793757D01*
X143566673Y-92801564D01*
X143566677Y-92801564D01*
X143571837Y-92801753D01*
X143576957Y-92801097D01*
X143576959Y-92801097D01*
X143788288Y-92774025D01*
X143788289Y-92774025D01*
X143793416Y-92773368D01*
X143798366Y-92771883D01*
X144002429Y-92710661D01*
X144002434Y-92710659D01*
X144007384Y-92709174D01*
X144207994Y-92610896D01*
X144389860Y-92481173D01*
X144548096Y-92323489D01*
X144596278Y-92256437D01*
X144675435Y-92146277D01*
X144678453Y-92142077D01*
X144709378Y-92079506D01*
X144775136Y-91946453D01*
X144775137Y-91946451D01*
X144777430Y-91941811D01*
X144842370Y-91728069D01*
X144871529Y-91506590D01*
X144873156Y-91440000D01*
X144854852Y-91217361D01*
X144800431Y-91000702D01*
X144711354Y-90795840D01*
X144614252Y-90645743D01*
X144592822Y-90612617D01*
X144592820Y-90612614D01*
X144590014Y-90608277D01*
X144439670Y-90443051D01*
X144435619Y-90439852D01*
X144435615Y-90439848D01*
X144268414Y-90307800D01*
X144268410Y-90307798D01*
X144264359Y-90304598D01*
X144068789Y-90196638D01*
X144063920Y-90194914D01*
X144063916Y-90194912D01*
X143863087Y-90123795D01*
X143863083Y-90123794D01*
X143858212Y-90122069D01*
X143853119Y-90121162D01*
X143853116Y-90121161D01*
X143643373Y-90083800D01*
X143643367Y-90083799D01*
X143638284Y-90082894D01*
X143564452Y-90081992D01*
X143420081Y-90080228D01*
X143420079Y-90080228D01*
X143414911Y-90080165D01*
X143194091Y-90113955D01*
X142981756Y-90183357D01*
X142783607Y-90286507D01*
X142779474Y-90289610D01*
X142779471Y-90289612D01*
X142609100Y-90417530D01*
X142604965Y-90420635D01*
X142548537Y-90479684D01*
X142524283Y-90505064D01*
X142462759Y-90540494D01*
X142391846Y-90537037D01*
X142334060Y-90495791D01*
X142315207Y-90462243D01*
X142273767Y-90351703D01*
X142270615Y-90343295D01*
X142183261Y-90226739D01*
X142066705Y-90139385D01*
X141930316Y-90088255D01*
X141868134Y-90081500D01*
X140071866Y-90081500D01*
X140009684Y-90088255D01*
X139873295Y-90139385D01*
X139756739Y-90226739D01*
X139669385Y-90343295D01*
X139618255Y-90479684D01*
X139611500Y-90541866D01*
X139611500Y-92338134D01*
X131594370Y-92338134D01*
X131666881Y-92251719D01*
X131669845Y-92246327D01*
X131669848Y-92246323D01*
X131761556Y-92079506D01*
X131764523Y-92074109D01*
X131825807Y-91880916D01*
X131826850Y-91871624D01*
X131843107Y-91726683D01*
X131843500Y-91723183D01*
X131843500Y-91163996D01*
X131828723Y-91013287D01*
X131770142Y-90819258D01*
X131674990Y-90640302D01*
X131546890Y-90483237D01*
X131534539Y-90473019D01*
X131395472Y-90357973D01*
X131395469Y-90357971D01*
X131390722Y-90354044D01*
X131212435Y-90257644D01*
X131095214Y-90221358D01*
X131024707Y-90199532D01*
X131024704Y-90199531D01*
X131018820Y-90197710D01*
X131012695Y-90197066D01*
X131012694Y-90197066D01*
X130823378Y-90177168D01*
X130823377Y-90177168D01*
X130817250Y-90176524D01*
X130738709Y-90183672D01*
X130621543Y-90194335D01*
X130621540Y-90194336D01*
X130615404Y-90194894D01*
X130609498Y-90196632D01*
X130609494Y-90196633D01*
X130525487Y-90221358D01*
X130420971Y-90252119D01*
X130415514Y-90254972D01*
X130415511Y-90254973D01*
X130359762Y-90284118D01*
X130241540Y-90345923D01*
X130241538Y-90345923D01*
X130241355Y-90346019D01*
X130241337Y-90345984D01*
X130175559Y-90365889D01*
X130114591Y-90350729D01*
X130105815Y-90345984D01*
X129942435Y-90257644D01*
X129825214Y-90221358D01*
X129754707Y-90199532D01*
X129754704Y-90199531D01*
X129748820Y-90197710D01*
X129742695Y-90197066D01*
X129742694Y-90197066D01*
X129553378Y-90177168D01*
X129553377Y-90177168D01*
X129547250Y-90176524D01*
X129468709Y-90183672D01*
X129351543Y-90194335D01*
X129351540Y-90194336D01*
X129345404Y-90194894D01*
X129339498Y-90196632D01*
X129339494Y-90196633D01*
X129255487Y-90221358D01*
X129150971Y-90252119D01*
X129150771Y-90251441D01*
X129084727Y-90257956D01*
X129047677Y-90244680D01*
X129033063Y-90236679D01*
X128912606Y-90191522D01*
X128897351Y-90187895D01*
X128846486Y-90182369D01*
X128839672Y-90182000D01*
X128542115Y-90182000D01*
X128526876Y-90186475D01*
X128525671Y-90187865D01*
X128524000Y-90195548D01*
X128524000Y-90993758D01*
X128523215Y-91007803D01*
X128506500Y-91156817D01*
X128506500Y-91568000D01*
X128486498Y-91636121D01*
X128432842Y-91682614D01*
X128380500Y-91694000D01*
X127255116Y-91694000D01*
X127239877Y-91698475D01*
X127238672Y-91699865D01*
X127237001Y-91707548D01*
X127237001Y-91746906D01*
X127216999Y-91815027D01*
X127163343Y-91861520D01*
X127093069Y-91871624D01*
X127028489Y-91842130D01*
X127021906Y-91836001D01*
X126353790Y-91167885D01*
X127237000Y-91167885D01*
X127241475Y-91183124D01*
X127242865Y-91184329D01*
X127250548Y-91186000D01*
X127997885Y-91186000D01*
X128013124Y-91181525D01*
X128014329Y-91180135D01*
X128016000Y-91172452D01*
X128016000Y-90200116D01*
X128011525Y-90184877D01*
X128010135Y-90183672D01*
X128002452Y-90182001D01*
X127700331Y-90182001D01*
X127693510Y-90182371D01*
X127642648Y-90187895D01*
X127627396Y-90191521D01*
X127506946Y-90236676D01*
X127491351Y-90245214D01*
X127389276Y-90321715D01*
X127376715Y-90334276D01*
X127300214Y-90436351D01*
X127291676Y-90451946D01*
X127246522Y-90572394D01*
X127242895Y-90587649D01*
X127237369Y-90638514D01*
X127237000Y-90645328D01*
X127237000Y-91167885D01*
X126353790Y-91167885D01*
X124585405Y-89399500D01*
X124551379Y-89337188D01*
X124548500Y-89310405D01*
X124548500Y-88001866D01*
X124541745Y-87939684D01*
X124490615Y-87803295D01*
X124403261Y-87686739D01*
X124286705Y-87599385D01*
X124150316Y-87548255D01*
X124088134Y-87541500D01*
X122291866Y-87541500D01*
X122229684Y-87548255D01*
X122093295Y-87599385D01*
X121976739Y-87686739D01*
X121889385Y-87803295D01*
X121838255Y-87939684D01*
X121831500Y-88001866D01*
X121831500Y-89798134D01*
X121838255Y-89860316D01*
X121889385Y-89996705D01*
X121976739Y-90113261D01*
X122093295Y-90200615D01*
X122101704Y-90203767D01*
X122101705Y-90203768D01*
X122210451Y-90244535D01*
X122267216Y-90287176D01*
X122291916Y-90353738D01*
X122276709Y-90423087D01*
X122257316Y-90449568D01*
X122245203Y-90462243D01*
X122139941Y-90572394D01*
X122130629Y-90582138D01*
X122127715Y-90586410D01*
X122127714Y-90586411D01*
X122115404Y-90604457D01*
X122004743Y-90766680D01*
X121910688Y-90969305D01*
X121850989Y-91184570D01*
X121827251Y-91406695D01*
X119888500Y-91406695D01*
X119888500Y-87446062D01*
X127548493Y-87446062D01*
X127557789Y-87458077D01*
X127608994Y-87493931D01*
X127618489Y-87499414D01*
X127815947Y-87591490D01*
X127826239Y-87595236D01*
X128036688Y-87651625D01*
X128047481Y-87653528D01*
X128264525Y-87672517D01*
X128275475Y-87672517D01*
X128492519Y-87653528D01*
X128503312Y-87651625D01*
X128713761Y-87595236D01*
X128724053Y-87591490D01*
X128921511Y-87499414D01*
X128931006Y-87493931D01*
X128983048Y-87457491D01*
X128991424Y-87447012D01*
X128984356Y-87433566D01*
X128282812Y-86732022D01*
X128268868Y-86724408D01*
X128267035Y-86724539D01*
X128260420Y-86728790D01*
X127554923Y-87434287D01*
X127548493Y-87446062D01*
X119888500Y-87446062D01*
X119888500Y-86365475D01*
X126957483Y-86365475D01*
X126976472Y-86582519D01*
X126978375Y-86593312D01*
X127034764Y-86803761D01*
X127038510Y-86814053D01*
X127130586Y-87011511D01*
X127136069Y-87021006D01*
X127172509Y-87073048D01*
X127182988Y-87081424D01*
X127196434Y-87074356D01*
X127897978Y-86372812D01*
X127904356Y-86361132D01*
X128634408Y-86361132D01*
X128634539Y-86362965D01*
X128638790Y-86369580D01*
X129344287Y-87075077D01*
X129356062Y-87081507D01*
X129368077Y-87072211D01*
X129403931Y-87021006D01*
X129409414Y-87011511D01*
X129501490Y-86814053D01*
X129505236Y-86803761D01*
X129561625Y-86593312D01*
X129563528Y-86582519D01*
X129582517Y-86365475D01*
X129582517Y-86360000D01*
X137116502Y-86360000D01*
X137136457Y-86588087D01*
X137137881Y-86593400D01*
X137137881Y-86593402D01*
X137175025Y-86732022D01*
X137195716Y-86809243D01*
X137198039Y-86814224D01*
X137198039Y-86814225D01*
X137290151Y-87011762D01*
X137290154Y-87011767D01*
X137292477Y-87016749D01*
X137423802Y-87204300D01*
X137585700Y-87366198D01*
X137590208Y-87369355D01*
X137590211Y-87369357D01*
X137630445Y-87397529D01*
X137773251Y-87497523D01*
X137778233Y-87499846D01*
X137778238Y-87499849D01*
X137974765Y-87591490D01*
X137980757Y-87594284D01*
X137986065Y-87595706D01*
X137986067Y-87595707D01*
X138196598Y-87652119D01*
X138196600Y-87652119D01*
X138201913Y-87653543D01*
X138430000Y-87673498D01*
X138658087Y-87653543D01*
X138663400Y-87652119D01*
X138663402Y-87652119D01*
X138873933Y-87595707D01*
X138873935Y-87595706D01*
X138879243Y-87594284D01*
X138885235Y-87591490D01*
X139081762Y-87499849D01*
X139081767Y-87499846D01*
X139086749Y-87497523D01*
X139229555Y-87397529D01*
X139269789Y-87369357D01*
X139269792Y-87369355D01*
X139274300Y-87366198D01*
X139382364Y-87258134D01*
X144691500Y-87258134D01*
X144698255Y-87320316D01*
X144749385Y-87456705D01*
X144836739Y-87573261D01*
X144953295Y-87660615D01*
X145089684Y-87711745D01*
X145151866Y-87718500D01*
X146948134Y-87718500D01*
X147010316Y-87711745D01*
X147146705Y-87660615D01*
X147263261Y-87573261D01*
X147350615Y-87456705D01*
X147372799Y-87397529D01*
X147394598Y-87339382D01*
X147437240Y-87282618D01*
X147503802Y-87257918D01*
X147573150Y-87273126D01*
X147607817Y-87301114D01*
X147636250Y-87333938D01*
X147808126Y-87476632D01*
X148001000Y-87589338D01*
X148005825Y-87591180D01*
X148005826Y-87591181D01*
X148019056Y-87596233D01*
X148209692Y-87669030D01*
X148214760Y-87670061D01*
X148214763Y-87670062D01*
X148296734Y-87686739D01*
X148428597Y-87713567D01*
X148433772Y-87713757D01*
X148433774Y-87713757D01*
X148646673Y-87721564D01*
X148646677Y-87721564D01*
X148651837Y-87721753D01*
X148656957Y-87721097D01*
X148656959Y-87721097D01*
X148868288Y-87694025D01*
X148868289Y-87694025D01*
X148873416Y-87693368D01*
X148878366Y-87691883D01*
X149082429Y-87630661D01*
X149082434Y-87630659D01*
X149087384Y-87629174D01*
X149287994Y-87530896D01*
X149469860Y-87401173D01*
X149501788Y-87369357D01*
X149613616Y-87257918D01*
X149628096Y-87243489D01*
X149659498Y-87199789D01*
X149755435Y-87066277D01*
X149758453Y-87062077D01*
X149778628Y-87021257D01*
X149855136Y-86866453D01*
X149855137Y-86866451D01*
X149857430Y-86861811D01*
X149922370Y-86648069D01*
X149951529Y-86426590D01*
X149953156Y-86360000D01*
X149934852Y-86137361D01*
X149880431Y-85920702D01*
X149791354Y-85715840D01*
X149670014Y-85528277D01*
X149519670Y-85363051D01*
X149515619Y-85359852D01*
X149515615Y-85359848D01*
X149348414Y-85227800D01*
X149348410Y-85227798D01*
X149344359Y-85224598D01*
X149337092Y-85220586D01*
X149292136Y-85195769D01*
X149148789Y-85116638D01*
X149143920Y-85114914D01*
X149143916Y-85114912D01*
X148943087Y-85043795D01*
X148943083Y-85043794D01*
X148938212Y-85042069D01*
X148933119Y-85041162D01*
X148933116Y-85041161D01*
X148723373Y-85003800D01*
X148723367Y-85003799D01*
X148718284Y-85002894D01*
X148644452Y-85001992D01*
X148500081Y-85000228D01*
X148500079Y-85000228D01*
X148494911Y-85000165D01*
X148274091Y-85033955D01*
X148061756Y-85103357D01*
X148031443Y-85119137D01*
X147929693Y-85172105D01*
X147863607Y-85206507D01*
X147859474Y-85209610D01*
X147859471Y-85209612D01*
X147775062Y-85272988D01*
X147684965Y-85340635D01*
X147628537Y-85399684D01*
X147604283Y-85425064D01*
X147542759Y-85460494D01*
X147471846Y-85457037D01*
X147414060Y-85415791D01*
X147395207Y-85382243D01*
X147353767Y-85271703D01*
X147350615Y-85263295D01*
X147263261Y-85146739D01*
X147146705Y-85059385D01*
X147010316Y-85008255D01*
X146948134Y-85001500D01*
X145151866Y-85001500D01*
X145089684Y-85008255D01*
X144953295Y-85059385D01*
X144836739Y-85146739D01*
X144749385Y-85263295D01*
X144698255Y-85399684D01*
X144691500Y-85461866D01*
X144691500Y-87258134D01*
X139382364Y-87258134D01*
X139436198Y-87204300D01*
X139567523Y-87016749D01*
X139569846Y-87011767D01*
X139569849Y-87011762D01*
X139661961Y-86814225D01*
X139661961Y-86814224D01*
X139664284Y-86809243D01*
X139684976Y-86732022D01*
X139722119Y-86593402D01*
X139722119Y-86593400D01*
X139723543Y-86588087D01*
X139743498Y-86360000D01*
X139723543Y-86131913D01*
X139686981Y-85995461D01*
X139665707Y-85916067D01*
X139665706Y-85916065D01*
X139664284Y-85910757D01*
X139661961Y-85905775D01*
X139569849Y-85708238D01*
X139569846Y-85708233D01*
X139567523Y-85703251D01*
X139494098Y-85598389D01*
X139439357Y-85520211D01*
X139439355Y-85520208D01*
X139436198Y-85515700D01*
X139274300Y-85353802D01*
X139269792Y-85350645D01*
X139269789Y-85350643D01*
X139143920Y-85262509D01*
X139086749Y-85222477D01*
X139081767Y-85220154D01*
X139081762Y-85220151D01*
X138884225Y-85128039D01*
X138884224Y-85128039D01*
X138879243Y-85125716D01*
X138873935Y-85124294D01*
X138873933Y-85124293D01*
X138663402Y-85067881D01*
X138663400Y-85067881D01*
X138658087Y-85066457D01*
X138430000Y-85046502D01*
X138201913Y-85066457D01*
X138196600Y-85067881D01*
X138196598Y-85067881D01*
X137986067Y-85124293D01*
X137986065Y-85124294D01*
X137980757Y-85125716D01*
X137975776Y-85128039D01*
X137975775Y-85128039D01*
X137778238Y-85220151D01*
X137778233Y-85220154D01*
X137773251Y-85222477D01*
X137716080Y-85262509D01*
X137590211Y-85350643D01*
X137590208Y-85350645D01*
X137585700Y-85353802D01*
X137423802Y-85515700D01*
X137420645Y-85520208D01*
X137420643Y-85520211D01*
X137365902Y-85598389D01*
X137292477Y-85703251D01*
X137290154Y-85708233D01*
X137290151Y-85708238D01*
X137198039Y-85905775D01*
X137195716Y-85910757D01*
X137194294Y-85916065D01*
X137194293Y-85916067D01*
X137173019Y-85995461D01*
X137136457Y-86131913D01*
X137116502Y-86360000D01*
X129582517Y-86360000D01*
X129582517Y-86354525D01*
X129563528Y-86137481D01*
X129561625Y-86126688D01*
X129505236Y-85916239D01*
X129501490Y-85905947D01*
X129409414Y-85708489D01*
X129403931Y-85698994D01*
X129367491Y-85646952D01*
X129357012Y-85638576D01*
X129343566Y-85645644D01*
X128642022Y-86347188D01*
X128634408Y-86361132D01*
X127904356Y-86361132D01*
X127905592Y-86358868D01*
X127905461Y-86357035D01*
X127901210Y-86350420D01*
X127195713Y-85644923D01*
X127183938Y-85638493D01*
X127171923Y-85647789D01*
X127136069Y-85698994D01*
X127130586Y-85708489D01*
X127038510Y-85905947D01*
X127034764Y-85916239D01*
X126978375Y-86126688D01*
X126976472Y-86137481D01*
X126957483Y-86354525D01*
X126957483Y-86365475D01*
X119888500Y-86365475D01*
X119888500Y-85272988D01*
X127548576Y-85272988D01*
X127555644Y-85286434D01*
X128257188Y-85987978D01*
X128271132Y-85995592D01*
X128272965Y-85995461D01*
X128279580Y-85991210D01*
X128985077Y-85285713D01*
X128991507Y-85273938D01*
X128982211Y-85261923D01*
X128931006Y-85226069D01*
X128921511Y-85220586D01*
X128724053Y-85128510D01*
X128713761Y-85124764D01*
X128503312Y-85068375D01*
X128492519Y-85066472D01*
X128275475Y-85047483D01*
X128264525Y-85047483D01*
X128047481Y-85066472D01*
X128036688Y-85068375D01*
X127826239Y-85124764D01*
X127815947Y-85128510D01*
X127618489Y-85220586D01*
X127608994Y-85226069D01*
X127556952Y-85262509D01*
X127548576Y-85272988D01*
X119888500Y-85272988D01*
X119888500Y-84714669D01*
X152312001Y-84714669D01*
X152312371Y-84721490D01*
X152317895Y-84772352D01*
X152321521Y-84787604D01*
X152366676Y-84908054D01*
X152375214Y-84923649D01*
X152451715Y-85025724D01*
X152464276Y-85038285D01*
X152566351Y-85114786D01*
X152581946Y-85123324D01*
X152702394Y-85168478D01*
X152717649Y-85172105D01*
X152768514Y-85177631D01*
X152775328Y-85178000D01*
X153397885Y-85178000D01*
X153413124Y-85173525D01*
X153414329Y-85172135D01*
X153416000Y-85164452D01*
X153416000Y-85159884D01*
X153924000Y-85159884D01*
X153928475Y-85175123D01*
X153929865Y-85176328D01*
X153937548Y-85177999D01*
X154564669Y-85177999D01*
X154571490Y-85177629D01*
X154622352Y-85172105D01*
X154637604Y-85168479D01*
X154758054Y-85123324D01*
X154773649Y-85114786D01*
X154875724Y-85038285D01*
X154888285Y-85025724D01*
X154964786Y-84923649D01*
X154973324Y-84908054D01*
X155018478Y-84787606D01*
X155022105Y-84772351D01*
X155027631Y-84721486D01*
X155028000Y-84714672D01*
X155028000Y-84092115D01*
X155023525Y-84076876D01*
X155022135Y-84075671D01*
X155014452Y-84074000D01*
X153942115Y-84074000D01*
X153926876Y-84078475D01*
X153925671Y-84079865D01*
X153924000Y-84087548D01*
X153924000Y-85159884D01*
X153416000Y-85159884D01*
X153416000Y-84092115D01*
X153411525Y-84076876D01*
X153410135Y-84075671D01*
X153402452Y-84074000D01*
X152330116Y-84074000D01*
X152314877Y-84078475D01*
X152313672Y-84079865D01*
X152312001Y-84087548D01*
X152312001Y-84714669D01*
X119888500Y-84714669D01*
X119888500Y-82366062D01*
X127548493Y-82366062D01*
X127557789Y-82378077D01*
X127608994Y-82413931D01*
X127618489Y-82419414D01*
X127815947Y-82511490D01*
X127826239Y-82515236D01*
X128036688Y-82571625D01*
X128047481Y-82573528D01*
X128264525Y-82592517D01*
X128275475Y-82592517D01*
X128492519Y-82573528D01*
X128503312Y-82571625D01*
X128713761Y-82515236D01*
X128724053Y-82511490D01*
X128921511Y-82419414D01*
X128931006Y-82413931D01*
X128983048Y-82377491D01*
X128991424Y-82367012D01*
X128984356Y-82353566D01*
X128282812Y-81652022D01*
X128268868Y-81644408D01*
X128267035Y-81644539D01*
X128260420Y-81648790D01*
X127554923Y-82354287D01*
X127548493Y-82366062D01*
X119888500Y-82366062D01*
X119888500Y-81285475D01*
X126957483Y-81285475D01*
X126976472Y-81502519D01*
X126978375Y-81513312D01*
X127034764Y-81723761D01*
X127038510Y-81734053D01*
X127130586Y-81931511D01*
X127136069Y-81941006D01*
X127172509Y-81993048D01*
X127182988Y-82001424D01*
X127196434Y-81994356D01*
X127897978Y-81292812D01*
X127904356Y-81281132D01*
X128634408Y-81281132D01*
X128634539Y-81282965D01*
X128638790Y-81289580D01*
X129344287Y-81995077D01*
X129356062Y-82001507D01*
X129368077Y-81992211D01*
X129403931Y-81941006D01*
X129409414Y-81931511D01*
X129501490Y-81734053D01*
X129505236Y-81723761D01*
X129561625Y-81513312D01*
X129563528Y-81502519D01*
X129582517Y-81285475D01*
X129582517Y-81280000D01*
X137116502Y-81280000D01*
X137136457Y-81508087D01*
X137137881Y-81513400D01*
X137137881Y-81513402D01*
X137185851Y-81692425D01*
X137195716Y-81729243D01*
X137198039Y-81734224D01*
X137198039Y-81734225D01*
X137290151Y-81931762D01*
X137290154Y-81931767D01*
X137292477Y-81936749D01*
X137295634Y-81941257D01*
X137399078Y-82088990D01*
X137423802Y-82124300D01*
X137585700Y-82286198D01*
X137590208Y-82289355D01*
X137590211Y-82289357D01*
X137600835Y-82296796D01*
X137773251Y-82417523D01*
X137778233Y-82419846D01*
X137778238Y-82419849D01*
X137974765Y-82511490D01*
X137980757Y-82514284D01*
X137986065Y-82515706D01*
X137986067Y-82515707D01*
X138196598Y-82572119D01*
X138196600Y-82572119D01*
X138201913Y-82573543D01*
X138430000Y-82593498D01*
X138658087Y-82573543D01*
X138663400Y-82572119D01*
X138663402Y-82572119D01*
X138873933Y-82515707D01*
X138873935Y-82515706D01*
X138879243Y-82514284D01*
X138885235Y-82511490D01*
X139081762Y-82419849D01*
X139081767Y-82419846D01*
X139086749Y-82417523D01*
X139259165Y-82296796D01*
X139269789Y-82289357D01*
X139269792Y-82289355D01*
X139274300Y-82286198D01*
X139382364Y-82178134D01*
X144691500Y-82178134D01*
X144698255Y-82240316D01*
X144749385Y-82376705D01*
X144836739Y-82493261D01*
X144953295Y-82580615D01*
X145089684Y-82631745D01*
X145151866Y-82638500D01*
X146948134Y-82638500D01*
X147010316Y-82631745D01*
X147146705Y-82580615D01*
X147263261Y-82493261D01*
X147350615Y-82376705D01*
X147371433Y-82321173D01*
X147394598Y-82259382D01*
X147437240Y-82202618D01*
X147503802Y-82177918D01*
X147573150Y-82193126D01*
X147607817Y-82221114D01*
X147636250Y-82253938D01*
X147808126Y-82396632D01*
X148001000Y-82509338D01*
X148005825Y-82511180D01*
X148005826Y-82511181D01*
X148020216Y-82516676D01*
X148209692Y-82589030D01*
X148214760Y-82590061D01*
X148214763Y-82590062D01*
X148272040Y-82601715D01*
X148428597Y-82633567D01*
X148433772Y-82633757D01*
X148433774Y-82633757D01*
X148646673Y-82641564D01*
X148646677Y-82641564D01*
X148651837Y-82641753D01*
X148656957Y-82641097D01*
X148656959Y-82641097D01*
X148868288Y-82614025D01*
X148868289Y-82614025D01*
X148873416Y-82613368D01*
X148878366Y-82611883D01*
X149082429Y-82550661D01*
X149082434Y-82550659D01*
X149087384Y-82549174D01*
X149287994Y-82450896D01*
X149469860Y-82321173D01*
X149494323Y-82296796D01*
X149613616Y-82177918D01*
X149628096Y-82163489D01*
X149659498Y-82119789D01*
X149755435Y-81986277D01*
X149758453Y-81982077D01*
X149778628Y-81941257D01*
X149855136Y-81786453D01*
X149855137Y-81786451D01*
X149857430Y-81781811D01*
X149922370Y-81568069D01*
X149951529Y-81346590D01*
X149953156Y-81280000D01*
X149950418Y-81246695D01*
X152307251Y-81246695D01*
X152307548Y-81251848D01*
X152307548Y-81251851D01*
X152313011Y-81346590D01*
X152320110Y-81469715D01*
X152321247Y-81474761D01*
X152321248Y-81474767D01*
X152329935Y-81513312D01*
X152369222Y-81687639D01*
X152453266Y-81894616D01*
X152569987Y-82085088D01*
X152716250Y-82253938D01*
X152720225Y-82257238D01*
X152720231Y-82257244D01*
X152725425Y-82261556D01*
X152765059Y-82320460D01*
X152766555Y-82391441D01*
X152729439Y-82451962D01*
X152689168Y-82476480D01*
X152581946Y-82516676D01*
X152566351Y-82525214D01*
X152464276Y-82601715D01*
X152451715Y-82614276D01*
X152375214Y-82716351D01*
X152366676Y-82731946D01*
X152321522Y-82852394D01*
X152317895Y-82867649D01*
X152312369Y-82918514D01*
X152312000Y-82925328D01*
X152312000Y-83547885D01*
X152316475Y-83563124D01*
X152317865Y-83564329D01*
X152325548Y-83566000D01*
X155009884Y-83566000D01*
X155025123Y-83561525D01*
X155026328Y-83560135D01*
X155027999Y-83552452D01*
X155027999Y-82925331D01*
X155027629Y-82918510D01*
X155022105Y-82867648D01*
X155018479Y-82852396D01*
X154973324Y-82731946D01*
X154964786Y-82716351D01*
X154888285Y-82614276D01*
X154875724Y-82601715D01*
X154773649Y-82525214D01*
X154758054Y-82516676D01*
X154647813Y-82475348D01*
X154591049Y-82432706D01*
X154566349Y-82366145D01*
X154581557Y-82296796D01*
X154603104Y-82268115D01*
X154704430Y-82167144D01*
X154704440Y-82167132D01*
X154708096Y-82163489D01*
X154739498Y-82119789D01*
X154835435Y-81986277D01*
X154838453Y-81982077D01*
X154858628Y-81941257D01*
X154935136Y-81786453D01*
X154935137Y-81786451D01*
X154937430Y-81781811D01*
X155002370Y-81568069D01*
X155031529Y-81346590D01*
X155033156Y-81280000D01*
X155014852Y-81057361D01*
X154960431Y-80840702D01*
X154871354Y-80635840D01*
X154750014Y-80448277D01*
X154599670Y-80283051D01*
X154595619Y-80279852D01*
X154595615Y-80279848D01*
X154428414Y-80147800D01*
X154428410Y-80147798D01*
X154424359Y-80144598D01*
X154417092Y-80140586D01*
X154330045Y-80092534D01*
X154228789Y-80036638D01*
X154223920Y-80034914D01*
X154223916Y-80034912D01*
X154023087Y-79963795D01*
X154023083Y-79963794D01*
X154018212Y-79962069D01*
X154013119Y-79961162D01*
X154013116Y-79961161D01*
X153803373Y-79923800D01*
X153803367Y-79923799D01*
X153798284Y-79922894D01*
X153724452Y-79921992D01*
X153580081Y-79920228D01*
X153580079Y-79920228D01*
X153574911Y-79920165D01*
X153354091Y-79953955D01*
X153141756Y-80023357D01*
X152943607Y-80126507D01*
X152939474Y-80129610D01*
X152939471Y-80129612D01*
X152855062Y-80192988D01*
X152764965Y-80260635D01*
X152761393Y-80264373D01*
X152653729Y-80377037D01*
X152610629Y-80422138D01*
X152607715Y-80426410D01*
X152607714Y-80426411D01*
X152598300Y-80440211D01*
X152484743Y-80606680D01*
X152390688Y-80809305D01*
X152330989Y-81024570D01*
X152307251Y-81246695D01*
X149950418Y-81246695D01*
X149934852Y-81057361D01*
X149880431Y-80840702D01*
X149791354Y-80635840D01*
X149670014Y-80448277D01*
X149519670Y-80283051D01*
X149515619Y-80279852D01*
X149515615Y-80279848D01*
X149348414Y-80147800D01*
X149348410Y-80147798D01*
X149344359Y-80144598D01*
X149337092Y-80140586D01*
X149250045Y-80092534D01*
X149148789Y-80036638D01*
X149143920Y-80034914D01*
X149143916Y-80034912D01*
X148943087Y-79963795D01*
X148943083Y-79963794D01*
X148938212Y-79962069D01*
X148933119Y-79961162D01*
X148933116Y-79961161D01*
X148723373Y-79923800D01*
X148723367Y-79923799D01*
X148718284Y-79922894D01*
X148644452Y-79921992D01*
X148500081Y-79920228D01*
X148500079Y-79920228D01*
X148494911Y-79920165D01*
X148274091Y-79953955D01*
X148061756Y-80023357D01*
X147863607Y-80126507D01*
X147859474Y-80129610D01*
X147859471Y-80129612D01*
X147775062Y-80192988D01*
X147684965Y-80260635D01*
X147628537Y-80319684D01*
X147604283Y-80345064D01*
X147542759Y-80380494D01*
X147471846Y-80377037D01*
X147414060Y-80335791D01*
X147395207Y-80302243D01*
X147353767Y-80191703D01*
X147350615Y-80183295D01*
X147263261Y-80066739D01*
X147146705Y-79979385D01*
X147010316Y-79928255D01*
X146948134Y-79921500D01*
X145151866Y-79921500D01*
X145089684Y-79928255D01*
X144953295Y-79979385D01*
X144836739Y-80066739D01*
X144749385Y-80183295D01*
X144698255Y-80319684D01*
X144691500Y-80381866D01*
X144691500Y-82178134D01*
X139382364Y-82178134D01*
X139436198Y-82124300D01*
X139460923Y-82088990D01*
X139564366Y-81941257D01*
X139567523Y-81936749D01*
X139569846Y-81931767D01*
X139569849Y-81931762D01*
X139661961Y-81734225D01*
X139661961Y-81734224D01*
X139664284Y-81729243D01*
X139674150Y-81692425D01*
X139722119Y-81513402D01*
X139722119Y-81513400D01*
X139723543Y-81508087D01*
X139743498Y-81280000D01*
X139723543Y-81051913D01*
X139717593Y-81029707D01*
X139665707Y-80836067D01*
X139665706Y-80836065D01*
X139664284Y-80830757D01*
X139652092Y-80804610D01*
X139569849Y-80628238D01*
X139569846Y-80628233D01*
X139567523Y-80623251D01*
X139494098Y-80518389D01*
X139439357Y-80440211D01*
X139439355Y-80440208D01*
X139436198Y-80435700D01*
X139274300Y-80273802D01*
X139269792Y-80270645D01*
X139269789Y-80270643D01*
X139143920Y-80182509D01*
X139086749Y-80142477D01*
X139081767Y-80140154D01*
X139081762Y-80140151D01*
X138884225Y-80048039D01*
X138884224Y-80048039D01*
X138879243Y-80045716D01*
X138873935Y-80044294D01*
X138873933Y-80044293D01*
X138663402Y-79987881D01*
X138663400Y-79987881D01*
X138658087Y-79986457D01*
X138430000Y-79966502D01*
X138201913Y-79986457D01*
X138196600Y-79987881D01*
X138196598Y-79987881D01*
X137986067Y-80044293D01*
X137986065Y-80044294D01*
X137980757Y-80045716D01*
X137975776Y-80048039D01*
X137975775Y-80048039D01*
X137778238Y-80140151D01*
X137778233Y-80140154D01*
X137773251Y-80142477D01*
X137716080Y-80182509D01*
X137590211Y-80270643D01*
X137590208Y-80270645D01*
X137585700Y-80273802D01*
X137423802Y-80435700D01*
X137420645Y-80440208D01*
X137420643Y-80440211D01*
X137365902Y-80518389D01*
X137292477Y-80623251D01*
X137290154Y-80628233D01*
X137290151Y-80628238D01*
X137207908Y-80804610D01*
X137195716Y-80830757D01*
X137194294Y-80836065D01*
X137194293Y-80836067D01*
X137142407Y-81029707D01*
X137136457Y-81051913D01*
X137116502Y-81280000D01*
X129582517Y-81280000D01*
X129582517Y-81274525D01*
X129563528Y-81057481D01*
X129561625Y-81046688D01*
X129505236Y-80836239D01*
X129501490Y-80825947D01*
X129409414Y-80628489D01*
X129403931Y-80618994D01*
X129367491Y-80566952D01*
X129357012Y-80558576D01*
X129343566Y-80565644D01*
X128642022Y-81267188D01*
X128634408Y-81281132D01*
X127904356Y-81281132D01*
X127905592Y-81278868D01*
X127905461Y-81277035D01*
X127901210Y-81270420D01*
X127195713Y-80564923D01*
X127183938Y-80558493D01*
X127171923Y-80567789D01*
X127136069Y-80618994D01*
X127130586Y-80628489D01*
X127038510Y-80825947D01*
X127034764Y-80836239D01*
X126978375Y-81046688D01*
X126976472Y-81057481D01*
X126957483Y-81274525D01*
X126957483Y-81285475D01*
X119888500Y-81285475D01*
X119888500Y-80192988D01*
X127548576Y-80192988D01*
X127555644Y-80206434D01*
X128257188Y-80907978D01*
X128271132Y-80915592D01*
X128272965Y-80915461D01*
X128279580Y-80911210D01*
X128985077Y-80205713D01*
X128991507Y-80193938D01*
X128982211Y-80181923D01*
X128931006Y-80146069D01*
X128921511Y-80140586D01*
X128724053Y-80048510D01*
X128713761Y-80044764D01*
X128503312Y-79988375D01*
X128492519Y-79986472D01*
X128275475Y-79967483D01*
X128264525Y-79967483D01*
X128047481Y-79986472D01*
X128036688Y-79988375D01*
X127826239Y-80044764D01*
X127815947Y-80048510D01*
X127618489Y-80140586D01*
X127608994Y-80146069D01*
X127556952Y-80182509D01*
X127548576Y-80192988D01*
X119888500Y-80192988D01*
X119888500Y-78706695D01*
X121827251Y-78706695D01*
X121827548Y-78711848D01*
X121827548Y-78711851D01*
X121833011Y-78806590D01*
X121840110Y-78929715D01*
X121841247Y-78934761D01*
X121841248Y-78934767D01*
X121861119Y-79022939D01*
X121889222Y-79147639D01*
X121973266Y-79354616D01*
X122089987Y-79545088D01*
X122236250Y-79713938D01*
X122408126Y-79856632D01*
X122601000Y-79969338D01*
X122809692Y-80049030D01*
X122814760Y-80050061D01*
X122814763Y-80050062D01*
X122896734Y-80066739D01*
X123028597Y-80093567D01*
X123033772Y-80093757D01*
X123033774Y-80093757D01*
X123246673Y-80101564D01*
X123246677Y-80101564D01*
X123251837Y-80101753D01*
X123256957Y-80101097D01*
X123256959Y-80101097D01*
X123468288Y-80074025D01*
X123468289Y-80074025D01*
X123473416Y-80073368D01*
X123478366Y-80071883D01*
X123682429Y-80010661D01*
X123682434Y-80010659D01*
X123687384Y-80009174D01*
X123887994Y-79910896D01*
X124069860Y-79781173D01*
X124228096Y-79623489D01*
X124287594Y-79540689D01*
X124355435Y-79446277D01*
X124358453Y-79442077D01*
X124457430Y-79241811D01*
X124522370Y-79028069D01*
X124551529Y-78806590D01*
X124553156Y-78740000D01*
X124534852Y-78517361D01*
X124480431Y-78300702D01*
X124391354Y-78095840D01*
X124270014Y-77908277D01*
X124266532Y-77904450D01*
X124122798Y-77746488D01*
X124091746Y-77682642D01*
X124100141Y-77612143D01*
X124145317Y-77557375D01*
X124171761Y-77543706D01*
X124278297Y-77503767D01*
X124286705Y-77500615D01*
X124403261Y-77413261D01*
X124490615Y-77296705D01*
X124541745Y-77160316D01*
X124548500Y-77098134D01*
X124548500Y-76959500D01*
X124568502Y-76891379D01*
X124622158Y-76844886D01*
X124674500Y-76833500D01*
X127240933Y-76833500D01*
X127309054Y-76853502D01*
X127352184Y-76900346D01*
X127405010Y-76999698D01*
X127533110Y-77156763D01*
X127537857Y-77160690D01*
X127537859Y-77160692D01*
X127684528Y-77282027D01*
X127684531Y-77282029D01*
X127689278Y-77285956D01*
X127867565Y-77382356D01*
X127944208Y-77406081D01*
X128055293Y-77440468D01*
X128055296Y-77440469D01*
X128061180Y-77442290D01*
X128067305Y-77442934D01*
X128067306Y-77442934D01*
X128256622Y-77462832D01*
X128256623Y-77462832D01*
X128262750Y-77463476D01*
X128372090Y-77453525D01*
X128458457Y-77445665D01*
X128458460Y-77445664D01*
X128464596Y-77445106D01*
X128470502Y-77443368D01*
X128470506Y-77443367D01*
X128611909Y-77401749D01*
X128659029Y-77387881D01*
X128664486Y-77385028D01*
X128664489Y-77385027D01*
X128748837Y-77340931D01*
X128838460Y-77294077D01*
X128838462Y-77294077D01*
X128838645Y-77293981D01*
X128838663Y-77294016D01*
X128904441Y-77274111D01*
X128965409Y-77289271D01*
X129137565Y-77382356D01*
X129214208Y-77406081D01*
X129325293Y-77440468D01*
X129325296Y-77440469D01*
X129331180Y-77442290D01*
X129337305Y-77442934D01*
X129337306Y-77442934D01*
X129526622Y-77462832D01*
X129526623Y-77462832D01*
X129532750Y-77463476D01*
X129642090Y-77453525D01*
X129728457Y-77445665D01*
X129728460Y-77445664D01*
X129734596Y-77445106D01*
X129740502Y-77443368D01*
X129740506Y-77443367D01*
X129831812Y-77416494D01*
X129929029Y-77387881D01*
X129929229Y-77388559D01*
X129995273Y-77382044D01*
X130032323Y-77395320D01*
X130046937Y-77403321D01*
X130167394Y-77448478D01*
X130182649Y-77452105D01*
X130233514Y-77457631D01*
X130240328Y-77458000D01*
X130537885Y-77458000D01*
X130553124Y-77453525D01*
X130554329Y-77452135D01*
X130556000Y-77444452D01*
X130556000Y-77439884D01*
X131064000Y-77439884D01*
X131068475Y-77455123D01*
X131069865Y-77456328D01*
X131077548Y-77457999D01*
X131379669Y-77457999D01*
X131386490Y-77457629D01*
X131437352Y-77452105D01*
X131452604Y-77448479D01*
X131573054Y-77403324D01*
X131588649Y-77394786D01*
X131690724Y-77318285D01*
X131703285Y-77305724D01*
X131779786Y-77203649D01*
X131788324Y-77188054D01*
X131822034Y-77098134D01*
X139611500Y-77098134D01*
X139618255Y-77160316D01*
X139669385Y-77296705D01*
X139756739Y-77413261D01*
X139873295Y-77500615D01*
X140009684Y-77551745D01*
X140071866Y-77558500D01*
X141868134Y-77558500D01*
X141930316Y-77551745D01*
X142066705Y-77500615D01*
X142183261Y-77413261D01*
X142270615Y-77296705D01*
X142292799Y-77237529D01*
X142314598Y-77179382D01*
X142357240Y-77122618D01*
X142423802Y-77097918D01*
X142493150Y-77113126D01*
X142527817Y-77141114D01*
X142556250Y-77173938D01*
X142728126Y-77316632D01*
X142921000Y-77429338D01*
X142925825Y-77431180D01*
X142925826Y-77431181D01*
X142971125Y-77448479D01*
X143129692Y-77509030D01*
X143134760Y-77510061D01*
X143134763Y-77510062D01*
X143242017Y-77531883D01*
X143348597Y-77553567D01*
X143353772Y-77553757D01*
X143353774Y-77553757D01*
X143566673Y-77561564D01*
X143566677Y-77561564D01*
X143571837Y-77561753D01*
X143576957Y-77561097D01*
X143576959Y-77561097D01*
X143788288Y-77534025D01*
X143788289Y-77534025D01*
X143793416Y-77533368D01*
X143798366Y-77531883D01*
X144002429Y-77470661D01*
X144002434Y-77470659D01*
X144007384Y-77469174D01*
X144207994Y-77370896D01*
X144389860Y-77241173D01*
X144548096Y-77083489D01*
X144678453Y-76902077D01*
X144683741Y-76891379D01*
X144775136Y-76706453D01*
X144775137Y-76706451D01*
X144777430Y-76701811D01*
X144842370Y-76488069D01*
X144871529Y-76266590D01*
X144873156Y-76200000D01*
X144854852Y-75977361D01*
X144800431Y-75760702D01*
X144711354Y-75555840D01*
X144636737Y-75440500D01*
X144592822Y-75372617D01*
X144592820Y-75372614D01*
X144590014Y-75368277D01*
X144439670Y-75203051D01*
X144435619Y-75199852D01*
X144435615Y-75199848D01*
X144268414Y-75067800D01*
X144268410Y-75067798D01*
X144264359Y-75064598D01*
X144068789Y-74956638D01*
X144063920Y-74954914D01*
X144063916Y-74954912D01*
X143863087Y-74883795D01*
X143863083Y-74883794D01*
X143858212Y-74882069D01*
X143853119Y-74881162D01*
X143853116Y-74881161D01*
X143643373Y-74843800D01*
X143643367Y-74843799D01*
X143638284Y-74842894D01*
X143564452Y-74841992D01*
X143420081Y-74840228D01*
X143420079Y-74840228D01*
X143414911Y-74840165D01*
X143194091Y-74873955D01*
X142981756Y-74943357D01*
X142783607Y-75046507D01*
X142779474Y-75049610D01*
X142779471Y-75049612D01*
X142609100Y-75177530D01*
X142604965Y-75180635D01*
X142548537Y-75239684D01*
X142524283Y-75265064D01*
X142462759Y-75300494D01*
X142391846Y-75297037D01*
X142334060Y-75255791D01*
X142315207Y-75222243D01*
X142273767Y-75111703D01*
X142270615Y-75103295D01*
X142183261Y-74986739D01*
X142066705Y-74899385D01*
X141930316Y-74848255D01*
X141868134Y-74841500D01*
X140071866Y-74841500D01*
X140009684Y-74848255D01*
X139873295Y-74899385D01*
X139756739Y-74986739D01*
X139669385Y-75103295D01*
X139618255Y-75239684D01*
X139611500Y-75301866D01*
X139611500Y-77098134D01*
X131822034Y-77098134D01*
X131833478Y-77067606D01*
X131837105Y-77052351D01*
X131842631Y-77001486D01*
X131843000Y-76994672D01*
X131843000Y-76472115D01*
X131838525Y-76456876D01*
X131837135Y-76455671D01*
X131829452Y-76454000D01*
X131082115Y-76454000D01*
X131066876Y-76458475D01*
X131065671Y-76459865D01*
X131064000Y-76467548D01*
X131064000Y-77439884D01*
X130556000Y-77439884D01*
X130556000Y-76646242D01*
X130556785Y-76632197D01*
X130573107Y-76486683D01*
X130573500Y-76483183D01*
X130573500Y-75927885D01*
X131064000Y-75927885D01*
X131068475Y-75943124D01*
X131069865Y-75944329D01*
X131077548Y-75946000D01*
X131824884Y-75946000D01*
X131840123Y-75941525D01*
X131841328Y-75940135D01*
X131842999Y-75932452D01*
X131842999Y-75405331D01*
X131842629Y-75398510D01*
X131837105Y-75347648D01*
X131833479Y-75332396D01*
X131788324Y-75211946D01*
X131779786Y-75196351D01*
X131703285Y-75094276D01*
X131690724Y-75081715D01*
X131588649Y-75005214D01*
X131573054Y-74996676D01*
X131452606Y-74951522D01*
X131437351Y-74947895D01*
X131386486Y-74942369D01*
X131379672Y-74942000D01*
X131082115Y-74942000D01*
X131066876Y-74946475D01*
X131065671Y-74947865D01*
X131064000Y-74955548D01*
X131064000Y-75927885D01*
X130573500Y-75927885D01*
X130573500Y-75923996D01*
X130558723Y-75773287D01*
X130558032Y-75770998D01*
X130556000Y-75750276D01*
X130556000Y-74960116D01*
X130551525Y-74944877D01*
X130550135Y-74943672D01*
X130542452Y-74942001D01*
X130240331Y-74942001D01*
X130233510Y-74942371D01*
X130182648Y-74947895D01*
X130167396Y-74951521D01*
X130046944Y-74996677D01*
X130031534Y-75005114D01*
X129962177Y-75020284D01*
X129933764Y-75014960D01*
X129924587Y-75012119D01*
X129748820Y-74957710D01*
X129742695Y-74957066D01*
X129742694Y-74957066D01*
X129553378Y-74937168D01*
X129553377Y-74937168D01*
X129547250Y-74936524D01*
X129468709Y-74943672D01*
X129351543Y-74954335D01*
X129351540Y-74954336D01*
X129345404Y-74954894D01*
X129339498Y-74956632D01*
X129339494Y-74956633D01*
X129255487Y-74981358D01*
X129150971Y-75012119D01*
X129145514Y-75014972D01*
X129145511Y-75014973D01*
X129089762Y-75044118D01*
X128971540Y-75105923D01*
X128971538Y-75105923D01*
X128971355Y-75106019D01*
X128971337Y-75105984D01*
X128905559Y-75125889D01*
X128844591Y-75110729D01*
X128835815Y-75105984D01*
X128672435Y-75017644D01*
X128555214Y-74981358D01*
X128484707Y-74959532D01*
X128484704Y-74959531D01*
X128478820Y-74957710D01*
X128472695Y-74957066D01*
X128472694Y-74957066D01*
X128283378Y-74937168D01*
X128283377Y-74937168D01*
X128277250Y-74936524D01*
X128198709Y-74943672D01*
X128081543Y-74954335D01*
X128081540Y-74954336D01*
X128075404Y-74954894D01*
X128069498Y-74956632D01*
X128069494Y-74956633D01*
X127985487Y-74981358D01*
X127880971Y-75012119D01*
X127875514Y-75014972D01*
X127875511Y-75014973D01*
X127819762Y-75044118D01*
X127701355Y-75106019D01*
X127696555Y-75109879D01*
X127696554Y-75109879D01*
X127691374Y-75114044D01*
X127543399Y-75233019D01*
X127413119Y-75388281D01*
X127410155Y-75393673D01*
X127410152Y-75393677D01*
X127351041Y-75501201D01*
X127300696Y-75551259D01*
X127240626Y-75566500D01*
X124674500Y-75566500D01*
X124606379Y-75546498D01*
X124559886Y-75492842D01*
X124548500Y-75440500D01*
X124548500Y-75301866D01*
X124541745Y-75239684D01*
X124490615Y-75103295D01*
X124403261Y-74986739D01*
X124286705Y-74899385D01*
X124150316Y-74848255D01*
X124088134Y-74841500D01*
X122291866Y-74841500D01*
X122229684Y-74848255D01*
X122093295Y-74899385D01*
X121976739Y-74986739D01*
X121889385Y-75103295D01*
X121838255Y-75239684D01*
X121831500Y-75301866D01*
X121831500Y-77098134D01*
X121838255Y-77160316D01*
X121889385Y-77296705D01*
X121976739Y-77413261D01*
X122093295Y-77500615D01*
X122101704Y-77503767D01*
X122101705Y-77503768D01*
X122210451Y-77544535D01*
X122267216Y-77587176D01*
X122291916Y-77653738D01*
X122276709Y-77723087D01*
X122257316Y-77749568D01*
X122130629Y-77882138D01*
X122004743Y-78066680D01*
X121910688Y-78269305D01*
X121850989Y-78484570D01*
X121827251Y-78706695D01*
X119888500Y-78706695D01*
X119888500Y-74294500D01*
X119908502Y-74226379D01*
X119962158Y-74179886D01*
X120014500Y-74168500D01*
X156845500Y-74168500D01*
X156913621Y-74188502D01*
G37*
%TD.AperFunction*%
%TD*%
M02*
