solid ASCII
  facet normal 9.659258e-01 -2.588191e-01 7.991366e-08
    outer loop
      vertex   9.684120e+00 -6.497712e+01 5.307357e+01
      vertex   9.684120e+00 -6.497712e+01 5.387327e+01
      vertex   9.192256e+00 -6.681278e+01 5.307519e+01
    endloop
  endfacet
  facet normal 9.659258e-01 -2.588190e-01 7.004142e-08
    outer loop
      vertex   9.192256e+00 -6.681278e+01 5.307519e+01
      vertex   9.684120e+00 -6.497712e+01 5.387327e+01
      vertex   8.679625e+00 -6.872595e+01 5.387327e+01
    endloop
  endfacet
  facet normal 9.659258e-01 -2.588191e-01 1.585078e-08
    outer loop
      vertex   9.192256e+00 -6.681278e+01 5.307519e+01
      vertex   8.679625e+00 -6.872595e+01 5.387327e+01
      vertex   8.679625e+00 -6.872595e+01 5.087327e+01
    endloop
  endfacet
  facet normal 9.659258e-01 -2.588191e-01 -1.509988e-13
    outer loop
      vertex   8.679625e+00 -6.872595e+01 5.087327e+01
      vertex   1.025529e+01 -6.284547e+01 5.087327e+01
      vertex   9.192256e+00 -6.681278e+01 5.307519e+01
    endloop
  endfacet
  facet normal 9.999583e-01 -9.129777e-03 4.198285e-08
    outer loop
      vertex   9.684120e+00 -6.497712e+01 5.387327e+01
      vertex   9.684120e+00 -6.497712e+01 5.307357e+01
      vertex   9.905537e+00 -4.072595e+01 5.387327e+01
    endloop
  endfacet
  facet normal 9.999583e-01 -9.129776e-03 -1.997267e-14
    outer loop
      vertex   9.905537e+00 -4.072595e+01 5.387327e+01
      vertex   9.684120e+00 -6.497712e+01 5.307357e+01
      vertex   9.905537e+00 -4.072595e+01 5.307284e+01
    endloop
  endfacet
  facet normal -3.285712e-03 9.207007e-16 -9.999946e-01
    outer loop
      vertex   9.192256e+00 -6.681278e+01 5.307519e+01
      vertex   9.430798e+00 -4.072595e+01 5.307440e+01
      vertex   9.684120e+00 -6.497712e+01 5.307357e+01
    endloop
  endfacet
  facet normal -3.285712e-03 7.255436e-16 -9.999946e-01
    outer loop
      vertex   9.684120e+00 -6.497712e+01 5.307357e+01
      vertex   9.430798e+00 -4.072595e+01 5.307440e+01
      vertex   9.905537e+00 -4.072595e+01 5.307284e+01
    endloop
  endfacet
  facet normal 0.000000e+00 1.000000e+00 -0.000000e+00
    outer loop
      vertex   9.905537e+00 -4.072595e+01 5.307284e+01
      vertex   9.430798e+00 -4.072595e+01 5.307440e+01
      vertex   9.905537e+00 -4.072595e+01 5.387327e+01
    endloop
  endfacet
  facet normal 0.000000e+00 1.000000e+00 0.000000e+00
    outer loop
      vertex   9.905537e+00 -4.072595e+01 5.387327e+01
      vertex   9.430798e+00 -4.072595e+01 5.307440e+01
      vertex   -5.008968e+00 -4.072595e+01 5.387327e+01
    endloop
  endfacet
  facet normal 0.000000e+00 1.000000e+00 0.000000e+00
    outer loop
      vertex   9.905537e+00 -4.072595e+01 5.387327e+01
      vertex   -5.008968e+00 -4.072595e+01 5.387327e+01
      vertex   -1.305172e+01 -4.072595e+01 5.787327e+01
    endloop
  endfacet
  facet normal -1.575840e-09 1.000000e+00 -3.168521e-09
    outer loop
      vertex   -1.305172e+01 -4.072595e+01 5.787327e+01
      vertex   -5.008968e+00 -4.072595e+01 5.387327e+01
      vertex   -1.305172e+01 -4.072595e+01 5.557917e+01
    endloop
  endfacet
  facet normal 1.484834e-09 1.000000e+00 1.126149e-08
    outer loop
      vertex   -1.305172e+01 -4.072595e+01 5.557917e+01
      vertex   -5.008968e+00 -4.072595e+01 5.387327e+01
      vertex   -1.128563e+01 -4.072595e+01 5.387327e+01
    endloop
  endfacet
  facet normal 0.000000e+00 1.000000e+00 0.000000e+00
    outer loop
      vertex   -5.008968e+00 -4.072595e+01 5.387327e+01
      vertex   9.430798e+00 -4.072595e+01 5.307440e+01
      vertex   -4.534760e+00 -4.072595e+01 5.307327e+01
    endloop
  endfacet
  facet normal -0.000000e+00 1.000000e+00 0.000000e+00
    outer loop
      vertex   -4.534760e+00 -4.072595e+01 5.307327e+01
      vertex   9.430798e+00 -4.072595e+01 5.307440e+01
      vertex   1.045725e+01 -4.072595e+01 5.087327e+01
    endloop
  endfacet
  facet normal 0.000000e+00 1.000000e+00 0.000000e+00
    outer loop
      vertex   -4.534760e+00 -4.072595e+01 5.307327e+01
      vertex   1.045725e+01 -4.072595e+01 5.087327e+01
      vertex   -5.560680e+00 -4.072595e+01 5.087327e+01
    endloop
  endfacet
  facet normal 0.000000e+00 1.000000e+00 0.000000e+00
    outer loop
      vertex   -4.534760e+00 -4.072595e+01 5.307327e+01
      vertex   -5.008968e+00 -4.072595e+01 5.307327e+01
      vertex   -5.008968e+00 -4.072595e+01 5.387327e+01
    endloop
  endfacet
  facet normal -7.189857e-23 1.000000e+00 -3.168521e-09
    outer loop
      vertex   1.794828e+01 -4.072595e+01 5.787327e+01
      vertex   1.794828e+01 -4.072595e+01 5.557917e+01
      vertex   -1.305172e+01 -4.072595e+01 5.787327e+01
    endloop
  endfacet
  facet normal 4.075981e-10 1.000000e+00 2.339333e-09
    outer loop
      vertex   -1.305172e+01 -4.072595e+01 5.787327e+01
      vertex   1.794828e+01 -4.072595e+01 5.557917e+01
      vertex   9.905537e+00 -4.072595e+01 5.387327e+01
    endloop
  endfacet
  facet normal -1.484824e-09 1.000000e+00 1.126144e-08
    outer loop
      vertex   1.794828e+01 -4.072595e+01 5.557917e+01
      vertex   1.618220e+01 -4.072595e+01 5.387327e+01
      vertex   9.905537e+00 -4.072595e+01 5.387327e+01
    endloop
  endfacet
  facet normal 9.062700e-01 -8.274387e-03 4.226183e-01
    outer loop
      vertex   9.192256e+00 -6.681278e+01 5.307519e+01
      vertex   1.025529e+01 -6.284547e+01 5.087327e+01
      vertex   9.430798e+00 -4.072595e+01 5.307440e+01
    endloop
  endfacet
  facet normal 9.062700e-01 -8.274387e-03 4.226183e-01
    outer loop
      vertex   9.430798e+00 -4.072595e+01 5.307440e+01
      vertex   1.025529e+01 -6.284547e+01 5.087327e+01
      vertex   1.045725e+01 -4.072595e+01 5.087327e+01
    endloop
  endfacet
  facet normal -9.659258e-01 -2.588191e-01 5.059799e-14
    outer loop
      vertex   -5.358725e+00 -6.284547e+01 5.087327e+01
      vertex   -3.783056e+00 -6.872595e+01 5.087327e+01
      vertex   -4.296615e+00 -6.680932e+01 5.307327e+01
    endloop
  endfacet
  facet normal -9.659258e-01 -2.588191e-01 1.585077e-08
    outer loop
      vertex   -4.296615e+00 -6.680932e+01 5.307327e+01
      vertex   -3.783056e+00 -6.872595e+01 5.087327e+01
      vertex   -3.783056e+00 -6.872595e+01 5.387327e+01
    endloop
  endfacet
  facet normal -9.659258e-01 -2.588190e-01 6.989183e-08
    outer loop
      vertex   -4.296615e+00 -6.680932e+01 5.307327e+01
      vertex   -3.783056e+00 -6.872595e+01 5.387327e+01
      vertex   -4.787551e+00 -6.497712e+01 5.387327e+01
    endloop
  endfacet
  facet normal -9.659258e-01 -2.588191e-01 7.988299e-08
    outer loop
      vertex   -4.787551e+00 -6.497712e+01 5.387327e+01
      vertex   -4.787551e+00 -6.497712e+01 5.307327e+01
      vertex   -4.296615e+00 -6.680932e+01 5.307327e+01
    endloop
  endfacet
  facet normal -1.000000e+00 -1.096709e-28 2.109424e-14
    outer loop
      vertex   8.498285e+00 -4.672595e+01 5.787327e+01
      vertex   8.498285e+00 -4.672595e+01 5.307327e+01
      vertex   8.498285e+00 -6.722595e+01 5.787327e+01
    endloop
  endfacet
  facet normal -1.000000e+00 4.332578e-16 2.294461e-14
    outer loop
      vertex   8.498285e+00 -6.722595e+01 5.787327e+01
      vertex   8.498285e+00 -4.672595e+01 5.307327e+01
      vertex   8.498285e+00 -6.722595e+01 5.307327e+01
    endloop
  endfacet
  facet normal 0.000000e+00 -1.000000e+00 -0.000000e+00
    outer loop
      vertex   -3.601716e+00 -4.672595e+01 5.787327e+01
      vertex   -3.601716e+00 -4.672595e+01 5.307327e+01
      vertex   8.498285e+00 -4.672595e+01 5.787327e+01
    endloop
  endfacet
  facet normal 0.000000e+00 -1.000000e+00 0.000000e+00
    outer loop
      vertex   8.498285e+00 -4.672595e+01 5.787327e+01
      vertex   -3.601716e+00 -4.672595e+01 5.307327e+01
      vertex   8.498285e+00 -4.672595e+01 5.307327e+01
    endloop
  endfacet
  facet normal 1.000000e+00 0.000000e+00 -2.294461e-14
    outer loop
      vertex   -3.601716e+00 -6.722595e+01 5.787327e+01
      vertex   -3.601716e+00 -6.722595e+01 5.307327e+01
      vertex   -3.601716e+00 -4.672595e+01 5.787327e+01
    endloop
  endfacet
  facet normal 1.000000e+00 0.000000e+00 -2.294461e-14
    outer loop
      vertex   -3.601716e+00 -4.672595e+01 5.787327e+01
      vertex   -3.601716e+00 -6.722595e+01 5.307327e+01
      vertex   -3.601716e+00 -4.672595e+01 5.307327e+01
    endloop
  endfacet
  facet normal 0.000000e+00 1.000000e+00 0.000000e+00
    outer loop
      vertex   8.498285e+00 -6.722595e+01 5.787327e+01
      vertex   8.498285e+00 -6.722595e+01 5.307327e+01
      vertex   -3.601716e+00 -6.722595e+01 5.787327e+01
    endloop
  endfacet
  facet normal 0.000000e+00 1.000000e+00 0.000000e+00
    outer loop
      vertex   -3.601716e+00 -6.722595e+01 5.787327e+01
      vertex   8.498285e+00 -6.722595e+01 5.307327e+01
      vertex   -3.601716e+00 -6.722595e+01 5.307327e+01
    endloop
  endfacet
  facet normal 9.659258e-01 -2.588191e-01 1.081652e-10
    outer loop
      vertex   1.794828e+01 -4.572595e+01 5.787327e+01
      vertex   1.206021e+01 -6.770053e+01 5.787327e+01
      vertex   1.794828e+01 -4.572595e+01 5.687327e+01
    endloop
  endfacet
  facet normal 9.659258e-01 -2.588191e-01 -7.479236e-10
    outer loop
      vertex   1.794828e+01 -4.572595e+01 5.687327e+01
      vertex   1.206021e+01 -6.770053e+01 5.787327e+01
      vertex   1.206021e+01 -6.770053e+01 5.687327e+01
    endloop
  endfacet
  facet normal 2.407624e-14 1.014134e-14 1.000000e+00
    outer loop
      vertex   -3.601716e+00 -4.672595e+01 5.307327e+01
      vertex   2.340981e+00 -5.102536e+01 5.307327e+01
      vertex   8.498285e+00 -4.672595e+01 5.307327e+01
    endloop
  endfacet
  facet normal 3.597702e-14 -6.902072e-15 1.000000e+00
    outer loop
      vertex   8.498285e+00 -4.672595e+01 5.307327e+01
      vertex   2.340981e+00 -5.102536e+01 5.307327e+01
      vertex   2.538386e+00 -5.102586e+01 5.307327e+01
    endloop
  endfacet
  facet normal 3.523074e-15 3.808081e-14 1.000000e+00
    outer loop
      vertex   8.498285e+00 -4.672595e+01 5.307327e+01
      vertex   2.538386e+00 -5.102586e+01 5.307327e+01
      vertex   2.734952e+00 -5.104404e+01 5.307327e+01
    endloop
  endfacet
  facet normal 1.101531e-14 -0.000000e+00 1.000000e+00
    outer loop
      vertex   -3.601716e+00 -6.722595e+01 5.307327e+01
      vertex   2.685860e-01 -5.361081e+01 5.307327e+01
      vertex   -3.601716e+00 -4.672595e+01 5.307327e+01
    endloop
  endfacet
  facet normal 1.442649e-14 1.917583e-15 1.000000e+00
    outer loop
      vertex   -3.601716e+00 -4.672595e+01 5.307327e+01
      vertex   2.685860e-01 -5.361081e+01 5.307327e+01
      vertex   2.425755e-01 -5.341513e+01 5.307327e+01
    endloop
  endfacet
  facet normal 1.197346e-14 5.078178e-16 1.000000e+00
    outer loop
      vertex   -3.601716e+00 -4.672595e+01 5.307327e+01
      vertex   2.425755e-01 -5.341513e+01 5.307327e+01
      vertex   2.342106e-01 -5.321790e+01 5.307327e+01
    endloop
  endfacet
  facet normal 2.407624e-14 -4.073918e-15 1.000000e+00
    outer loop
      vertex   8.498285e+00 -6.722595e+01 5.307327e+01
      vertex   2.527426e+00 -5.542141e+01 5.307327e+01
      vertex   -3.601716e+00 -6.722595e+01 5.307327e+01
    endloop
  endfacet
  facet normal 7.191636e-14 -2.891343e-14 1.000000e+00
    outer loop
      vertex   -3.601716e+00 -6.722595e+01 5.307327e+01
      vertex   2.527426e+00 -5.542141e+01 5.307327e+01
      vertex   2.330022e+00 -5.542092e+01 5.307327e+01
    endloop
  endfacet
  facet normal 6.385371e-16 6.901930e-15 1.000000e+00
    outer loop
      vertex   -3.601716e+00 -6.722595e+01 5.307327e+01
      vertex   2.330022e+00 -5.542092e+01 5.307327e+01
      vertex   2.133456e+00 -5.540273e+01 5.307327e+01
    endloop
  endfacet
  facet normal 3.825586e-14 -1.657465e-29 1.000000e+00
    outer loop
      vertex   8.498285e+00 -4.672595e+01 5.307327e+01
      vertex   4.597863e+00 -5.362161e+01 5.307327e+01
      vertex   8.498285e+00 -6.722595e+01 5.307327e+01
    endloop
  endfacet
  facet normal 2.119146e-14 -4.892434e-15 1.000000e+00
    outer loop
      vertex   8.498285e+00 -6.722595e+01 5.307327e+01
      vertex   4.597863e+00 -5.362161e+01 5.307327e+01
      vertex   4.553456e+00 -5.381395e+01 5.307327e+01
    endloop
  endfacet
  facet normal 1.789211e-14 -5.862861e-15 1.000000e+00
    outer loop
      vertex   8.498285e+00 -6.722595e+01 5.307327e+01
      vertex   4.553456e+00 -5.381395e+01 5.307327e+01
      vertex   4.491987e+00 -5.400155e+01 5.307327e+01
    endloop
  endfacet
  facet normal -2.995158e-13 2.143629e-13 1.000000e+00
    outer loop
      vertex   4.599822e+00 -5.283596e+01 5.307327e+01
      vertex   4.625832e+00 -5.303165e+01 5.307327e+01
      vertex   8.498285e+00 -4.672595e+01 5.307327e+01
    endloop
  endfacet
  facet normal 4.304585e-13 -2.339287e-13 1.000000e+00
    outer loop
      vertex   8.498285e+00 -4.672595e+01 5.307327e+01
      vertex   4.625832e+00 -5.303165e+01 5.307327e+01
      vertex   4.634197e+00 -5.322887e+01 5.307327e+01
    endloop
  endfacet
  facet normal 3.996537e-14 -1.894706e-15 1.000000e+00
    outer loop
      vertex   8.498285e+00 -4.672595e+01 5.307327e+01
      vertex   4.634197e+00 -5.322887e+01 5.307327e+01
      vertex   4.624849e+00 -5.342606e+01 5.307327e+01
    endloop
  endfacet
  facet normal -3.436669e-14 4.107780e-14 1.000000e+00
    outer loop
      vertex   4.624849e+00 -5.342606e+01 5.307327e+01
      vertex   4.597863e+00 -5.362161e+01 5.307327e+01
      vertex   8.498285e+00 -4.672595e+01 5.307327e+01
    endloop
  endfacet
  facet normal 1.538650e-14 -6.621928e-15 1.000000e+00
    outer loop
      vertex   4.491987e+00 -5.400155e+01 5.307327e+01
      vertex   4.413949e+00 -5.418287e+01 5.307327e+01
      vertex   8.498285e+00 -6.722595e+01 5.307327e+01
    endloop
  endfacet
  facet normal 1.338829e-14 -7.247653e-15 1.000000e+00
    outer loop
      vertex   8.498285e+00 -6.722595e+01 5.307327e+01
      vertex   4.413949e+00 -5.418287e+01 5.307327e+01
      vertex   4.319972e+00 -5.435647e+01 5.307327e+01
    endloop
  endfacet
  facet normal 9.914968e-14 2.059636e-14 1.000000e+00
    outer loop
      vertex   8.498285e+00 -6.722595e+01 5.307327e+01
      vertex   4.319972e+00 -5.435647e+01 5.307327e+01
      vertex   4.210811e+00 -5.452095e+01 5.307327e+01
    endloop
  endfacet
  facet normal 1.129303e-14 -9.052047e-15 1.000000e+00
    outer loop
      vertex   4.210811e+00 -5.452095e+01 5.307327e+01
      vertex   4.087347e+00 -5.467498e+01 5.307327e+01
      vertex   8.498285e+00 -6.722595e+01 5.307327e+01
    endloop
  endfacet
  facet normal 4.795963e-14 3.834135e-15 1.000000e+00
    outer loop
      vertex   8.498285e+00 -6.722595e+01 5.307327e+01
      vertex   4.087347e+00 -5.467498e+01 5.307327e+01
      vertex   3.950572e+00 -5.481732e+01 5.307327e+01
    endloop
  endfacet
  facet normal 9.060057e-15 -1.042240e-14 1.000000e+00
    outer loop
      vertex   8.498285e+00 -6.722595e+01 5.307327e+01
      vertex   3.950572e+00 -5.481732e+01 5.307327e+01
      vertex   3.801589e+00 -5.494683e+01 5.307327e+01
    endloop
  endfacet
  facet normal 7.863476e-15 -1.088009e-14 1.000000e+00
    outer loop
      vertex   3.801589e+00 -5.494683e+01 5.307327e+01
      vertex   3.641595e+00 -5.506247e+01 5.307327e+01
      vertex   8.498285e+00 -6.722595e+01 5.307327e+01
    endloop
  endfacet
  facet normal 4.057195e-14 2.179893e-15 1.000000e+00
    outer loop
      vertex   8.498285e+00 -6.722595e+01 5.307327e+01
      vertex   3.641595e+00 -5.506247e+01 5.307327e+01
      vertex   3.471881e+00 -5.516329e+01 5.307327e+01
    endloop
  endfacet
  facet normal 5.875096e-15 -1.227798e-14 1.000000e+00
    outer loop
      vertex   8.498285e+00 -6.722595e+01 5.307327e+01
      vertex   3.471881e+00 -5.516329e+01 5.307327e+01
      vertex   3.293812e+00 -5.524850e+01 5.307327e+01
    endloop
  endfacet
  facet normal 3.781380e-14 1.600105e-15 1.000000e+00
    outer loop
      vertex   3.293812e+00 -5.524850e+01 5.307327e+01
      vertex   3.108822e+00 -5.531740e+01 5.307327e+01
      vertex   8.498285e+00 -6.722595e+01 5.307327e+01
    endloop
  endfacet
  facet normal 3.773117e-15 -1.380572e-14 1.000000e+00
    outer loop
      vertex   8.498285e+00 -6.722595e+01 5.307327e+01
      vertex   3.108822e+00 -5.531740e+01 5.307327e+01
      vertex   2.918401e+00 -5.536944e+01 5.307327e+01
    endloop
  endfacet
  facet normal 3.629711e-14 1.500655e-15 1.000000e+00
    outer loop
      vertex   8.498285e+00 -6.722595e+01 5.307327e+01
      vertex   2.918401e+00 -5.536944e+01 5.307327e+01
      vertex   2.724080e+00 -5.540421e+01 5.307327e+01
    endloop
  endfacet
  facet normal 1.361605e-15 -1.556322e-14 1.000000e+00
    outer loop
      vertex   2.724080e+00 -5.540421e+01 5.307327e+01
      vertex   2.527426e+00 -5.542141e+01 5.307327e+01
      vertex   8.498285e+00 -6.722595e+01 5.307327e+01
    endloop
  endfacet
  facet normal 3.481753e-14 -9.677519e-15 1.000000e+00
    outer loop
      vertex   2.133456e+00 -5.540273e+01 5.307327e+01
      vertex   1.939311e+00 -5.536700e+01 5.307327e+01
      vertex   -3.601716e+00 -6.722595e+01 5.307327e+01
    endloop
  endfacet
  facet normal 1.625046e-15 5.831485e-15 1.000000e+00
    outer loop
      vertex   -3.601716e+00 -6.722595e+01 5.307327e+01
      vertex   1.939311e+00 -5.536700e+01 5.307327e+01
      vertex   1.749152e+00 -5.531401e+01 5.307327e+01
    endloop
  endfacet
  facet normal 3.501506e-14 -9.167377e-15 1.000000e+00
    outer loop
      vertex   -3.601716e+00 -6.722595e+01 5.307327e+01
      vertex   1.749152e+00 -5.531401e+01 5.307327e+01
      vertex   1.564508e+00 -5.524419e+01 5.307327e+01
    endloop
  endfacet
  facet normal 2.377293e-15 4.905176e-15 1.000000e+00
    outer loop
      vertex   1.564508e+00 -5.524419e+01 5.307327e+01
      vertex   1.386866e+00 -5.515809e+01 5.307327e+01
      vertex   -3.601716e+00 -6.722595e+01 5.307327e+01
    endloop
  endfacet
  facet normal 2.833911e-15 4.716420e-15 1.000000e+00
    outer loop
      vertex   -3.601716e+00 -6.722595e+01 5.307327e+01
      vertex   1.386866e+00 -5.515809e+01 5.307327e+01
      vertex   1.217656e+00 -5.505642e+01 5.307327e+01
    endloop
  endfacet
  facet normal 7.245254e-14 -2.285392e-14 1.000000e+00
    outer loop
      vertex   -3.601716e+00 -6.722595e+01 5.307327e+01
      vertex   1.217656e+00 -5.505642e+01 5.307327e+01
      vertex   1.058242e+00 -5.493999e+01 5.307327e+01
    endloop
  endfacet
  facet normal 3.047610e-15 3.470766e-15 1.000000e+00
    outer loop
      vertex   1.058242e+00 -5.493999e+01 5.307327e+01
      vertex   9.099059e-01 -5.480974e+01 5.307327e+01
      vertex   -3.601716e+00 -6.722595e+01 5.307327e+01
    endloop
  endfacet
  facet normal 4.127049e-14 -1.041811e-14 1.000000e+00
    outer loop
      vertex   -3.601716e+00 -6.722595e+01 5.307327e+01
      vertex   9.099059e-01 -5.480974e+01 5.307327e+01
      vertex   7.738427e-01 -5.466672e+01 5.307327e+01
    endloop
  endfacet
  facet normal 3.468459e-15 2.751884e-15 1.000000e+00
    outer loop
      vertex   -3.601716e+00 -6.722595e+01 5.307327e+01
      vertex   7.738427e-01 -5.466672e+01 5.307327e+01
      vertex   6.511478e-01 -5.451207e+01 5.307327e+01
    endloop
  endfacet
  facet normal 3.947528e-15 2.591633e-15 1.000000e+00
    outer loop
      vertex   6.511478e-01 -5.451207e+01 5.307327e+01
      vertex   5.428089e-01 -5.434705e+01 5.307327e+01
      vertex   -3.601716e+00 -6.722595e+01 5.307327e+01
    endloop
  endfacet
  facet normal 4.507866e-15 2.411311e-15 1.000000e+00
    outer loop
      vertex   -3.601716e+00 -6.722595e+01 5.307327e+01
      vertex   5.428089e-01 -5.434705e+01 5.307327e+01
      vertex   4.496985e-01 -5.417299e+01 5.307327e+01
    endloop
  endfacet
  facet normal 5.185325e-15 2.201040e-15 1.000000e+00
    outer loop
      vertex   -3.601716e+00 -6.722595e+01 5.307327e+01
      vertex   4.496985e-01 -5.417299e+01 5.307327e+01
      vertex   3.725661e-01 -5.399127e+01 5.307327e+01
    endloop
  endfacet
  facet normal 6.679014e-14 -1.629846e-14 1.000000e+00
    outer loop
      vertex   3.725661e-01 -5.399127e+01 5.307327e+01
      vertex   3.120328e-01 -5.380338e+01 5.307327e+01
      vertex   -3.601716e+00 -6.722595e+01 5.307327e+01
    endloop
  endfacet
  facet normal 6.141099e-15 1.385565e-15 1.000000e+00
    outer loop
      vertex   -3.601716e+00 -6.722595e+01 5.307327e+01
      vertex   3.120328e-01 -5.380338e+01 5.307327e+01
      vertex   2.685860e-01 -5.361081e+01 5.307327e+01
    endloop
  endfacet
  facet normal 1.028852e-14 -4.877654e-16 1.000000e+00
    outer loop
      vertex   2.342106e-01 -5.321790e+01 5.307327e+01
      vertex   2.435589e-01 -5.302072e+01 5.307327e+01
      vertex   -3.601716e+00 -4.672595e+01 5.307327e+01
    endloop
  endfacet
  facet normal 5.756417e-14 2.839142e-14 1.000000e+00
    outer loop
      vertex   -3.601716e+00 -4.672595e+01 5.307327e+01
      vertex   2.435589e-01 -5.302072e+01 5.307327e+01
      vertex   2.705449e-01 -5.282517e+01 5.307327e+01
    endloop
  endfacet
  facet normal 9.419403e-15 -2.174641e-15 1.000000e+00
    outer loop
      vertex   -3.601716e+00 -4.672595e+01 5.307327e+01
      vertex   2.705449e-01 -5.282517e+01 5.307327e+01
      vertex   3.149514e-01 -5.263282e+01 5.307327e+01
    endloop
  endfacet
  facet normal 8.498993e-15 -2.784937e-15 1.000000e+00
    outer loop
      vertex   3.149514e-01 -5.263282e+01 5.307327e+01
      vertex   3.764209e-01 -5.244523e+01 5.307327e+01
      vertex   -3.601716e+00 -4.672595e+01 5.307327e+01
    endloop
  endfacet
  facet normal 7.723821e-15 -3.324120e-15 1.000000e+00
    outer loop
      vertex   -3.601716e+00 -4.672595e+01 5.307327e+01
      vertex   3.764209e-01 -5.244523e+01 5.307327e+01
      vertex   4.544584e-01 -5.226390e+01 5.307327e+01
    endloop
  endfacet
  facet normal 7.050928e-15 -3.816968e-15 1.000000e+00
    outer loop
      vertex   -3.601716e+00 -4.672595e+01 5.307327e+01
      vertex   4.544584e-01 -5.226390e+01 5.307327e+01
      vertex   5.484357e-01 -5.209030e+01 5.307327e+01
    endloop
  endfacet
  facet normal 3.650645e-14 1.897140e-14 1.000000e+00
    outer loop
      vertex   5.484357e-01 -5.209030e+01 5.307327e+01
      vertex   6.575961e-01 -5.192583e+01 5.307327e+01
      vertex   -3.601716e+00 -4.672595e+01 5.307327e+01
    endloop
  endfacet
  facet normal 6.745129e-15 -5.406629e-15 1.000000e+00
    outer loop
      vertex   -3.601716e+00 -4.672595e+01 5.307327e+01
      vertex   6.575961e-01 -5.192583e+01 5.307327e+01
      vertex   7.810607e-01 -5.177180e+01 5.307327e+01
    endloop
  endfacet
  facet normal 6.072828e-14 4.148264e-14 1.000000e+00
    outer loop
      vertex   -3.601716e+00 -4.672595e+01 5.307327e+01
      vertex   7.810607e-01 -5.177180e+01 5.307327e+01
      vertex   9.178355e-01 -5.162945e+01 5.307327e+01
    endloop
  endfacet
  facet normal 6.993264e-15 -8.044830e-15 1.000000e+00
    outer loop
      vertex   9.178355e-01 -5.162945e+01 5.307327e+01
      vertex   1.066819e+00 -5.149994e+01 5.307327e+01
      vertex   -3.601716e+00 -4.672595e+01 5.307327e+01
    endloop
  endfacet
  facet normal 6.302520e-15 -8.720315e-15 1.000000e+00
    outer loop
      vertex   -3.601716e+00 -4.672595e+01 5.307327e+01
      vertex   1.066819e+00 -5.149994e+01 5.307327e+01
      vertex   1.226812e+00 -5.138431e+01 5.307327e+01
    endloop
  endfacet
  facet normal 3.151931e-14 1.741762e-14 1.000000e+00
    outer loop
      vertex   -3.601716e+00 -4.672595e+01 5.307327e+01
      vertex   1.226812e+00 -5.138431e+01 5.307327e+01
      vertex   1.396526e+00 -5.128348e+01 5.307327e+01
    endloop
  endfacet
  facet normal 5.381885e-15 -1.124725e-14 1.000000e+00
    outer loop
      vertex   1.396526e+00 -5.128348e+01 5.307327e+01
      vertex   1.574595e+00 -5.119828e+01 5.307327e+01
      vertex   -3.601716e+00 -4.672595e+01 5.307327e+01
    endloop
  endfacet
  facet normal 3.138794e-14 1.885238e-14 1.000000e+00
    outer loop
      vertex   -3.601716e+00 -4.672595e+01 5.307327e+01
      vertex   1.574595e+00 -5.119828e+01 5.307327e+01
      vertex   1.759585e+00 -5.112937e+01 5.307327e+01
    endloop
  endfacet
  facet normal 3.970752e-15 -1.452886e-14 1.000000e+00
    outer loop
      vertex   -3.601716e+00 -4.672595e+01 5.307327e+01
      vertex   1.759585e+00 -5.112937e+01 5.307327e+01
      vertex   1.950007e+00 -5.107733e+01 5.307327e+01
    endloop
  endfacet
  facet normal 6.239507e-14 6.001195e-14 1.000000e+00
    outer loop
      vertex   1.950007e+00 -5.107733e+01 5.307327e+01
      vertex   2.144327e+00 -5.104257e+01 5.307327e+01
      vertex   -3.601716e+00 -4.672595e+01 5.307327e+01
    endloop
  endfacet
  facet normal 1.805856e-15 -2.064103e-14 1.000000e+00
    outer loop
      vertex   -3.601716e+00 -4.672595e+01 5.307327e+01
      vertex   2.144327e+00 -5.104257e+01 5.307327e+01
      vertex   2.340981e+00 -5.102536e+01 5.307327e+01
    endloop
  endfacet
  facet normal 3.570255e-14 -4.868945e-15 1.000000e+00
    outer loop
      vertex   2.734952e+00 -5.104404e+01 5.307327e+01
      vertex   2.929096e+00 -5.107977e+01 5.307327e+01
      vertex   8.498285e+00 -4.672595e+01 5.307327e+01
    endloop
  endfacet
  facet normal 8.381845e-15 3.007829e-14 1.000000e+00
    outer loop
      vertex   8.498285e+00 -4.672595e+01 5.307327e+01
      vertex   2.929096e+00 -5.107977e+01 5.307327e+01
      vertex   3.119256e+00 -5.113277e+01 5.307327e+01
    endloop
  endfacet
  facet normal 3.675805e-14 -4.558151e-15 1.000000e+00
    outer loop
      vertex   8.498285e+00 -4.672595e+01 5.307327e+01
      vertex   3.119256e+00 -5.113277e+01 5.307327e+01
      vertex   3.303900e+00 -5.120259e+01 5.307327e+01
    endloop
  endfacet
  facet normal 1.181675e-14 2.438202e-14 1.000000e+00
    outer loop
      vertex   3.303900e+00 -5.120259e+01 5.307327e+01
      vertex   3.481542e+00 -5.128868e+01 5.307327e+01
      vertex   8.498285e+00 -4.672595e+01 5.307327e+01
    endloop
  endfacet
  facet normal 1.352298e-14 2.250602e-14 1.000000e+00
    outer loop
      vertex   8.498285e+00 -4.672595e+01 5.307327e+01
      vertex   3.481542e+00 -5.128868e+01 5.307327e+01
      vertex   3.650751e+00 -5.139035e+01 5.307327e+01
    endloop
  endfacet
  facet normal 4.051880e-14 -5.549680e-15 1.000000e+00
    outer loop
      vertex   8.498285e+00 -4.672595e+01 5.307327e+01
      vertex   3.650751e+00 -5.139035e+01 5.307327e+01
      vertex   3.810166e+00 -5.150678e+01 5.307327e+01
    endloop
  endfacet
  facet normal 1.612835e-14 1.836775e-14 1.000000e+00
    outer loop
      vertex   3.810166e+00 -5.150678e+01 5.307327e+01
      vertex   3.958502e+00 -5.163703e+01 5.307327e+01
      vertex   8.498285e+00 -4.672595e+01 5.307327e+01
    endloop
  endfacet
  facet normal 7.071225e-14 -3.208933e-14 1.000000e+00
    outer loop
      vertex   8.498285e+00 -4.672595e+01 5.307327e+01
      vertex   3.958502e+00 -5.163703e+01 5.307327e+01
      vertex   4.094565e+00 -5.178006e+01 5.307327e+01
    endloop
  endfacet
  facet normal 1.773472e-14 1.407077e-14 1.000000e+00
    outer loop
      vertex   8.498285e+00 -4.672595e+01 5.307327e+01
      vertex   4.094565e+00 -5.178006e+01 5.307327e+01
      vertex   4.217260e+00 -5.193470e+01 5.307327e+01
    endloop
  endfacet
  facet normal 1.937673e-14 1.272122e-14 1.000000e+00
    outer loop
      vertex   4.217260e+00 -5.193470e+01 5.307327e+01
      vertex   4.325599e+00 -5.209972e+01 5.307327e+01
      vertex   8.498285e+00 -4.672595e+01 5.307327e+01
    endloop
  endfacet
  facet normal 2.117357e-14 1.132599e-14 1.000000e+00
    outer loop
      vertex   8.498285e+00 -4.672595e+01 5.307327e+01
      vertex   4.325599e+00 -5.209972e+01 5.307327e+01
      vertex   4.418709e+00 -5.227379e+01 5.307327e+01
    endloop
  endfacet
  facet normal 2.318970e-14 9.843444e-15 1.000000e+00
    outer loop
      vertex   8.498285e+00 -4.672595e+01 5.307327e+01
      vertex   4.418709e+00 -5.227379e+01 5.307327e+01
      vertex   4.495842e+00 -5.245550e+01 5.307327e+01
    endloop
  endfacet
  facet normal 6.256210e-14 -1.766059e-14 1.000000e+00
    outer loop
      vertex   4.495842e+00 -5.245550e+01 5.307327e+01
      vertex   4.556375e+00 -5.264340e+01 5.307327e+01
      vertex   8.498285e+00 -4.672595e+01 5.307327e+01
    endloop
  endfacet
  facet normal 2.692972e-14 6.075931e-15 1.000000e+00
    outer loop
      vertex   8.498285e+00 -4.672595e+01 5.307327e+01
      vertex   4.556375e+00 -5.264340e+01 5.307327e+01
      vertex   4.599822e+00 -5.283596e+01 5.307327e+01
    endloop
  endfacet
  facet normal -3.190161e-09 -4.286930e-09 -1.000000e+00
    outer loop
      vertex   9.684120e+00 -6.497712e+01 5.387327e+01
      vertex   9.905537e+00 -4.072595e+01 5.387327e+01
      vertex   1.618220e+01 -4.072595e+01 5.387327e+01
    endloop
  endfacet
  facet normal 1.000000e+00 2.035943e-24 -9.551115e-11
    outer loop
      vertex   1.794828e+01 -4.572595e+01 5.787327e+01
      vertex   1.794828e+01 -4.572595e+01 5.687327e+01
      vertex   1.794828e+01 -4.072595e+01 5.787327e+01
    endloop
  endfacet
  facet normal 1.000000e+00 1.372733e-09 -6.959174e-09
    outer loop
      vertex   1.794828e+01 -4.072595e+01 5.787327e+01
      vertex   1.794828e+01 -4.572595e+01 5.687327e+01
      vertex   1.794828e+01 -4.072595e+01 5.557917e+01
    endloop
  endfacet
  facet normal 3.374683e-14 1.621200e-14 1.000000e+00
    outer loop
      vertex   -7.163645e+00 -6.770053e+01 5.787327e+01
      vertex   -1.801716e+00 -7.272595e+01 5.787327e+01
      vertex   -3.601716e+00 -6.722595e+01 5.787327e+01
    endloop
  endfacet
  facet normal 2.507798e-14 1.337492e-14 1.000000e+00
    outer loop
      vertex   -3.601716e+00 -6.722595e+01 5.787327e+01
      vertex   -1.801716e+00 -7.272595e+01 5.787327e+01
      vertex   6.698284e+00 -7.272595e+01 5.787327e+01
    endloop
  endfacet
  facet normal 2.466347e-14 1.259865e-14 1.000000e+00
    outer loop
      vertex   -3.601716e+00 -6.722595e+01 5.787327e+01
      vertex   6.698284e+00 -7.272595e+01 5.787327e+01
      vertex   8.498285e+00 -6.722595e+01 5.787327e+01
    endloop
  endfacet
  facet normal 1.219636e-14 1.667880e-14 1.000000e+00
    outer loop
      vertex   8.498285e+00 -6.722595e+01 5.787327e+01
      vertex   6.698284e+00 -7.272595e+01 5.787327e+01
      vertex   1.206021e+01 -6.770053e+01 5.787327e+01
    endloop
  endfacet
  facet normal 9.281419e-15 -5.199093e-15 1.000000e+00
    outer loop
      vertex   8.498285e+00 -6.722595e+01 5.787327e+01
      vertex   1.206021e+01 -6.770053e+01 5.787327e+01
      vertex   8.498285e+00 -4.672595e+01 5.787327e+01
    endloop
  endfacet
  facet normal 3.320374e-14 -1.136575e-15 1.000000e+00
    outer loop
      vertex   8.498285e+00 -4.672595e+01 5.787327e+01
      vertex   1.206021e+01 -6.770053e+01 5.787327e+01
      vertex   1.794828e+01 -4.572595e+01 5.787327e+01
    endloop
  endfacet
  facet normal 3.533916e-14 -2.131628e-14 1.000000e+00
    outer loop
      vertex   8.498285e+00 -4.672595e+01 5.787327e+01
      vertex   1.794828e+01 -4.572595e+01 5.787327e+01
      vertex   1.794828e+01 -4.072595e+01 5.787327e+01
    endloop
  endfacet
  facet normal 2.269153e-14 -1.396254e-15 1.000000e+00
    outer loop
      vertex   1.794828e+01 -4.072595e+01 5.787327e+01
      vertex   -1.305172e+01 -4.072595e+01 5.787327e+01
      vertex   8.498285e+00 -4.672595e+01 5.787327e+01
    endloop
  endfacet
  facet normal 1.585509e-14 -2.595047e-14 1.000000e+00
    outer loop
      vertex   8.498285e+00 -4.672595e+01 5.787327e+01
      vertex   -1.305172e+01 -4.072595e+01 5.787327e+01
      vertex   -3.601716e+00 -4.672595e+01 5.787327e+01
    endloop
  endfacet
  facet normal 3.233157e-14 0.000000e+00 1.000000e+00
    outer loop
      vertex   -3.601716e+00 -4.672595e+01 5.787327e+01
      vertex   -1.305172e+01 -4.072595e+01 5.787327e+01
      vertex   -1.305172e+01 -4.572595e+01 5.787327e+01
    endloop
  endfacet
  facet normal 3.239469e-14 5.964417e-16 1.000000e+00
    outer loop
      vertex   -3.601716e+00 -4.672595e+01 5.787327e+01
      vertex   -1.305172e+01 -4.572595e+01 5.787327e+01
      vertex   -7.163645e+00 -6.770053e+01 5.787327e+01
    endloop
  endfacet
  facet normal 3.590686e-14 0.000000e+00 1.000000e+00
    outer loop
      vertex   -3.601716e+00 -4.672595e+01 5.787327e+01
      vertex   -7.163645e+00 -6.770053e+01 5.787327e+01
      vertex   -3.601716e+00 -6.722595e+01 5.787327e+01
    endloop
  endfacet
  facet normal -1.003119e-14 -1.000000e+00 2.756483e-09
    outer loop
      vertex   -1.801716e+00 -7.272595e+01 5.787327e+01
      vertex   -1.801716e+00 -7.272595e+01 5.387327e+01
      vertex   6.698284e+00 -7.272595e+01 5.787327e+01
    endloop
  endfacet
  facet normal -1.839052e-14 -1.000000e+00 2.756501e-09
    outer loop
      vertex   6.698284e+00 -7.272595e+01 5.787327e+01
      vertex   -1.801716e+00 -7.272595e+01 5.387327e+01
      vertex   6.698284e+00 -7.272595e+01 5.387327e+01
    endloop
  endfacet
  facet normal 6.838406e-01 -7.296315e-01 -2.443035e-10
    outer loop
      vertex   1.206021e+01 -6.770053e+01 5.787327e+01
      vertex   6.698284e+00 -7.272595e+01 5.787327e+01
      vertex   1.206021e+01 -6.770053e+01 5.687327e+01
    endloop
  endfacet
  facet normal 6.838406e-01 -7.296314e-01 5.204715e-08
    outer loop
      vertex   1.206021e+01 -6.770053e+01 5.687327e+01
      vertex   6.698284e+00 -7.272595e+01 5.787327e+01
      vertex   7.912843e+00 -7.158761e+01 5.387327e+01
    endloop
  endfacet
  facet normal 6.838405e-01 -7.296315e-01 8.592943e-09
    outer loop
      vertex   7.912843e+00 -7.158761e+01 5.387327e+01
      vertex   6.698284e+00 -7.272595e+01 5.787327e+01
      vertex   6.698284e+00 -7.272595e+01 5.387327e+01
    endloop
  endfacet
  facet normal 6.830127e-01 -1.830127e-01 -7.071068e-01
    outer loop
      vertex   7.912843e+00 -7.158761e+01 5.387327e+01
      vertex   8.679625e+00 -6.872595e+01 5.387327e+01
      vertex   1.206021e+01 -6.770053e+01 5.687327e+01
    endloop
  endfacet
  facet normal 6.830127e-01 -1.830127e-01 -7.071068e-01
    outer loop
      vertex   1.206021e+01 -6.770053e+01 5.687327e+01
      vertex   8.679625e+00 -6.872595e+01 5.387327e+01
      vertex   9.684120e+00 -6.497712e+01 5.387327e+01
    endloop
  endfacet
  facet normal 6.830127e-01 -1.830127e-01 -7.071068e-01
    outer loop
      vertex   1.206021e+01 -6.770053e+01 5.687327e+01
      vertex   9.684120e+00 -6.497712e+01 5.387327e+01
      vertex   1.794828e+01 -4.072595e+01 5.557917e+01
    endloop
  endfacet
  facet normal 6.830127e-01 -1.830127e-01 -7.071068e-01
    outer loop
      vertex   1.794828e+01 -4.072595e+01 5.557917e+01
      vertex   9.684120e+00 -6.497712e+01 5.387327e+01
      vertex   1.618220e+01 -4.072595e+01 5.387327e+01
    endloop
  endfacet
  facet normal 6.830127e-01 -1.830127e-01 -7.071068e-01
    outer loop
      vertex   1.794828e+01 -4.072595e+01 5.557917e+01
      vertex   1.794828e+01 -4.572595e+01 5.687327e+01
      vertex   1.206021e+01 -6.770053e+01 5.687327e+01
    endloop
  endfacet
  facet normal -9.991018e-01 -4.237388e-02 4.436903e-15
    outer loop
      vertex   4.634197e+00 -5.322887e+01 5.087327e+01
      vertex   4.634197e+00 -5.322887e+01 5.307327e+01
      vertex   4.625832e+00 -5.303165e+01 5.087327e+01
    endloop
  endfacet
  facet normal -9.991018e-01 -4.237388e-02 0.000000e+00
    outer loop
      vertex   4.625832e+00 -5.303165e+01 5.087327e+01
      vertex   4.634197e+00 -5.322887e+01 5.307327e+01
      vertex   4.625832e+00 -5.303165e+01 5.307327e+01
    endloop
  endfacet
  facet normal -9.912814e-01 -1.317621e-01 0.000000e+00
    outer loop
      vertex   4.625832e+00 -5.303165e+01 5.087327e+01
      vertex   4.625832e+00 -5.303165e+01 5.307327e+01
      vertex   4.599822e+00 -5.283596e+01 5.087327e+01
    endloop
  endfacet
  facet normal -9.912814e-01 -1.317621e-01 4.402174e-15
    outer loop
      vertex   4.599822e+00 -5.283596e+01 5.087327e+01
      vertex   4.625832e+00 -5.303165e+01 5.307327e+01
      vertex   4.599822e+00 -5.283596e+01 5.307327e+01
    endloop
  endfacet
  facet normal -9.754797e-01 -2.200894e-01 4.332000e-15
    outer loop
      vertex   4.599822e+00 -5.283596e+01 5.087327e+01
      vertex   4.599822e+00 -5.283596e+01 5.307327e+01
      vertex   4.556375e+00 -5.264340e+01 5.087327e+01
    endloop
  endfacet
  facet normal -9.754797e-01 -2.200894e-01 4.332000e-15
    outer loop
      vertex   4.556375e+00 -5.264340e+01 5.087327e+01
      vertex   4.599822e+00 -5.283596e+01 5.307327e+01
      vertex   4.556375e+00 -5.264340e+01 5.307327e+01
    endloop
  endfacet
  facet normal -9.518240e-01 -3.066447e-01 4.226948e-15
    outer loop
      vertex   4.556375e+00 -5.264340e+01 5.087327e+01
      vertex   4.556375e+00 -5.264340e+01 5.307327e+01
      vertex   4.495842e+00 -5.245550e+01 5.087327e+01
    endloop
  endfacet
  facet normal -9.518240e-01 -3.066447e-01 4.226948e-15
    outer loop
      vertex   4.495842e+00 -5.245550e+01 5.087327e+01
      vertex   4.556375e+00 -5.264340e+01 5.307327e+01
      vertex   4.495842e+00 -5.245550e+01 5.307327e+01
    endloop
  endfacet
  facet normal -9.205049e-01 -3.907311e-01 4.087863e-15
    outer loop
      vertex   4.495842e+00 -5.245550e+01 5.087327e+01
      vertex   4.495842e+00 -5.245550e+01 5.307327e+01
      vertex   4.418709e+00 -5.227379e+01 5.087327e+01
    endloop
  endfacet
  facet normal -9.205049e-01 -3.907311e-01 4.087863e-15
    outer loop
      vertex   4.418709e+00 -5.227379e+01 5.087327e+01
      vertex   4.495842e+00 -5.245550e+01 5.307327e+01
      vertex   4.418709e+00 -5.227379e+01 5.307327e+01
    endloop
  endfacet
  facet normal -8.817743e-01 -4.716716e-01 3.915865e-15
    outer loop
      vertex   4.418709e+00 -5.227379e+01 5.087327e+01
      vertex   4.418709e+00 -5.227379e+01 5.307327e+01
      vertex   4.325599e+00 -5.209972e+01 5.087327e+01
    endloop
  endfacet
  facet normal -8.817743e-01 -4.716716e-01 3.915865e-15
    outer loop
      vertex   4.325599e+00 -5.209972e+01 5.087327e+01
      vertex   4.418709e+00 -5.227379e+01 5.307327e+01
      vertex   4.325599e+00 -5.209972e+01 5.307327e+01
    endloop
  endfacet
  facet normal -8.359442e-01 -5.488144e-01 3.712338e-15
    outer loop
      vertex   4.325599e+00 -5.209972e+01 5.087327e+01
      vertex   4.325599e+00 -5.209972e+01 5.307327e+01
      vertex   4.217260e+00 -5.193470e+01 5.087327e+01
    endloop
  endfacet
  facet normal -8.359442e-01 -5.488144e-01 3.374853e-15
    outer loop
      vertex   4.217260e+00 -5.193470e+01 5.087327e+01
      vertex   4.325599e+00 -5.209972e+01 5.307327e+01
      vertex   4.217260e+00 -5.193470e+01 5.307327e+01
    endloop
  endfacet
  facet normal -7.833836e-01 -6.215385e-01 3.162656e-15
    outer loop
      vertex   4.217260e+00 -5.193470e+01 5.087327e+01
      vertex   4.217260e+00 -5.193470e+01 5.307327e+01
      vertex   4.094565e+00 -5.178006e+01 5.087327e+01
    endloop
  endfacet
  facet normal -7.833836e-01 -6.215385e-01 3.478922e-15
    outer loop
      vertex   4.094565e+00 -5.178006e+01 5.087327e+01
      vertex   4.217260e+00 -5.193470e+01 5.307327e+01
      vertex   4.094565e+00 -5.178006e+01 5.307327e+01
    endloop
  endfacet
  facet normal -7.245157e-01 -6.892583e-01 3.217496e-15
    outer loop
      vertex   4.094565e+00 -5.178006e+01 5.087327e+01
      vertex   4.094565e+00 -5.178006e+01 5.307327e+01
      vertex   3.958502e+00 -5.163703e+01 5.087327e+01
    endloop
  endfacet
  facet normal -7.245157e-01 -6.892583e-01 3.217496e-15
    outer loop
      vertex   3.958502e+00 -5.163703e+01 5.087327e+01
      vertex   4.094565e+00 -5.178006e+01 5.307327e+01
      vertex   3.958502e+00 -5.163703e+01 5.307327e+01
    endloop
  endfacet
  facet normal -6.598143e-01 -7.514287e-01 2.930164e-15
    outer loop
      vertex   3.958502e+00 -5.163703e+01 5.087327e+01
      vertex   3.958502e+00 -5.163703e+01 5.307327e+01
      vertex   3.810166e+00 -5.150678e+01 5.087327e+01
    endloop
  endfacet
  facet normal -6.598143e-01 -7.514287e-01 2.796975e-15
    outer loop
      vertex   3.810166e+00 -5.150678e+01 5.087327e+01
      vertex   3.958502e+00 -5.163703e+01 5.307327e+01
      vertex   3.810166e+00 -5.150678e+01 5.307327e+01
    endloop
  endfacet
  facet normal -5.898006e-01 -8.075489e-01 2.500184e-15
    outer loop
      vertex   3.810166e+00 -5.150678e+01 5.087327e+01
      vertex   3.810166e+00 -5.150678e+01 5.307327e+01
      vertex   3.650751e+00 -5.139035e+01 5.087327e+01
    endloop
  endfacet
  facet normal -5.898006e-01 -8.075489e-01 2.619241e-15
    outer loop
      vertex   3.650751e+00 -5.139035e+01 5.087327e+01
      vertex   3.810166e+00 -5.150678e+01 5.307327e+01
      vertex   3.650751e+00 -5.139035e+01 5.307327e+01
    endloop
  endfacet
  facet normal -5.150381e-01 -8.571673e-01 2.287229e-15
    outer loop
      vertex   3.650751e+00 -5.139035e+01 5.087327e+01
      vertex   3.650751e+00 -5.139035e+01 5.307327e+01
      vertex   3.481542e+00 -5.128868e+01 5.087327e+01
    endloop
  endfacet
  facet normal -5.150381e-01 -8.571673e-01 2.391193e-15
    outer loop
      vertex   3.481542e+00 -5.128868e+01 5.087327e+01
      vertex   3.650751e+00 -5.139035e+01 5.307327e+01
      vertex   3.481542e+00 -5.128868e+01 5.307327e+01
    endloop
  endfacet
  facet normal -4.361288e-01 -8.998843e-01 2.024837e-15
    outer loop
      vertex   3.481542e+00 -5.128868e+01 5.087327e+01
      vertex   3.481542e+00 -5.128868e+01 5.307327e+01
      vertex   3.303900e+00 -5.120259e+01 5.087327e+01
    endloop
  endfacet
  facet normal -4.361288e-01 -8.998843e-01 2.024837e-15
    outer loop
      vertex   3.303900e+00 -5.120259e+01 5.087327e+01
      vertex   3.481542e+00 -5.128868e+01 5.307327e+01
      vertex   3.303900e+00 -5.120259e+01 5.307327e+01
    endloop
  endfacet
  facet normal -3.537081e-01 -9.353559e-01 1.642178e-15
    outer loop
      vertex   3.303900e+00 -5.120259e+01 5.087327e+01
      vertex   3.303900e+00 -5.120259e+01 5.307327e+01
      vertex   3.119256e+00 -5.113277e+01 5.087327e+01
    endloop
  endfacet
  facet normal -3.537081e-01 -9.353559e-01 1.642178e-15
    outer loop
      vertex   3.119256e+00 -5.113277e+01 5.087327e+01
      vertex   3.303900e+00 -5.120259e+01 5.307327e+01
      vertex   3.119256e+00 -5.113277e+01 5.307327e+01
    endloop
  endfacet
  facet normal -2.684395e-01 -9.632965e-01 1.246298e-15
    outer loop
      vertex   3.119256e+00 -5.113277e+01 5.087327e+01
      vertex   3.119256e+00 -5.113277e+01 5.307327e+01
      vertex   2.929096e+00 -5.107977e+01 5.087327e+01
    endloop
  endfacet
  facet normal -2.684395e-01 -9.632965e-01 1.137924e-15
    outer loop
      vertex   2.929096e+00 -5.107977e+01 5.087327e+01
      vertex   3.119256e+00 -5.113277e+01 5.307327e+01
      vertex   2.929096e+00 -5.107977e+01 5.307327e+01
    endloop
  endfacet
  facet normal -1.810096e-01 -9.834813e-01 7.673057e-16
    outer loop
      vertex   2.929096e+00 -5.107977e+01 5.087327e+01
      vertex   2.929096e+00 -5.107977e+01 5.307327e+01
      vertex   2.734952e+00 -5.104404e+01 5.087327e+01
    endloop
  endfacet
  facet normal -1.810096e-01 -9.834813e-01 8.038441e-16
    outer loop
      vertex   2.734952e+00 -5.104404e+01 5.087327e+01
      vertex   2.929096e+00 -5.107977e+01 5.307327e+01
      vertex   2.734952e+00 -5.104404e+01 5.307327e+01
    endloop
  endfacet
  facet normal -9.212232e-02 -9.957477e-01 4.091053e-16
    outer loop
      vertex   2.734952e+00 -5.104404e+01 5.087327e+01
      vertex   2.734952e+00 -5.104404e+01 5.307327e+01
      vertex   2.538386e+00 -5.102586e+01 5.087327e+01
    endloop
  endfacet
  facet normal -9.212232e-02 -9.957477e-01 4.277010e-16
    outer loop
      vertex   2.538386e+00 -5.102586e+01 5.087327e+01
      vertex   2.734952e+00 -5.104404e+01 5.307327e+01
      vertex   2.538386e+00 -5.102586e+01 5.307327e+01
    endloop
  endfacet
  facet normal -2.493325e-03 -9.999969e-01 1.157589e-17
    outer loop
      vertex   2.538386e+00 -5.102586e+01 5.087327e+01
      vertex   2.538386e+00 -5.102586e+01 5.307327e+01
      vertex   2.340981e+00 -5.102536e+01 5.087327e+01
    endloop
  endfacet
  facet normal -2.493325e-03 -9.999969e-01 1.157589e-17
    outer loop
      vertex   2.340981e+00 -5.102536e+01 5.087327e+01
      vertex   2.538386e+00 -5.102586e+01 5.307327e+01
      vertex   2.340981e+00 -5.102536e+01 5.307327e+01
    endloop
  endfacet
  facet normal 8.715574e-02 -9.961947e-01 -4.046424e-16
    outer loop
      vertex   2.340981e+00 -5.102536e+01 5.087327e+01
      vertex   2.340981e+00 -5.102536e+01 5.307327e+01
      vertex   2.144327e+00 -5.104257e+01 5.087327e+01
    endloop
  endfacet
  facet normal 8.715574e-02 -9.961947e-01 -3.870492e-16
    outer loop
      vertex   2.144327e+00 -5.104257e+01 5.087327e+01
      vertex   2.340981e+00 -5.102536e+01 5.307327e+01
      vertex   2.144327e+00 -5.104257e+01 5.307327e+01
    endloop
  endfacet
  facet normal 1.761031e-01 -9.843717e-01 -7.820548e-16
    outer loop
      vertex   2.144327e+00 -5.104257e+01 5.087327e+01
      vertex   2.144327e+00 -5.104257e+01 5.307327e+01
      vertex   1.950007e+00 -5.107733e+01 5.087327e+01
    endloop
  endfacet
  facet normal 1.761031e-01 -9.843717e-01 -7.820548e-16
    outer loop
      vertex   1.950007e+00 -5.107733e+01 5.087327e+01
      vertex   2.144327e+00 -5.104257e+01 5.307327e+01
      vertex   1.950007e+00 -5.107733e+01 5.307327e+01
    endloop
  endfacet
  facet normal 2.636325e-01 -9.646232e-01 -1.170764e-15
    outer loop
      vertex   1.950007e+00 -5.107733e+01 5.087327e+01
      vertex   1.950007e+00 -5.107733e+01 5.307327e+01
      vertex   1.759585e+00 -5.112937e+01 5.087327e+01
    endloop
  endfacet
  facet normal 2.636325e-01 -9.646232e-01 -1.170764e-15
    outer loop
      vertex   1.759585e+00 -5.112937e+01 5.087327e+01
      vertex   1.950007e+00 -5.107733e+01 5.307327e+01
      vertex   1.759585e+00 -5.112937e+01 5.307327e+01
    endloop
  endfacet
  facet normal 3.490394e-01 -9.371081e-01 -1.550046e-15
    outer loop
      vertex   1.759585e+00 -5.112937e+01 5.087327e+01
      vertex   1.759585e+00 -5.112937e+01 5.307327e+01
      vertex   1.574595e+00 -5.119828e+01 5.087327e+01
    endloop
  endfacet
  facet normal 3.490394e-01 -9.371081e-01 -1.514818e-15
    outer loop
      vertex   1.574595e+00 -5.119828e+01 5.087327e+01
      vertex   1.759585e+00 -5.112937e+01 5.307327e+01
      vertex   1.574595e+00 -5.119828e+01 5.307327e+01
    endloop
  endfacet
  facet normal 4.316360e-01 -9.020479e-01 -1.873284e-15
    outer loop
      vertex   1.574595e+00 -5.119828e+01 5.087327e+01
      vertex   1.574595e+00 -5.119828e+01 5.307327e+01
      vertex   1.396526e+00 -5.128348e+01 5.087327e+01
    endloop
  endfacet
  facet normal 4.316360e-01 -9.020479e-01 -1.960414e-15
    outer loop
      vertex   1.396526e+00 -5.128348e+01 5.087327e+01
      vertex   1.574595e+00 -5.119828e+01 5.307327e+01
      vertex   1.396526e+00 -5.128348e+01 5.307327e+01
    endloop
  endfacet
  facet normal 5.107573e-01 -8.597249e-01 -2.319768e-15
    outer loop
      vertex   1.396526e+00 -5.128348e+01 5.087327e+01
      vertex   1.396526e+00 -5.128348e+01 5.307327e+01
      vertex   1.226812e+00 -5.138431e+01 5.087327e+01
    endloop
  endfacet
  facet normal 5.107573e-01 -8.597249e-01 -2.319768e-15
    outer loop
      vertex   1.226812e+00 -5.138431e+01 5.087327e+01
      vertex   1.396526e+00 -5.128348e+01 5.307327e+01
      vertex   1.226812e+00 -5.138431e+01 5.307327e+01
    endloop
  endfacet
  facet normal 5.857663e-01 -8.104800e-01 -2.660446e-15
    outer loop
      vertex   1.226812e+00 -5.138431e+01 5.087327e+01
      vertex   1.226812e+00 -5.138431e+01 5.307327e+01
      vertex   1.066819e+00 -5.149994e+01 5.087327e+01
    endloop
  endfacet
  facet normal 5.857663e-01 -8.104800e-01 -2.601325e-15
    outer loop
      vertex   1.066819e+00 -5.149994e+01 5.087327e+01
      vertex   1.226812e+00 -5.138431e+01 5.307327e+01
      vertex   1.066819e+00 -5.149994e+01 5.307327e+01
    endloop
  endfacet
  facet normal 6.560590e-01 -7.547096e-01 -2.913487e-15
    outer loop
      vertex   1.066819e+00 -5.149994e+01 5.087327e+01
      vertex   1.066819e+00 -5.149994e+01 5.307327e+01
      vertex   9.178355e-01 -5.162945e+01 5.087327e+01
    endloop
  endfacet
  facet normal 6.560590e-01 -7.547096e-01 -2.880380e-15
    outer loop
      vertex   9.178355e-01 -5.162945e+01 5.087327e+01
      vertex   1.066819e+00 -5.149994e+01 5.307327e+01
      vertex   9.178355e-01 -5.162945e+01 5.307327e+01
    endloop
  endfacet
  facet normal 7.210696e-01 -6.928627e-01 -3.165804e-15
    outer loop
      vertex   9.178355e-01 -5.162945e+01 5.087327e+01
      vertex   9.178355e-01 -5.162945e+01 5.307327e+01
      vertex   7.810607e-01 -5.177180e+01 5.087327e+01
    endloop
  endfacet
  facet normal 7.210696e-01 -6.928627e-01 -3.202192e-15
    outer loop
      vertex   7.810607e-01 -5.177180e+01 5.087327e+01
      vertex   9.178355e-01 -5.162945e+01 5.307327e+01
      vertex   7.810607e-01 -5.177180e+01 5.307327e+01
    endloop
  endfacet
  facet normal 7.802745e-01 -6.254372e-01 -3.465115e-15
    outer loop
      vertex   7.810607e-01 -5.177180e+01 5.087327e+01
      vertex   7.810607e-01 -5.177180e+01 5.307327e+01
      vertex   6.575961e-01 -5.192583e+01 5.087327e+01
    endloop
  endfacet
  facet normal 7.802745e-01 -6.254372e-01 -3.425739e-15
    outer loop
      vertex   6.575961e-01 -5.192583e+01 5.087327e+01
      vertex   7.810607e-01 -5.177180e+01 5.307327e+01
      vertex   6.575961e-01 -5.192583e+01 5.307327e+01
    endloop
  endfacet
  facet normal 8.331971e-01 -5.529761e-01 -3.658091e-15
    outer loop
      vertex   6.575961e-01 -5.192583e+01 5.087327e+01
      vertex   6.575961e-01 -5.192583e+01 5.307327e+01
      vertex   5.484357e-01 -5.209030e+01 5.087327e+01
    endloop
  endfacet
  facet normal 8.331971e-01 -5.529761e-01 -3.700138e-15
    outer loop
      vertex   5.484357e-01 -5.209030e+01 5.087327e+01
      vertex   6.575961e-01 -5.192583e+01 5.307327e+01
      vertex   5.484357e-01 -5.209030e+01 5.307327e+01
    endloop
  endfacet
  facet normal 8.794113e-01 -4.760628e-01 -3.905371e-15
    outer loop
      vertex   5.484357e-01 -5.209030e+01 5.087327e+01
      vertex   5.484357e-01 -5.209030e+01 5.307327e+01
      vertex   4.544584e-01 -5.226390e+01 5.087327e+01
    endloop
  endfacet
  facet normal 8.794113e-01 -4.760628e-01 -3.860991e-15
    outer loop
      vertex   4.544584e-01 -5.226390e+01 5.087327e+01
      vertex   5.484357e-01 -5.209030e+01 5.307327e+01
      vertex   4.544584e-01 -5.226390e+01 5.307327e+01
    endloop
  endfacet
  facet normal 9.185450e-01 -3.953165e-01 -4.032805e-15
    outer loop
      vertex   4.544584e-01 -5.226390e+01 5.087327e+01
      vertex   4.544584e-01 -5.226390e+01 5.307327e+01
      vertex   3.764209e-01 -5.244523e+01 5.087327e+01
    endloop
  endfacet
  facet normal 9.185450e-01 -3.953165e-01 -4.055982e-15
    outer loop
      vertex   3.764209e-01 -5.244523e+01 5.087327e+01
      vertex   4.544584e-01 -5.226390e+01 5.307327e+01
      vertex   3.764209e-01 -5.244523e+01 5.307327e+01
    endloop
  endfacet
  facet normal 9.502831e-01 -3.113873e-01 -4.196127e-15
    outer loop
      vertex   3.764209e-01 -5.244523e+01 5.087327e+01
      vertex   3.764209e-01 -5.244523e+01 5.307327e+01
      vertex   3.149514e-01 -5.263282e+01 5.087327e+01
    endloop
  endfacet
  facet normal 9.502831e-01 -3.113873e-01 -4.196127e-15
    outer loop
      vertex   3.149514e-01 -5.263282e+01 5.087327e+01
      vertex   3.764209e-01 -5.244523e+01 5.307327e+01
      vertex   3.149514e-01 -5.263282e+01 5.307327e+01
    endloop
  endfacet
  facet normal 9.743701e-01 -2.249511e-01 -4.302487e-15
    outer loop
      vertex   3.149514e-01 -5.263282e+01 5.087327e+01
      vertex   3.149514e-01 -5.263282e+01 5.307327e+01
      vertex   2.705449e-01 -5.282517e+01 5.087327e+01
    endloop
  endfacet
  facet normal 9.743701e-01 -2.249511e-01 -4.302487e-15
    outer loop
      vertex   2.705449e-01 -5.282517e+01 5.087327e+01
      vertex   3.149514e-01 -5.263282e+01 5.307327e+01
      vertex   2.705449e-01 -5.282517e+01 5.307327e+01
    endloop
  endfacet
  facet normal 9.906120e-01 -1.367036e-01 -4.374206e-15
    outer loop
      vertex   2.705449e-01 -5.282517e+01 5.087327e+01
      vertex   2.705449e-01 -5.282517e+01 5.307327e+01
      vertex   2.435589e-01 -5.302072e+01 5.087327e+01
    endloop
  endfacet
  facet normal 9.906120e-01 -1.367036e-01 -4.374206e-15
    outer loop
      vertex   2.435589e-01 -5.302072e+01 5.087327e+01
      vertex   2.705449e-01 -5.282517e+01 5.307327e+01
      vertex   2.435589e-01 -5.302072e+01 5.307327e+01
    endloop
  endfacet
  facet normal 9.988781e-01 -4.735551e-02 -4.410706e-15
    outer loop
      vertex   2.435589e-01 -5.302072e+01 5.087327e+01
      vertex   2.435589e-01 -5.302072e+01 5.307327e+01
      vertex   2.342106e-01 -5.321790e+01 5.087327e+01
    endloop
  endfacet
  facet normal 9.988781e-01 -4.735551e-02 -4.410706e-15
    outer loop
      vertex   2.342106e-01 -5.321790e+01 5.087327e+01
      vertex   2.435589e-01 -5.302072e+01 5.307327e+01
      vertex   2.342106e-01 -5.321790e+01 5.307327e+01
    endloop
  endfacet
  facet normal 9.991018e-01 4.237388e-02 -4.411694e-15
    outer loop
      vertex   2.342106e-01 -5.321790e+01 5.087327e+01
      vertex   2.342106e-01 -5.321790e+01 5.307327e+01
      vertex   2.425755e-01 -5.341513e+01 5.087327e+01
    endloop
  endfacet
  facet normal 9.991018e-01 4.237388e-02 -4.411694e-15
    outer loop
      vertex   2.425755e-01 -5.341513e+01 5.087327e+01
      vertex   2.342106e-01 -5.321790e+01 5.307327e+01
      vertex   2.425755e-01 -5.341513e+01 5.307327e+01
    endloop
  endfacet
  facet normal 9.912814e-01 1.317621e-01 -4.377161e-15
    outer loop
      vertex   2.425755e-01 -5.341513e+01 5.087327e+01
      vertex   2.425755e-01 -5.341513e+01 5.307327e+01
      vertex   2.685860e-01 -5.361081e+01 5.087327e+01
    endloop
  endfacet
  facet normal 9.912814e-01 1.317621e-01 -4.377161e-15
    outer loop
      vertex   2.685860e-01 -5.361081e+01 5.087327e+01
      vertex   2.425755e-01 -5.341513e+01 5.307327e+01
      vertex   2.685860e-01 -5.361081e+01 5.307327e+01
    endloop
  endfacet
  facet normal 9.754797e-01 2.200894e-01 -4.307386e-15
    outer loop
      vertex   2.685860e-01 -5.361081e+01 5.087327e+01
      vertex   2.685860e-01 -5.361081e+01 5.307327e+01
      vertex   3.120328e-01 -5.380338e+01 5.087327e+01
    endloop
  endfacet
  facet normal 9.754797e-01 2.200894e-01 -4.307386e-15
    outer loop
      vertex   3.120328e-01 -5.380338e+01 5.087327e+01
      vertex   2.685860e-01 -5.361081e+01 5.307327e+01
      vertex   3.120328e-01 -5.380338e+01 5.307327e+01
    endloop
  endfacet
  facet normal 9.518240e-01 3.066447e-01 -4.202931e-15
    outer loop
      vertex   3.120328e-01 -5.380338e+01 5.087327e+01
      vertex   3.120328e-01 -5.380338e+01 5.307327e+01
      vertex   3.725661e-01 -5.399127e+01 5.087327e+01
    endloop
  endfacet
  facet normal 9.518240e-01 3.066447e-01 -4.226948e-15
    outer loop
      vertex   3.725661e-01 -5.399127e+01 5.087327e+01
      vertex   3.120328e-01 -5.380338e+01 5.307327e+01
      vertex   3.725661e-01 -5.399127e+01 5.307327e+01
    endloop
  endfacet
  facet normal 9.205049e-01 3.907311e-01 -4.087863e-15
    outer loop
      vertex   3.725661e-01 -5.399127e+01 5.087327e+01
      vertex   3.725661e-01 -5.399127e+01 5.307327e+01
      vertex   4.496985e-01 -5.417299e+01 5.087327e+01
    endloop
  endfacet
  facet normal 9.205049e-01 3.907311e-01 -4.064636e-15
    outer loop
      vertex   4.496985e-01 -5.417299e+01 5.087327e+01
      vertex   3.725661e-01 -5.399127e+01 5.307327e+01
      vertex   4.496985e-01 -5.417299e+01 5.307327e+01
    endloop
  endfacet
  facet normal 8.817743e-01 4.716716e-01 -3.893615e-15
    outer loop
      vertex   4.496985e-01 -5.417299e+01 5.087327e+01
      vertex   4.496985e-01 -5.417299e+01 5.307327e+01
      vertex   5.428089e-01 -5.434705e+01 5.087327e+01
    endloop
  endfacet
  facet normal 8.817743e-01 4.716716e-01 -3.915865e-15
    outer loop
      vertex   5.428089e-01 -5.434705e+01 5.087327e+01
      vertex   4.496985e-01 -5.417299e+01 5.307327e+01
      vertex   5.428089e-01 -5.434705e+01 5.307327e+01
    endloop
  endfacet
  facet normal 8.359442e-01 5.488144e-01 -3.712338e-15
    outer loop
      vertex   5.428089e-01 -5.434705e+01 5.087327e+01
      vertex   5.428089e-01 -5.434705e+01 5.307327e+01
      vertex   6.511478e-01 -5.451207e+01 5.087327e+01
    endloop
  endfacet
  facet normal 8.359442e-01 5.488144e-01 -3.670152e-15
    outer loop
      vertex   6.511478e-01 -5.451207e+01 5.087327e+01
      vertex   5.428089e-01 -5.434705e+01 5.307327e+01
      vertex   6.511478e-01 -5.451207e+01 5.307327e+01
    endloop
  endfacet
  facet normal 7.833836e-01 6.215385e-01 -3.439389e-15
    outer loop
      vertex   6.511478e-01 -5.451207e+01 5.087327e+01
      vertex   6.511478e-01 -5.451207e+01 5.307327e+01
      vertex   7.738427e-01 -5.466672e+01 5.087327e+01
    endloop
  endfacet
  facet normal 7.833836e-01 6.215385e-01 -3.478922e-15
    outer loop
      vertex   7.738427e-01 -5.466672e+01 5.087327e+01
      vertex   6.511478e-01 -5.451207e+01 5.307327e+01
      vertex   7.738427e-01 -5.466672e+01 5.307327e+01
    endloop
  endfacet
  facet normal 7.245157e-01 6.892583e-01 -3.217496e-15
    outer loop
      vertex   7.738427e-01 -5.466672e+01 5.087327e+01
      vertex   7.738427e-01 -5.466672e+01 5.307327e+01
      vertex   9.099059e-01 -5.480974e+01 5.087327e+01
    endloop
  endfacet
  facet normal 7.245157e-01 6.892583e-01 -3.217496e-15
    outer loop
      vertex   9.099059e-01 -5.480974e+01 5.087327e+01
      vertex   7.738427e-01 -5.466672e+01 5.307327e+01
      vertex   9.099059e-01 -5.480974e+01 5.307327e+01
    endloop
  endfacet
  facet normal 6.598143e-01 7.514287e-01 -2.930164e-15
    outer loop
      vertex   9.099059e-01 -5.480974e+01 5.087327e+01
      vertex   9.099059e-01 -5.480974e+01 5.307327e+01
      vertex   1.058242e+00 -5.493999e+01 5.087327e+01
    endloop
  endfacet
  facet normal 6.598143e-01 7.514287e-01 -2.863570e-15
    outer loop
      vertex   1.058242e+00 -5.493999e+01 5.087327e+01
      vertex   9.099059e-01 -5.480974e+01 5.307327e+01
      vertex   1.058242e+00 -5.493999e+01 5.307327e+01
    endloop
  endfacet
  facet normal 5.898006e-01 8.075489e-01 -2.559712e-15
    outer loop
      vertex   1.058242e+00 -5.493999e+01 5.087327e+01
      vertex   1.058242e+00 -5.493999e+01 5.307327e+01
      vertex   1.217656e+00 -5.505642e+01 5.087327e+01
    endloop
  endfacet
  facet normal 5.898006e-01 8.075489e-01 -2.619241e-15
    outer loop
      vertex   1.217656e+00 -5.505642e+01 5.087327e+01
      vertex   1.058242e+00 -5.493999e+01 5.307327e+01
      vertex   1.217656e+00 -5.505642e+01 5.307327e+01
    endloop
  endfacet
  facet normal 5.150381e-01 8.571673e-01 -2.287229e-15
    outer loop
      vertex   1.217656e+00 -5.505642e+01 5.087327e+01
      vertex   1.217656e+00 -5.505642e+01 5.307327e+01
      vertex   1.386866e+00 -5.515809e+01 5.087327e+01
    endloop
  endfacet
  facet normal 5.150381e-01 8.571673e-01 -2.287229e-15
    outer loop
      vertex   1.386866e+00 -5.515809e+01 5.087327e+01
      vertex   1.217656e+00 -5.505642e+01 5.307327e+01
      vertex   1.386866e+00 -5.515809e+01 5.307327e+01
    endloop
  endfacet
  facet normal 4.361288e-01 8.998843e-01 -1.936801e-15
    outer loop
      vertex   1.386866e+00 -5.515809e+01 5.087327e+01
      vertex   1.386866e+00 -5.515809e+01 5.307327e+01
      vertex   1.564508e+00 -5.524419e+01 5.087327e+01
    endloop
  endfacet
  facet normal 4.361288e-01 8.998843e-01 -1.936801e-15
    outer loop
      vertex   1.564508e+00 -5.524419e+01 5.087327e+01
      vertex   1.386866e+00 -5.515809e+01 5.307327e+01
      vertex   1.564508e+00 -5.524419e+01 5.307327e+01
    endloop
  endfacet
  facet normal 3.537081e-01 9.353559e-01 -1.570779e-15
    outer loop
      vertex   1.564508e+00 -5.524419e+01 5.087327e+01
      vertex   1.564508e+00 -5.524419e+01 5.307327e+01
      vertex   1.749152e+00 -5.531401e+01 5.087327e+01
    endloop
  endfacet
  facet normal 3.537081e-01 9.353559e-01 -1.535080e-15
    outer loop
      vertex   1.749152e+00 -5.531401e+01 5.087327e+01
      vertex   1.564508e+00 -5.524419e+01 5.307327e+01
      vertex   1.749152e+00 -5.531401e+01 5.307327e+01
    endloop
  endfacet
  facet normal 2.684395e-01 9.632965e-01 -1.165017e-15
    outer loop
      vertex   1.749152e+00 -5.531401e+01 5.087327e+01
      vertex   1.749152e+00 -5.531401e+01 5.307327e+01
      vertex   1.939311e+00 -5.536700e+01 5.087327e+01
    endloop
  endfacet
  facet normal 2.684395e-01 9.632965e-01 -1.165017e-15
    outer loop
      vertex   1.939311e+00 -5.536700e+01 5.087327e+01
      vertex   1.749152e+00 -5.531401e+01 5.307327e+01
      vertex   1.939311e+00 -5.536700e+01 5.307327e+01
    endloop
  endfacet
  facet normal 1.810096e-01 9.834813e-01 -7.855749e-16
    outer loop
      vertex   1.939311e+00 -5.536700e+01 5.087327e+01
      vertex   1.939311e+00 -5.536700e+01 5.307327e+01
      vertex   2.133456e+00 -5.540273e+01 5.087327e+01
    endloop
  endfacet
  facet normal 1.810096e-01 9.834813e-01 -8.038441e-16
    outer loop
      vertex   2.133456e+00 -5.540273e+01 5.087327e+01
      vertex   1.939311e+00 -5.536700e+01 5.307327e+01
      vertex   2.133456e+00 -5.540273e+01 5.307327e+01
    endloop
  endfacet
  facet normal 9.212232e-02 9.957477e-01 -4.091053e-16
    outer loop
      vertex   2.133456e+00 -5.540273e+01 5.087327e+01
      vertex   2.133456e+00 -5.540273e+01 5.307327e+01
      vertex   2.330022e+00 -5.542092e+01 5.087327e+01
    endloop
  endfacet
  facet normal 9.212232e-02 9.957477e-01 -4.091053e-16
    outer loop
      vertex   2.330022e+00 -5.542092e+01 5.087327e+01
      vertex   2.133456e+00 -5.540273e+01 5.307327e+01
      vertex   2.330022e+00 -5.542092e+01 5.307327e+01
    endloop
  endfacet
  facet normal 2.493325e-03 9.999969e-01 -1.107259e-17
    outer loop
      vertex   2.330022e+00 -5.542092e+01 5.087327e+01
      vertex   2.330022e+00 -5.542092e+01 5.307327e+01
      vertex   2.527426e+00 -5.542141e+01 5.087327e+01
    endloop
  endfacet
  facet normal 2.493325e-03 9.999969e-01 -1.056929e-17
    outer loop
      vertex   2.527426e+00 -5.542141e+01 5.087327e+01
      vertex   2.330022e+00 -5.542092e+01 5.307327e+01
      vertex   2.527426e+00 -5.542141e+01 5.307327e+01
    endloop
  endfacet
  facet normal -8.715574e-02 9.961947e-01 3.694561e-16
    outer loop
      vertex   2.527426e+00 -5.542141e+01 5.087327e+01
      vertex   2.527426e+00 -5.542141e+01 5.307327e+01
      vertex   2.724080e+00 -5.540421e+01 5.087327e+01
    endloop
  endfacet
  facet normal -8.715574e-02 9.961947e-01 3.870492e-16
    outer loop
      vertex   2.724080e+00 -5.540421e+01 5.087327e+01
      vertex   2.527426e+00 -5.542141e+01 5.307327e+01
      vertex   2.724080e+00 -5.540421e+01 5.307327e+01
    endloop
  endfacet
  facet normal -1.761031e-01 9.843717e-01 7.820548e-16
    outer loop
      vertex   2.724080e+00 -5.540421e+01 5.087327e+01
      vertex   2.724080e+00 -5.540421e+01 5.307327e+01
      vertex   2.918401e+00 -5.536944e+01 5.087327e+01
    endloop
  endfacet
  facet normal -1.761031e-01 9.843717e-01 7.465068e-16
    outer loop
      vertex   2.918401e+00 -5.536944e+01 5.087327e+01
      vertex   2.724080e+00 -5.540421e+01 5.307327e+01
      vertex   2.918401e+00 -5.536944e+01 5.307327e+01
    endloop
  endfacet
  facet normal -2.636325e-01 9.646232e-01 1.117547e-15
    outer loop
      vertex   2.918401e+00 -5.536944e+01 5.087327e+01
      vertex   2.918401e+00 -5.536944e+01 5.307327e+01
      vertex   3.108822e+00 -5.531740e+01 5.087327e+01
    endloop
  endfacet
  facet normal -2.636325e-01 9.646232e-01 1.223980e-15
    outer loop
      vertex   3.108822e+00 -5.531740e+01 5.087327e+01
      vertex   2.918401e+00 -5.536944e+01 5.307327e+01
      vertex   3.108822e+00 -5.531740e+01 5.307327e+01
    endloop
  endfacet
  facet normal -3.490394e-01 9.371081e-01 1.620503e-15
    outer loop
      vertex   3.108822e+00 -5.531740e+01 5.087327e+01
      vertex   3.108822e+00 -5.531740e+01 5.307327e+01
      vertex   3.293812e+00 -5.524850e+01 5.087327e+01
    endloop
  endfacet
  facet normal -3.490394e-01 9.371081e-01 1.479590e-15
    outer loop
      vertex   3.293812e+00 -5.524850e+01 5.087327e+01
      vertex   3.108822e+00 -5.531740e+01 5.307327e+01
      vertex   3.293812e+00 -5.524850e+01 5.307327e+01
    endloop
  endfacet
  facet normal -4.316360e-01 9.020479e-01 1.829719e-15
    outer loop
      vertex   3.293812e+00 -5.524850e+01 5.087327e+01
      vertex   3.293812e+00 -5.524850e+01 5.307327e+01
      vertex   3.471881e+00 -5.516329e+01 5.087327e+01
    endloop
  endfacet
  facet normal -4.316360e-01 9.020479e-01 1.916849e-15
    outer loop
      vertex   3.471881e+00 -5.516329e+01 5.087327e+01
      vertex   3.293812e+00 -5.524850e+01 5.307327e+01
      vertex   3.471881e+00 -5.516329e+01 5.307327e+01
    endloop
  endfacet
  facet normal -5.107573e-01 8.597249e-01 2.268218e-15
    outer loop
      vertex   3.471881e+00 -5.516329e+01 5.087327e+01
      vertex   3.471881e+00 -5.516329e+01 5.307327e+01
      vertex   3.641595e+00 -5.506247e+01 5.087327e+01
    endloop
  endfacet
  facet normal -5.107573e-01 8.597249e-01 2.371319e-15
    outer loop
      vertex   3.641595e+00 -5.506247e+01 5.087327e+01
      vertex   3.471881e+00 -5.516329e+01 5.307327e+01
      vertex   3.641595e+00 -5.506247e+01 5.307327e+01
    endloop
  endfacet
  facet normal -5.857663e-01 8.104800e-01 2.719567e-15
    outer loop
      vertex   3.641595e+00 -5.506247e+01 5.087327e+01
      vertex   3.641595e+00 -5.506247e+01 5.307327e+01
      vertex   3.801589e+00 -5.494683e+01 5.087327e+01
    endloop
  endfacet
  facet normal -5.857663e-01 8.104800e-01 2.483083e-15
    outer loop
      vertex   3.801589e+00 -5.494683e+01 5.087327e+01
      vertex   3.641595e+00 -5.506247e+01 5.307327e+01
      vertex   3.801589e+00 -5.494683e+01 5.307327e+01
    endloop
  endfacet
  facet normal -6.560590e-01 7.547096e-01 2.781056e-15
    outer loop
      vertex   3.801589e+00 -5.494683e+01 5.087327e+01
      vertex   3.801589e+00 -5.494683e+01 5.307327e+01
      vertex   3.950572e+00 -5.481732e+01 5.087327e+01
    endloop
  endfacet
  facet normal -6.560590e-01 7.547096e-01 2.781056e-15
    outer loop
      vertex   3.950572e+00 -5.481732e+01 5.087327e+01
      vertex   3.801589e+00 -5.494683e+01 5.307327e+01
      vertex   3.950572e+00 -5.481732e+01 5.307327e+01
    endloop
  endfacet
  facet normal -7.210696e-01 6.928627e-01 3.056638e-15
    outer loop
      vertex   3.950572e+00 -5.481732e+01 5.087327e+01
      vertex   3.950572e+00 -5.481732e+01 5.307327e+01
      vertex   4.087347e+00 -5.467498e+01 5.087327e+01
    endloop
  endfacet
  facet normal -7.210696e-01 6.928627e-01 3.202192e-15
    outer loop
      vertex   4.087347e+00 -5.467498e+01 5.087327e+01
      vertex   3.950572e+00 -5.481732e+01 5.307327e+01
      vertex   4.087347e+00 -5.467498e+01 5.307327e+01
    endloop
  endfacet
  facet normal -7.802745e-01 6.254372e-01 3.465115e-15
    outer loop
      vertex   4.087347e+00 -5.467498e+01 5.087327e+01
      vertex   4.087347e+00 -5.467498e+01 5.307327e+01
      vertex   4.210811e+00 -5.452095e+01 5.087327e+01
    endloop
  endfacet
  facet normal -7.802745e-01 6.254372e-01 3.465115e-15
    outer loop
      vertex   4.210811e+00 -5.452095e+01 5.087327e+01
      vertex   4.087347e+00 -5.467498e+01 5.307327e+01
      vertex   4.210811e+00 -5.452095e+01 5.307327e+01
    endloop
  endfacet
  facet normal -8.331971e-01 5.529761e-01 3.700138e-15
    outer loop
      vertex   4.210811e+00 -5.452095e+01 5.087327e+01
      vertex   4.210811e+00 -5.452095e+01 5.307327e+01
      vertex   4.319972e+00 -5.435647e+01 5.087327e+01
    endloop
  endfacet
  facet normal -8.331971e-01 5.529761e-01 3.700138e-15
    outer loop
      vertex   4.319972e+00 -5.435647e+01 5.087327e+01
      vertex   4.210811e+00 -5.452095e+01 5.307327e+01
      vertex   4.319972e+00 -5.435647e+01 5.307327e+01
    endloop
  endfacet
  facet normal -8.794113e-01 4.760628e-01 3.905371e-15
    outer loop
      vertex   4.319972e+00 -5.435647e+01 5.087327e+01
      vertex   4.319972e+00 -5.435647e+01 5.307327e+01
      vertex   4.413949e+00 -5.418287e+01 5.087327e+01
    endloop
  endfacet
  facet normal -8.794113e-01 4.760628e-01 3.905371e-15
    outer loop
      vertex   4.413949e+00 -5.418287e+01 5.087327e+01
      vertex   4.319972e+00 -5.435647e+01 5.307327e+01
      vertex   4.413949e+00 -5.418287e+01 5.307327e+01
    endloop
  endfacet
  facet normal -9.185450e-01 3.953165e-01 4.079159e-15
    outer loop
      vertex   4.413949e+00 -5.418287e+01 5.087327e+01
      vertex   4.413949e+00 -5.418287e+01 5.307327e+01
      vertex   4.491987e+00 -5.400155e+01 5.087327e+01
    endloop
  endfacet
  facet normal -9.185450e-01 3.953165e-01 4.079159e-15
    outer loop
      vertex   4.491987e+00 -5.400155e+01 5.087327e+01
      vertex   4.413949e+00 -5.418287e+01 5.307327e+01
      vertex   4.491987e+00 -5.400155e+01 5.307327e+01
    endloop
  endfacet
  facet normal -9.502831e-01 3.113873e-01 4.220105e-15
    outer loop
      vertex   4.491987e+00 -5.400155e+01 5.087327e+01
      vertex   4.491987e+00 -5.400155e+01 5.307327e+01
      vertex   4.553456e+00 -5.381395e+01 5.087327e+01
    endloop
  endfacet
  facet normal -9.502831e-01 3.113873e-01 4.220105e-15
    outer loop
      vertex   4.553456e+00 -5.381395e+01 5.087327e+01
      vertex   4.491987e+00 -5.400155e+01 5.307327e+01
      vertex   4.553456e+00 -5.381395e+01 5.307327e+01
    endloop
  endfacet
  facet normal -9.743701e-01 2.249511e-01 4.327072e-15
    outer loop
      vertex   4.553456e+00 -5.381395e+01 5.087327e+01
      vertex   4.553456e+00 -5.381395e+01 5.307327e+01
      vertex   4.597863e+00 -5.362161e+01 5.087327e+01
    endloop
  endfacet
  facet normal -9.743701e-01 2.249511e-01 4.327072e-15
    outer loop
      vertex   4.597863e+00 -5.362161e+01 5.087327e+01
      vertex   4.553456e+00 -5.381395e+01 5.307327e+01
      vertex   4.597863e+00 -5.362161e+01 5.307327e+01
    endloop
  endfacet
  facet normal -9.906120e-01 1.367036e-01 4.399201e-15
    outer loop
      vertex   4.597863e+00 -5.362161e+01 5.087327e+01
      vertex   4.597863e+00 -5.362161e+01 5.307327e+01
      vertex   4.624849e+00 -5.342606e+01 5.087327e+01
    endloop
  endfacet
  facet normal -9.906120e-01 1.367036e-01 4.799128e-15
    outer loop
      vertex   4.624849e+00 -5.342606e+01 5.087327e+01
      vertex   4.597863e+00 -5.362161e+01 5.307327e+01
      vertex   4.624849e+00 -5.342606e+01 5.307327e+01
    endloop
  endfacet
  facet normal -9.988781e-01 4.735551e-02 4.839174e-15
    outer loop
      vertex   4.624849e+00 -5.342606e+01 5.087327e+01
      vertex   4.624849e+00 -5.342606e+01 5.307327e+01
      vertex   4.634197e+00 -5.322887e+01 5.087327e+01
    endloop
  endfacet
  facet normal -9.988781e-01 4.735551e-02 4.435910e-15
    outer loop
      vertex   4.634197e+00 -5.322887e+01 5.087327e+01
      vertex   4.624849e+00 -5.342606e+01 5.307327e+01
      vertex   4.634197e+00 -5.322887e+01 5.307327e+01
    endloop
  endfacet
  facet normal 3.190147e-09 -4.286913e-09 -1.000000e+00
    outer loop
      vertex   -1.128563e+01 -4.072595e+01 5.387327e+01
      vertex   -5.008968e+00 -4.072595e+01 5.387327e+01
      vertex   -4.787551e+00 -6.497712e+01 5.387327e+01
    endloop
  endfacet
  facet normal -1.000000e+00 0.000000e+00 -9.551293e-11
    outer loop
      vertex   -1.305172e+01 -4.572595e+01 5.787327e+01
      vertex   -1.305172e+01 -4.072595e+01 5.787327e+01
      vertex   -1.305172e+01 -4.572595e+01 5.687327e+01
    endloop
  endfacet
  facet normal -1.000000e+00 1.372726e-09 -6.959142e-09
    outer loop
      vertex   -1.305172e+01 -4.572595e+01 5.687327e+01
      vertex   -1.305172e+01 -4.072595e+01 5.787327e+01
      vertex   -1.305172e+01 -4.072595e+01 5.557917e+01
    endloop
  endfacet
  facet normal -9.659258e-01 -2.588191e-01 1.081635e-10
    outer loop
      vertex   -1.305172e+01 -4.572595e+01 5.787327e+01
      vertex   -1.305172e+01 -4.572595e+01 5.687327e+01
      vertex   -7.163645e+00 -6.770053e+01 5.787327e+01
    endloop
  endfacet
  facet normal -9.659258e-01 -2.588191e-01 -7.478726e-10
    outer loop
      vertex   -7.163645e+00 -6.770053e+01 5.787327e+01
      vertex   -1.305172e+01 -4.572595e+01 5.687327e+01
      vertex   -7.163645e+00 -6.770053e+01 5.687327e+01
    endloop
  endfacet
  facet normal -6.838406e-01 -7.296315e-01 -2.443135e-10
    outer loop
      vertex   -7.163645e+00 -6.770053e+01 5.787327e+01
      vertex   -7.163645e+00 -6.770053e+01 5.687327e+01
      vertex   -1.801716e+00 -7.272595e+01 5.787327e+01
    endloop
  endfacet
  facet normal -6.838406e-01 -7.296314e-01 5.204711e-08
    outer loop
      vertex   -1.801716e+00 -7.272595e+01 5.787327e+01
      vertex   -7.163645e+00 -6.770053e+01 5.687327e+01
      vertex   -3.016275e+00 -7.158761e+01 5.387327e+01
    endloop
  endfacet
  facet normal -6.838405e-01 -7.296315e-01 8.592974e-09
    outer loop
      vertex   -1.801716e+00 -7.272595e+01 5.787327e+01
      vertex   -3.016275e+00 -7.158761e+01 5.387327e+01
      vertex   -1.801716e+00 -7.272595e+01 5.387327e+01
    endloop
  endfacet
  facet normal 1.710409e-15 2.699279e-08 -1.000000e+00
    outer loop
      vertex   -3.783056e+00 -6.872595e+01 5.387327e+01
      vertex   8.679625e+00 -6.872595e+01 5.387327e+01
      vertex   -3.016275e+00 -7.158761e+01 5.387327e+01
    endloop
  endfacet
  facet normal -9.752059e-15 2.699283e-08 -1.000000e+00
    outer loop
      vertex   -3.016275e+00 -7.158761e+01 5.387327e+01
      vertex   8.679625e+00 -6.872595e+01 5.387327e+01
      vertex   7.912843e+00 -7.158761e+01 5.387327e+01
    endloop
  endfacet
  facet normal -9.752059e-15 1.196010e-08 -1.000000e+00
    outer loop
      vertex   -3.016275e+00 -7.158761e+01 5.387327e+01
      vertex   7.912843e+00 -7.158761e+01 5.387327e+01
      vertex   -1.801716e+00 -7.272595e+01 5.387327e+01
    endloop
  endfacet
  facet normal -2.089832e-14 1.196020e-08 -1.000000e+00
    outer loop
      vertex   -1.801716e+00 -7.272595e+01 5.387327e+01
      vertex   7.912843e+00 -7.158761e+01 5.387327e+01
      vertex   6.698284e+00 -7.272595e+01 5.387327e+01
    endloop
  endfacet
  facet normal -3.937449e-14 -8.782560e-15 -1.000000e+00
    outer loop
      vertex   8.679625e+00 -6.872595e+01 5.087327e+01
      vertex   3.801589e+00 -5.494683e+01 5.087327e+01
      vertex   1.025529e+01 -6.284547e+01 5.087327e+01
    endloop
  endfacet
  facet normal -1.188806e-14 1.367565e-14 -1.000000e+00
    outer loop
      vertex   1.025529e+01 -6.284547e+01 5.087327e+01
      vertex   3.801589e+00 -5.494683e+01 5.087327e+01
      vertex   3.950572e+00 -5.481732e+01 5.087327e+01
    endloop
  endfacet
  facet normal -7.035070e-14 -3.223663e-14 -1.000000e+00
    outer loop
      vertex   1.025529e+01 -6.284547e+01 5.087327e+01
      vertex   3.950572e+00 -5.481732e+01 5.087327e+01
      vertex   4.087347e+00 -5.467498e+01 5.087327e+01
    endloop
  endfacet
  facet normal -1.539368e-14 -1.754610e-16 -1.000000e+00
    outer loop
      vertex   -3.783056e+00 -6.872595e+01 5.087327e+01
      vertex   2.527426e+00 -5.542141e+01 5.087327e+01
      vertex   8.679625e+00 -6.872595e+01 5.087327e+01
    endloop
  endfacet
  facet normal -5.837970e-16 6.672830e-15 -1.000000e+00
    outer loop
      vertex   8.679625e+00 -6.872595e+01 5.087327e+01
      vertex   2.527426e+00 -5.542141e+01 5.087327e+01
      vertex   2.724080e+00 -5.540421e+01 5.087327e+01
    endloop
  endfacet
  facet normal -3.500631e-14 -8.715905e-15 -1.000000e+00
    outer loop
      vertex   8.679625e+00 -6.872595e+01 5.087327e+01
      vertex   2.724080e+00 -5.540421e+01 5.087327e+01
      vertex   2.918401e+00 -5.536944e+01 5.087327e+01
    endloop
  endfacet
  facet normal -3.679933e-14 8.264265e-15 -1.000000e+00
    outer loop
      vertex   -5.358725e+00 -6.284547e+01 5.087327e+01
      vertex   1.217656e+00 -5.505642e+01 5.087327e+01
      vertex   -3.783056e+00 -6.872595e+01 5.087327e+01
    endloop
  endfacet
  facet normal -2.560457e-15 -4.261315e-15 -1.000000e+00
    outer loop
      vertex   -3.783056e+00 -6.872595e+01 5.087327e+01
      vertex   1.217656e+00 -5.505642e+01 5.087327e+01
      vertex   1.386866e+00 -5.515809e+01 5.087327e+01
    endloop
  endfacet
  facet normal -2.142442e-15 -4.420596e-15 -1.000000e+00
    outer loop
      vertex   -3.783056e+00 -6.872595e+01 5.087327e+01
      vertex   1.386866e+00 -5.515809e+01 5.087327e+01
      vertex   1.564508e+00 -5.524419e+01 5.087327e+01
    endloop
  endfacet
  facet normal -2.746307e-14 -2.507421e-16 -1.000000e+00
    outer loop
      vertex   -5.560680e+00 -4.072595e+01 5.087327e+01
      vertex   2.435589e-01 -5.302072e+01 5.087327e+01
      vertex   -5.358725e+00 -6.284547e+01 5.087327e+01
    endloop
  endfacet
  facet normal 3.849136e-14 -3.785937e-14 -1.000000e+00
    outer loop
      vertex   -5.358725e+00 -6.284547e+01 5.087327e+01
      vertex   2.435589e-01 -5.302072e+01 5.087327e+01
      vertex   2.342106e-01 -5.321790e+01 5.087327e+01
    endloop
  endfacet
  facet normal -2.486377e-14 -1.054522e-15 -1.000000e+00
    outer loop
      vertex   -5.358725e+00 -6.284547e+01 5.087327e+01
      vertex   2.342106e-01 -5.321790e+01 5.087327e+01
      vertex   2.425755e-01 -5.341513e+01 5.087327e+01
    endloop
  endfacet
  facet normal -2.572834e-14 2.680474e-16 -1.000000e+00
    outer loop
      vertex   1.045725e+01 -4.072595e+01 5.087327e+01
      vertex   2.340981e+00 -5.102536e+01 5.087327e+01
      vertex   -5.560680e+00 -4.072595e+01 5.087327e+01
    endloop
  endfacet
  facet normal -1.640264e-15 1.874831e-14 -1.000000e+00
    outer loop
      vertex   -5.560680e+00 -4.072595e+01 5.087327e+01
      vertex   2.340981e+00 -5.102536e+01 5.087327e+01
      vertex   2.144327e+00 -5.104257e+01 5.087327e+01
    endloop
  endfacet
  facet normal -3.540789e-14 -6.471172e-15 -1.000000e+00
    outer loop
      vertex   -5.560680e+00 -4.072595e+01 5.087327e+01
      vertex   2.144327e+00 -5.104257e+01 5.087327e+01
      vertex   1.950007e+00 -5.107733e+01 5.087327e+01
    endloop
  endfacet
  facet normal -3.602992e-14 3.289588e-16 -1.000000e+00
    outer loop
      vertex   1.025529e+01 -6.284547e+01 5.087327e+01
      vertex   4.625832e+00 -5.303165e+01 5.087327e+01
      vertex   1.045725e+01 -4.072595e+01 5.087327e+01
    endloop
  endfacet
  facet normal 3.912818e-13 -2.021653e-13 -1.000000e+00
    outer loop
      vertex   1.045725e+01 -4.072595e+01 5.087327e+01
      vertex   4.625832e+00 -5.303165e+01 5.087327e+01
      vertex   4.599822e+00 -5.283596e+01 5.087327e+01
    endloop
  endfacet
  facet normal -7.021953e-14 2.105583e-14 -1.000000e+00
    outer loop
      vertex   1.045725e+01 -4.072595e+01 5.087327e+01
      vertex   4.599822e+00 -5.283596e+01 5.087327e+01
      vertex   4.556375e+00 -5.264340e+01 5.087327e+01
    endloop
  endfacet
  facet normal -1.677828e-14 -5.405380e-15 -1.000000e+00
    outer loop
      vertex   4.556375e+00 -5.264340e+01 5.087327e+01
      vertex   4.495842e+00 -5.245550e+01 5.087327e+01
      vertex   1.045725e+01 -4.072595e+01 5.087327e+01
    endloop
  endfacet
  facet normal -1.493787e-14 -6.340748e-15 -1.000000e+00
    outer loop
      vertex   1.045725e+01 -4.072595e+01 5.087327e+01
      vertex   4.495842e+00 -5.245550e+01 5.087327e+01
      vertex   4.418709e+00 -5.227379e+01 5.087327e+01
    endloop
  endfacet
  facet normal -1.337835e-14 -7.156240e-15 -1.000000e+00
    outer loop
      vertex   1.045725e+01 -4.072595e+01 5.087327e+01
      vertex   4.418709e+00 -5.227379e+01 5.087327e+01
      vertex   4.325599e+00 -5.209972e+01 5.087327e+01
    endloop
  endfacet
  facet normal -1.201762e-14 -7.889815e-15 -1.000000e+00
    outer loop
      vertex   4.325599e+00 -5.209972e+01 5.087327e+01
      vertex   4.217260e+00 -5.193470e+01 5.087327e+01
      vertex   1.045725e+01 -4.072595e+01 5.087327e+01
    endloop
  endfacet
  facet normal -1.079921e-14 -8.568117e-15 -1.000000e+00
    outer loop
      vertex   1.045725e+01 -4.072595e+01 5.087327e+01
      vertex   4.217260e+00 -5.193470e+01 5.087327e+01
      vertex   4.094565e+00 -5.178006e+01 5.087327e+01
    endloop
  endfacet
  facet normal -4.221823e-14 9.516497e-15 -1.000000e+00
    outer loop
      vertex   1.045725e+01 -4.072595e+01 5.087327e+01
      vertex   4.094565e+00 -5.178006e+01 5.087327e+01
      vertex   3.958502e+00 -5.163703e+01 5.087327e+01
    endloop
  endfacet
  facet normal -9.010931e-15 -1.026209e-14 -1.000000e+00
    outer loop
      vertex   3.958502e+00 -5.163703e+01 5.087327e+01
      vertex   3.810166e+00 -5.150678e+01 5.087327e+01
      vertex   1.045725e+01 -4.072595e+01 5.087327e+01
    endloop
  endfacet
  facet normal -6.943109e-14 2.699086e-14 -1.000000e+00
    outer loop
      vertex   1.045725e+01 -4.072595e+01 5.087327e+01
      vertex   3.810166e+00 -5.150678e+01 5.087327e+01
      vertex   3.650751e+00 -5.139035e+01 5.087327e+01
    endloop
  endfacet
  facet normal -7.523549e-15 -1.252129e-14 -1.000000e+00
    outer loop
      vertex   1.045725e+01 -4.072595e+01 5.087327e+01
      vertex   3.650751e+00 -5.139035e+01 5.087327e+01
      vertex   3.481542e+00 -5.128868e+01 5.087327e+01
    endloop
  endfacet
  facet normal -6.421250e-15 -1.324926e-14 -1.000000e+00
    outer loop
      vertex   3.481542e+00 -5.128868e+01 5.087327e+01
      vertex   3.303900e+00 -5.120259e+01 5.087327e+01
      vertex   1.045725e+01 -4.072595e+01 5.087327e+01
    endloop
  endfacet
  facet normal -3.588457e-14 6.868015e-15 -1.000000e+00
    outer loop
      vertex   1.045725e+01 -4.072595e+01 5.087327e+01
      vertex   3.303900e+00 -5.120259e+01 5.087327e+01
      vertex   3.119256e+00 -5.113277e+01 5.087327e+01
    endloop
  endfacet
  facet normal -4.293511e-15 -1.540729e-14 -1.000000e+00
    outer loop
      vertex   1.045725e+01 -4.072595e+01 5.087327e+01
      vertex   3.119256e+00 -5.113277e+01 5.087327e+01
      vertex   2.929096e+00 -5.107977e+01 5.087327e+01
    endloop
  endfacet
  facet normal -3.528684e-14 7.127623e-15 -1.000000e+00
    outer loop
      vertex   2.929096e+00 -5.107977e+01 5.087327e+01
      vertex   2.734952e+00 -5.104404e+01 5.087327e+01
      vertex   1.045725e+01 -4.072595e+01 5.087327e+01
    endloop
  endfacet
  facet normal -1.668356e-15 -1.803322e-14 -1.000000e+00
    outer loop
      vertex   1.045725e+01 -4.072595e+01 5.087327e+01
      vertex   2.734952e+00 -5.104404e+01 5.087327e+01
      vertex   2.538386e+00 -5.102586e+01 5.087327e+01
    endloop
  endfacet
  facet normal -3.597343e-14 8.341500e-15 -1.000000e+00
    outer loop
      vertex   1.045725e+01 -4.072595e+01 5.087327e+01
      vertex   2.538386e+00 -5.102586e+01 5.087327e+01
      vertex   2.340981e+00 -5.102536e+01 5.087327e+01
    endloop
  endfacet
  facet normal -4.383547e-15 1.603926e-14 -1.000000e+00
    outer loop
      vertex   1.950007e+00 -5.107733e+01 5.087327e+01
      vertex   1.759585e+00 -5.112937e+01 5.087327e+01
      vertex   -5.560680e+00 -4.072595e+01 5.087327e+01
    endloop
  endfacet
  facet normal -6.651116e-14 -2.767621e-14 -1.000000e+00
    outer loop
      vertex   -5.560680e+00 -4.072595e+01 5.087327e+01
      vertex   1.759585e+00 -5.112937e+01 5.087327e+01
      vertex   1.574595e+00 -5.119828e+01 5.087327e+01
    endloop
  endfacet
  facet normal -6.365837e-15 1.330355e-14 -1.000000e+00
    outer loop
      vertex   -5.560680e+00 -4.072595e+01 5.087327e+01
      vertex   1.574595e+00 -5.119828e+01 5.087327e+01
      vertex   1.396526e+00 -5.128348e+01 5.087327e+01
    endloop
  endfacet
  facet normal -3.755869e-14 -7.251923e-15 -1.000000e+00
    outer loop
      vertex   1.396526e+00 -5.128348e+01 5.087327e+01
      vertex   1.226812e+00 -5.138431e+01 5.087327e+01
      vertex   -5.560680e+00 -4.072595e+01 5.087327e+01
    endloop
  endfacet
  facet normal -8.248830e-15 1.141328e-14 -1.000000e+00
    outer loop
      vertex   -5.560680e+00 -4.072595e+01 5.087327e+01
      vertex   1.226812e+00 -5.138431e+01 5.087327e+01
      vertex   1.066819e+00 -5.149994e+01 5.087327e+01
    endloop
  endfacet
  facet normal -9.338649e-15 1.074289e-14 -1.000000e+00
    outer loop
      vertex   -5.560680e+00 -4.072595e+01 5.087327e+01
      vertex   1.066819e+00 -5.149994e+01 5.087327e+01
      vertex   9.178355e-01 -5.162945e+01 5.087327e+01
    endloop
  endfacet
  facet normal -4.257695e-14 -9.006255e-15 -1.000000e+00
    outer loop
      vertex   9.178355e-01 -5.162945e+01 5.087327e+01
      vertex   7.810607e-01 -5.177180e+01 5.087327e+01
      vertex   -5.560680e+00 -4.072595e+01 5.087327e+01
    endloop
  endfacet
  facet normal -1.122230e-14 8.995355e-15 -1.000000e+00
    outer loop
      vertex   -5.560680e+00 -4.072595e+01 5.087327e+01
      vertex   7.810607e-01 -5.177180e+01 5.087327e+01
      vertex   6.575961e-01 -5.192583e+01 5.087327e+01
    endloop
  endfacet
  facet normal -8.337598e-14 -3.106504e-14 -1.000000e+00
    outer loop
      vertex   -5.560680e+00 -4.072595e+01 5.087327e+01
      vertex   6.575961e-01 -5.192583e+01 5.087327e+01
      vertex   5.484357e-01 -5.209030e+01 5.087327e+01
    endloop
  endfacet
  facet normal -1.274919e-14 6.901679e-15 -1.000000e+00
    outer loop
      vertex   5.484357e-01 -5.209030e+01 5.087327e+01
      vertex   4.544584e-01 -5.226390e+01 5.087327e+01
      vertex   -5.560680e+00 -4.072595e+01 5.087327e+01
    endloop
  endfacet
  facet normal -1.423576e-14 6.126679e-15 -1.000000e+00
    outer loop
      vertex   -5.560680e+00 -4.072595e+01 5.087327e+01
      vertex   4.544584e-01 -5.226390e+01 5.087327e+01
      vertex   3.764209e-01 -5.244523e+01 5.087327e+01
    endloop
  endfacet
  facet normal -1.598806e-14 5.238944e-15 -1.000000e+00
    outer loop
      vertex   -5.560680e+00 -4.072595e+01 5.087327e+01
      vertex   3.764209e-01 -5.244523e+01 5.087327e+01
      vertex   3.149514e-01 -5.263282e+01 5.087327e+01
    endloop
  endfacet
  facet normal -1.812494e-14 4.184471e-15 -1.000000e+00
    outer loop
      vertex   3.149514e-01 -5.263282e+01 5.087327e+01
      vertex   2.705449e-01 -5.282517e+01 5.087327e+01
      vertex   -5.560680e+00 -4.072595e+01 5.087327e+01
    endloop
  endfacet
  facet normal -2.084007e-14 2.875912e-15 -1.000000e+00
    outer loop
      vertex   -5.560680e+00 -4.072595e+01 5.087327e+01
      vertex   2.705449e-01 -5.282517e+01 5.087327e+01
      vertex   2.435589e-01 -5.302072e+01 5.087327e+01
    endloop
  endfacet
  facet normal -2.176784e-14 -2.893402e-15 -1.000000e+00
    outer loop
      vertex   2.425755e-01 -5.341513e+01 5.087327e+01
      vertex   2.685860e-01 -5.361081e+01 5.087327e+01
      vertex   -5.358725e+00 -6.284547e+01 5.087327e+01
    endloop
  endfacet
  facet normal -6.354196e-14 2.256244e-14 -1.000000e+00
    outer loop
      vertex   -5.358725e+00 -6.284547e+01 5.087327e+01
      vertex   2.685860e-01 -5.361081e+01 5.087327e+01
      vertex   3.120328e-01 -5.380338e+01 5.087327e+01
    endloop
  endfacet
  facet normal -1.821096e-14 -5.866942e-15 -1.000000e+00
    outer loop
      vertex   -5.358725e+00 -6.284547e+01 5.087327e+01
      vertex   3.120328e-01 -5.380338e+01 5.087327e+01
      vertex   3.725661e-01 -5.399127e+01 5.087327e+01
    endloop
  endfacet
  facet normal -1.647258e-14 -6.992194e-15 -1.000000e+00
    outer loop
      vertex   3.725661e-01 -5.399127e+01 5.087327e+01
      vertex   4.496985e-01 -5.417299e+01 5.087327e+01
      vertex   -5.358725e+00 -6.284547e+01 5.087327e+01
    endloop
  endfacet
  facet normal -1.496246e-14 -8.003599e-15 -1.000000e+00
    outer loop
      vertex   -5.358725e+00 -6.284547e+01 5.087327e+01
      vertex   4.496985e-01 -5.417299e+01 5.087327e+01
      vertex   5.428089e-01 -5.434705e+01 5.087327e+01
    endloop
  endfacet
  facet normal -1.361558e-14 -8.938908e-15 -1.000000e+00
    outer loop
      vertex   -5.358725e+00 -6.284547e+01 5.087327e+01
      vertex   5.428089e-01 -5.434705e+01 5.087327e+01
      vertex   6.511478e-01 -5.451207e+01 5.087327e+01
    endloop
  endfacet
  facet normal -1.238506e-14 -9.826336e-15 -1.000000e+00
    outer loop
      vertex   6.511478e-01 -5.451207e+01 5.087327e+01
      vertex   7.738427e-01 -5.466672e+01 5.087327e+01
      vertex   -5.358725e+00 -6.284547e+01 5.087327e+01
    endloop
  endfacet
  facet normal -6.964295e-14 3.310660e-14 -1.000000e+00
    outer loop
      vertex   -5.358725e+00 -6.284547e+01 5.087327e+01
      vertex   7.738427e-01 -5.466672e+01 5.087327e+01
      vertex   9.099059e-01 -5.480974e+01 5.087327e+01
    endloop
  endfacet
  facet normal -1.105895e-14 -1.259447e-14 -1.000000e+00
    outer loop
      vertex   -5.358725e+00 -6.284547e+01 5.087327e+01
      vertex   9.099059e-01 -5.480974e+01 5.087327e+01
      vertex   1.058242e+00 -5.493999e+01 5.087327e+01
    endloop
  endfacet
  facet normal -3.787368e-14 9.171347e-15 -1.000000e+00
    outer loop
      vertex   1.058242e+00 -5.493999e+01 5.087327e+01
      vertex   1.217656e+00 -5.505642e+01 5.087327e+01
      vertex   -5.358725e+00 -6.284547e+01 5.087327e+01
    endloop
  endfacet
  facet normal -3.519558e-14 8.689987e-15 -1.000000e+00
    outer loop
      vertex   1.564508e+00 -5.524419e+01 5.087327e+01
      vertex   1.749152e+00 -5.531401e+01 5.087327e+01
      vertex   -3.783056e+00 -6.872595e+01 5.087327e+01
    endloop
  endfacet
  facet normal -1.456545e-15 -5.226820e-15 -1.000000e+00
    outer loop
      vertex   -3.783056e+00 -6.872595e+01 5.087327e+01
      vertex   1.749152e+00 -5.531401e+01 5.087327e+01
      vertex   1.939311e+00 -5.536700e+01 5.087327e+01
    endloop
  endfacet
  facet normal -6.884642e-14 2.363995e-14 -1.000000e+00
    outer loop
      vertex   -3.783056e+00 -6.872595e+01 5.087327e+01
      vertex   1.939311e+00 -5.536700e+01 5.087327e+01
      vertex   2.133456e+00 -5.540273e+01 5.087327e+01
    endloop
  endfacet
  facet normal -6.161044e-16 -6.659456e-15 -1.000000e+00
    outer loop
      vertex   2.133456e+00 -5.540273e+01 5.087327e+01
      vertex   2.330022e+00 -5.542092e+01 5.087327e+01
      vertex   -3.783056e+00 -6.872595e+01 5.087327e+01
    endloop
  endfacet
  facet normal -3.597033e-14 9.584260e-15 -1.000000e+00
    outer loop
      vertex   -3.783056e+00 -6.872595e+01 5.087327e+01
      vertex   2.330022e+00 -5.542092e+01 5.087327e+01
      vertex   2.527426e+00 -5.542141e+01 5.087327e+01
    endloop
  endfacet
  facet normal -1.560710e-15 5.710590e-15 -1.000000e+00
    outer loop
      vertex   2.918401e+00 -5.536944e+01 5.087327e+01
      vertex   3.108822e+00 -5.531740e+01 5.087327e+01
      vertex   8.679625e+00 -6.872595e+01 5.087327e+01
    endloop
  endfacet
  facet normal -3.531363e-14 -8.312616e-15 -1.000000e+00
    outer loop
      vertex   8.679625e+00 -6.872595e+01 5.087327e+01
      vertex   3.108822e+00 -5.531740e+01 5.087327e+01
      vertex   3.293812e+00 -5.524850e+01 5.087327e+01
    endloop
  endfacet
  facet normal -2.329547e-15 4.868369e-15 -1.000000e+00
    outer loop
      vertex   8.679625e+00 -6.872595e+01 5.087327e+01
      vertex   3.293812e+00 -5.524850e+01 5.087327e+01
      vertex   3.471881e+00 -5.516329e+01 5.087327e+01
    endloop
  endfacet
  facet normal -3.687812e-14 -8.397476e-15 -1.000000e+00
    outer loop
      vertex   3.471881e+00 -5.516329e+01 5.087327e+01
      vertex   3.641595e+00 -5.506247e+01 5.087327e+01
      vertex   8.679625e+00 -6.872595e+01 5.087327e+01
    endloop
  endfacet
  facet normal -2.967625e-15 4.106075e-15 -1.000000e+00
    outer loop
      vertex   8.679625e+00 -6.872595e+01 5.087327e+01
      vertex   3.641595e+00 -5.506247e+01 5.087327e+01
      vertex   3.801589e+00 -5.494683e+01 5.087327e+01
    endloop
  endfacet
  facet normal -1.340953e-14 1.074855e-14 -1.000000e+00
    outer loop
      vertex   4.087347e+00 -5.467498e+01 5.087327e+01
      vertex   4.210811e+00 -5.452095e+01 5.087327e+01
      vertex   1.025529e+01 -6.284547e+01 5.087327e+01
    endloop
  endfacet
  facet normal -4.582383e-14 -1.278765e-14 -1.000000e+00
    outer loop
      vertex   1.025529e+01 -6.284547e+01 5.087327e+01
      vertex   4.210811e+00 -5.452095e+01 5.087327e+01
      vertex   4.319972e+00 -5.435647e+01 5.087327e+01
    endloop
  endfacet
  facet normal -1.551878e-14 8.400976e-15 -1.000000e+00
    outer loop
      vertex   1.025529e+01 -6.284547e+01 5.087327e+01
      vertex   4.319972e+00 -5.435647e+01 5.087327e+01
      vertex   4.413949e+00 -5.418287e+01 5.087327e+01
    endloop
  endfacet
  facet normal -1.707770e-14 7.349770e-15 -1.000000e+00
    outer loop
      vertex   4.413949e+00 -5.418287e+01 5.087327e+01
      vertex   4.491987e+00 -5.400155e+01 5.087327e+01
      vertex   1.025529e+01 -6.284547e+01 5.087327e+01
    endloop
  endfacet
  facet normal -1.886846e-14 6.182788e-15 -1.000000e+00
    outer loop
      vertex   1.025529e+01 -6.284547e+01 5.087327e+01
      vertex   4.491987e+00 -5.400155e+01 5.087327e+01
      vertex   4.553456e+00 -5.381395e+01 5.087327e+01
    endloop
  endfacet
  facet normal -2.098707e-14 4.845248e-15 -1.000000e+00
    outer loop
      vertex   1.025529e+01 -6.284547e+01 5.087327e+01
      vertex   4.553456e+00 -5.381395e+01 5.087327e+01
      vertex   4.597863e+00 -5.362161e+01 5.087327e+01
    endloop
  endfacet
  facet normal -2.358115e-14 3.254179e-15 -1.000000e+00
    outer loop
      vertex   4.597863e+00 -5.362161e+01 5.087327e+01
      vertex   4.624849e+00 -5.342606e+01 5.087327e+01
      vertex   1.025529e+01 -6.284547e+01 5.087327e+01
    endloop
  endfacet
  facet normal -8.274618e-14 -3.211165e-14 -1.000000e+00
    outer loop
      vertex   1.025529e+01 -6.284547e+01 5.087327e+01
      vertex   4.624849e+00 -5.342606e+01 5.087327e+01
      vertex   4.634197e+00 -5.322887e+01 5.087327e+01
    endloop
  endfacet
  facet normal 4.352085e-13 2.706434e-13 -1.000000e+00
    outer loop
      vertex   1.025529e+01 -6.284547e+01 5.087327e+01
      vertex   4.634197e+00 -5.322887e+01 5.087327e+01
      vertex   4.625832e+00 -5.303165e+01 5.087327e+01
    endloop
  endfacet
  facet normal -9.062700e-01 -8.274387e-03 4.226183e-01
    outer loop
      vertex   -4.296615e+00 -6.680932e+01 5.307327e+01
      vertex   -4.534760e+00 -4.072595e+01 5.307327e+01
      vertex   -5.358725e+00 -6.284547e+01 5.087327e+01
    endloop
  endfacet
  facet normal -9.062700e-01 -8.274387e-03 4.226183e-01
    outer loop
      vertex   -5.358725e+00 -6.284547e+01 5.087327e+01
      vertex   -4.534760e+00 -4.072595e+01 5.307327e+01
      vertex   -5.560680e+00 -4.072595e+01 5.087327e+01
    endloop
  endfacet
  facet normal 0.000000e+00 0.000000e+00 -1.000000e+00
    outer loop
      vertex   -4.296615e+00 -6.680932e+01 5.307327e+01
      vertex   -4.787551e+00 -6.497712e+01 5.307327e+01
      vertex   -4.534760e+00 -4.072595e+01 5.307327e+01
    endloop
  endfacet
  facet normal -0.000000e+00 0.000000e+00 -1.000000e+00
    outer loop
      vertex   -4.534760e+00 -4.072595e+01 5.307327e+01
      vertex   -4.787551e+00 -6.497712e+01 5.307327e+01
      vertex   -5.008968e+00 -4.072595e+01 5.307327e+01
    endloop
  endfacet
  facet normal -9.999583e-01 -9.129776e-03 2.442389e-14
    outer loop
      vertex   -5.008968e+00 -4.072595e+01 5.307327e+01
      vertex   -4.787551e+00 -6.497712e+01 5.307327e+01
      vertex   -5.008968e+00 -4.072595e+01 5.387327e+01
    endloop
  endfacet
  facet normal -9.999583e-01 -9.129777e-03 4.196684e-08
    outer loop
      vertex   -5.008968e+00 -4.072595e+01 5.387327e+01
      vertex   -4.787551e+00 -6.497712e+01 5.307327e+01
      vertex   -4.787551e+00 -6.497712e+01 5.387327e+01
    endloop
  endfacet
  facet normal -6.830127e-01 -1.830127e-01 -7.071068e-01
    outer loop
      vertex   -3.016275e+00 -7.158761e+01 5.387327e+01
      vertex   -7.163645e+00 -6.770053e+01 5.687327e+01
      vertex   -3.783056e+00 -6.872595e+01 5.387327e+01
    endloop
  endfacet
  facet normal -6.830127e-01 -1.830127e-01 -7.071068e-01
    outer loop
      vertex   -3.783056e+00 -6.872595e+01 5.387327e+01
      vertex   -7.163645e+00 -6.770053e+01 5.687327e+01
      vertex   -4.787551e+00 -6.497712e+01 5.387327e+01
    endloop
  endfacet
  facet normal -6.830127e-01 -1.830127e-01 -7.071068e-01
    outer loop
      vertex   -4.787551e+00 -6.497712e+01 5.387327e+01
      vertex   -7.163645e+00 -6.770053e+01 5.687327e+01
      vertex   -1.305172e+01 -4.072595e+01 5.557917e+01
    endloop
  endfacet
  facet normal -6.830127e-01 -1.830127e-01 -7.071068e-01
    outer loop
      vertex   -4.787551e+00 -6.497712e+01 5.387327e+01
      vertex   -1.305172e+01 -4.072595e+01 5.557917e+01
      vertex   -1.128563e+01 -4.072595e+01 5.387327e+01
    endloop
  endfacet
  facet normal -6.830127e-01 -1.830127e-01 -7.071068e-01
    outer loop
      vertex   -7.163645e+00 -6.770053e+01 5.687327e+01
      vertex   -1.305172e+01 -4.572595e+01 5.687327e+01
      vertex   -1.305172e+01 -4.072595e+01 5.557917e+01
    endloop
  endfacet
  facet normal 1.140273e-15 -1.000000e+00 1.090839e-09
    outer loop
      vertex   -3.783056e+00 -6.872595e+01 5.387327e+01
      vertex   -3.783056e+00 -6.872595e+01 5.087327e+01
      vertex   8.679625e+00 -6.872595e+01 5.387327e+01
    endloop
  endfacet
  facet normal 1.681439e-23 -1.000000e+00 1.090844e-09
    outer loop
      vertex   8.679625e+00 -6.872595e+01 5.387327e+01
      vertex   -3.783056e+00 -6.872595e+01 5.087327e+01
      vertex   8.679625e+00 -6.872595e+01 5.087327e+01
    endloop
  endfacet
endsolid
