%TF.GenerationSoftware,KiCad,Pcbnew,(6.0.4)*%
%TF.CreationDate,2022-04-14T21:23:52-04:00*%
%TF.ProjectId,GEN3,47454e33-2e6b-4696-9361-645f70636258,rev?*%
%TF.SameCoordinates,Original*%
%TF.FileFunction,Copper,L2,Bot*%
%TF.FilePolarity,Positive*%
%FSLAX46Y46*%
G04 Gerber Fmt 4.6, Leading zero omitted, Abs format (unit mm)*
G04 Created by KiCad (PCBNEW (6.0.4)) date 2022-04-14 21:23:52*
%MOMM*%
%LPD*%
G01*
G04 APERTURE LIST*
%TA.AperFunction,ComponentPad*%
%ADD10R,1.050000X1.500000*%
%TD*%
%TA.AperFunction,ComponentPad*%
%ADD11O,1.050000X1.500000*%
%TD*%
%TA.AperFunction,ComponentPad*%
%ADD12R,1.700000X1.700000*%
%TD*%
%TA.AperFunction,ComponentPad*%
%ADD13O,1.700000X1.700000*%
%TD*%
%TA.AperFunction,ComponentPad*%
%ADD14C,1.600000*%
%TD*%
%TA.AperFunction,ComponentPad*%
%ADD15O,1.600000X1.600000*%
%TD*%
%TA.AperFunction,Conductor*%
%ADD16C,0.250000*%
%TD*%
G04 APERTURE END LIST*
D10*
%TO.P,fet1,1,S*%
%TO.N,GND*%
X128270000Y-91440000D03*
D11*
%TO.P,fet1,2,G*%
%TO.N,Net-(fet1-Pad2)*%
X129540000Y-91440000D03*
%TO.P,fet1,3,D*%
%TO.N,Net-(fet1-Pad3)*%
X130810000Y-91440000D03*
%TD*%
D12*
%TO.P,Switch1,1,Pin_1*%
%TO.N,Net-(left_tube1-Pad2)*%
X146050000Y-86360000D03*
D13*
%TO.P,Switch1,2,Pin_2*%
%TO.N,Net-(Switch1-Pad2)*%
X148590000Y-86360000D03*
%TD*%
D14*
%TO.P,10K Resistors,1*%
%TO.N,GND*%
X128270000Y-86360000D03*
D15*
%TO.P,10K Resistors,2*%
%TO.N,Net-(fet1-Pad2)*%
X138430000Y-86360000D03*
%TD*%
D12*
%TO.P,BUCK1,1,Pin_1*%
%TO.N,GND*%
X153670000Y-83820000D03*
D13*
%TO.P,BUCK1,2,Pin_2*%
%TO.N,Net-(Switch1-Pad2)*%
X153670000Y-81280000D03*
%TD*%
D12*
%TO.P,Reed1,1,Pin_1*%
%TO.N,Net-(fet1-Pad2)*%
X140970000Y-91440000D03*
D13*
%TO.P,Reed1,2,Pin_2*%
%TO.N,Net-(left_tube1-Pad2)*%
X143510000Y-91440000D03*
%TD*%
D10*
%TO.P,fet2,1,S*%
%TO.N,GND*%
X130810000Y-76200000D03*
D11*
%TO.P,fet2,2,G*%
%TO.N,Net-(reed2-Pad1)*%
X129540000Y-76200000D03*
%TO.P,fet2,3,D*%
%TO.N,Net-(right_tube1-Pad1)*%
X128270000Y-76200000D03*
%TD*%
D14*
%TO.P,R1,1*%
%TO.N,GND*%
X128270000Y-81280000D03*
D15*
%TO.P,R1,2*%
%TO.N,Net-(reed2-Pad1)*%
X138430000Y-81280000D03*
%TD*%
D12*
%TO.P,right_tube1,1,Pin_1*%
%TO.N,Net-(right_tube1-Pad1)*%
X123190000Y-76200000D03*
D13*
%TO.P,right_tube1,2,Pin_2*%
%TO.N,Net-(switch2-Pad1)*%
X123190000Y-78740000D03*
%TD*%
D12*
%TO.P,switch2,1,Pin_1*%
%TO.N,Net-(switch2-Pad1)*%
X146050000Y-81280000D03*
D13*
%TO.P,switch2,2,Pin_2*%
%TO.N,Net-(switch2-Pad2)*%
X148590000Y-81280000D03*
%TD*%
D12*
%TO.P,Reed2,1,Pin_1*%
%TO.N,Net-(reed2-Pad1)*%
X140970000Y-76200000D03*
D13*
%TO.P,Reed2,2,Pin_2*%
%TO.N,Net-(switch2-Pad1)*%
X143510000Y-76200000D03*
%TD*%
D12*
%TO.P,left_tube1,1,Pin_1*%
%TO.N,Net-(fet1-Pad3)*%
X123190000Y-88900000D03*
D13*
%TO.P,left_tube1,2,Pin_2*%
%TO.N,Net-(left_tube1-Pad2)*%
X123190000Y-91440000D03*
%TD*%
D16*
%TO.N,Net-(fet1-Pad2)*%
X138430000Y-86360000D02*
X140970000Y-86360000D01*
X129540000Y-91440000D02*
X129540000Y-91215000D01*
X140970000Y-86360000D02*
X140970000Y-91440000D01*
X134395000Y-86360000D02*
X138430000Y-86360000D01*
X129540000Y-91215000D02*
X134395000Y-86360000D01*
%TO.N,Net-(left_tube1-Pad2)*%
X125634511Y-92614511D02*
X142335489Y-92614511D01*
X142335489Y-92614511D02*
X143510000Y-91440000D01*
X125634511Y-92614511D02*
X124460000Y-91440000D01*
X143510000Y-91440000D02*
X146050000Y-88900000D01*
X146050000Y-88900000D02*
X146050000Y-86360000D01*
X124460000Y-91440000D02*
X123190000Y-91440000D01*
%TO.N,Net-(Switch1-Pad2)*%
X153670000Y-81280000D02*
X148590000Y-86360000D01*
%TO.N,Net-(reed2-Pad1)*%
X129540000Y-75545978D02*
X129540000Y-76200000D01*
X140970000Y-76200000D02*
X140970000Y-78740000D01*
X138430000Y-76200000D02*
X137355489Y-75125489D01*
X129960489Y-75125489D02*
X129540000Y-75545978D01*
X140970000Y-76200000D02*
X138430000Y-76200000D01*
X140970000Y-78740000D02*
X138430000Y-81280000D01*
X137355489Y-75125489D02*
X129960489Y-75125489D01*
%TO.N,Net-(switch2-Pad1)*%
X141985969Y-74675969D02*
X127254031Y-74675969D01*
X127254031Y-74675969D02*
X123190000Y-78740000D01*
X143510000Y-76200000D02*
X141985969Y-74675969D01*
X146050000Y-78740000D02*
X143510000Y-76200000D01*
X146050000Y-81280000D02*
X146050000Y-78740000D01*
%TD*%
M02*
